<?xml version="1.0" encoding="UTF-8"?>
<svg id="Layer_2" data-name="Layer 2" xmlns="http://www.w3.org/2000/svg" width="144.75" height="94.26" xmlns:xlink="http://www.w3.org/1999/xlink" viewBox="0 0 144.75 94.26">
  <defs>
    <linearGradient id="linear-gradient" x1="21.53" y1="39.01" x2="35.03" y2="39.01" gradientUnits="userSpaceOnUse">
      <stop offset="0" stop-color="#81b99b"/>
      <stop offset="1" stop-color="#a0c886"/>
    </linearGradient>
    <linearGradient id="linear-gradient-2" x1="7.48" y1="54.11" x2="20.98" y2="54.11" xlink:href="#linear-gradient"/>
    <linearGradient id="linear-gradient-3" x1="0" y1="29.88" x2="21.57" y2="29.88" gradientTransform="translate(24.28 1.13) rotate(45)" xlink:href="#linear-gradient"/>
    <linearGradient id="linear-gradient-4" x1="37.29" y1="20.19" x2="50.79" y2="20.19" xlink:href="#linear-gradient"/>
    <linearGradient id="linear-gradient-5" x1="22.98" y1="8.12" x2="32.5" y2="16.8" xlink:href="#linear-gradient"/>
    <linearGradient id="linear-gradient-6" x1="25.64" y1="65.46" x2="39.14" y2="65.46" xlink:href="#linear-gradient"/>
  </defs>
  <g id="Layer_1-2" data-name="Layer 1">
    <g>
      <rect x="21.53" y="26.56" width="13.5" height="24.91" rx="6.75" ry="6.75" style="fill: url(#linear-gradient);"/>
      <rect x="7.48" y="41.66" width="13.5" height="24.91" rx="6.75" ry="6.75" style="fill: url(#linear-gradient-2);"/>
      <rect x="-1.67" y="23.12" width="24.91" height="13.5" rx="6.75" ry="6.75" transform="translate(-17.97 16.37) rotate(-45)" style="fill: url(#linear-gradient-3);"/>
      <rect x="37.29" y="7.74" width="13.5" height="24.91" rx="6.75" ry="6.75" style="fill: url(#linear-gradient-4);"/>
      <rect x="20.98" y="0" width="13.5" height="24.91" rx="6.75" ry="6.75" style="fill: url(#linear-gradient-5);"/>
      <rect x="25.64" y="53.01" width="13.5" height="24.91" rx="6.75" ry="6.75" style="fill: url(#linear-gradient-6);"/>
      <g>
        <rect x="43.94" y="16.35" width="100.8" height="77.91" style="fill: none;"/>
        <path d="M49.87,39.27s-.11-.1-.25-.19c-.14-.08-.32-.17-.54-.27-.22-.1-.45-.18-.71-.25-.26-.07-.51-.11-.77-.11-.34,0-.6.06-.78.17-.18.12-.28.29-.28.53,0,.19.07.34.21.45s.34.21.61.29.59.18.97.29c.54.14,1.02.32,1.42.52s.71.46.92.78c.21.32.32.74.32,1.26,0,.48-.09.88-.26,1.21-.18.33-.41.6-.71.8-.3.2-.64.35-1.03.44-.38.09-.78.14-1.19.14s-.84-.04-1.28-.13c-.44-.08-.85-.2-1.25-.36-.4-.16-.77-.35-1.1-.57l.86-1.72s.14.11.31.22c.18.11.39.22.65.34.26.12.55.22.87.31.32.09.64.13.97.13.35,0,.61-.05.79-.16.17-.11.26-.26.26-.46,0-.21-.09-.38-.27-.5-.18-.12-.42-.23-.73-.32-.31-.1-.66-.2-1.06-.32-.52-.16-.95-.34-1.29-.54-.34-.2-.59-.44-.76-.73-.16-.29-.25-.64-.25-1.07,0-.6.14-1.1.43-1.51.28-.41.67-.72,1.15-.93s1-.32,1.57-.32c.4,0,.79.05,1.16.14s.72.22,1.04.36c.32.14.62.29.87.43l-.86,1.63Z" style="fill: #488967;"/>
        <path d="M51.83,46.23c.16.05.31.09.45.11.14.03.27.04.38.04.15,0,.28-.03.39-.1.11-.07.2-.18.28-.34.08-.16.15-.37.22-.64l-2.4-6.25h1.98l1.46,4.3,1.25-4.3h1.81l-2.4,7.26c-.11.34-.28.64-.52.9-.23.26-.51.47-.84.61-.33.15-.69.22-1.08.22-.17,0-.33-.01-.49-.04-.16-.03-.32-.07-.49-.14v-1.64Z" style="fill: #488967;"/>
        <path d="M60.66,45.4c-.54,0-1.06-.09-1.57-.26s-.94-.44-1.3-.78l.66-1.21c.38.28.76.49,1.12.64.36.14.71.22,1.03.22.25,0,.44-.04.58-.11.14-.08.2-.19.2-.35,0-.12-.04-.21-.12-.28-.08-.07-.2-.13-.37-.18s-.37-.11-.61-.18c-.48-.16-.88-.31-1.2-.46s-.56-.33-.72-.55c-.16-.22-.24-.5-.24-.85,0-.42.11-.78.32-1.09.21-.31.51-.55.91-.73.39-.17.86-.26,1.4-.26.43,0,.85.07,1.27.2.41.14.8.36,1.16.68l-.74,1.2c-.36-.25-.68-.43-.96-.54s-.55-.17-.82-.17c-.14,0-.26.02-.37.05-.11.03-.2.08-.27.16-.07.07-.1.17-.1.29s.03.21.1.28c.07.07.18.13.32.18.15.05.33.11.56.18.52.15.95.3,1.3.45.34.15.6.34.77.57.17.22.26.52.26.89,0,.63-.23,1.12-.69,1.48-.46.36-1.09.54-1.88.54Z" style="fill: #488967;"/>
        <path d="M68.24,44.94c-.18.07-.37.14-.58.22-.21.07-.43.13-.67.17-.23.04-.46.07-.68.07-.32,0-.61-.05-.88-.16-.27-.11-.48-.28-.64-.53-.16-.24-.23-.57-.23-.97v-3.24h-.8v-1.45h.8v-2h1.92v2h1.28v1.45h-1.28v2.57c0,.2.05.35.16.44.1.09.24.13.4.13.14,0,.28-.02.44-.07.16-.05.29-.1.4-.16l.37,1.52Z" style="fill: #488967;"/>
        <path d="M71.93,45.4c-.54,0-1.01-.09-1.43-.25-.42-.17-.77-.4-1.06-.69s-.51-.63-.67-1.01c-.15-.38-.23-.79-.23-1.2,0-.6.13-1.14.4-1.63.27-.49.65-.89,1.16-1.19.5-.3,1.11-.45,1.82-.45s1.32.15,1.82.45.88.69,1.15,1.18c.26.48.4,1.01.4,1.58,0,.11,0,.22-.02.33-.01.11-.02.2-.03.28h-4.66c.02.27.1.5.23.69.13.19.3.33.51.43s.43.15.66.15c.29,0,.56-.07.81-.2s.43-.32.52-.55l1.63.46c-.16.33-.39.62-.68.87s-.64.45-1.03.59c-.4.14-.83.22-1.31.22ZM70.54,41.58h2.74c-.03-.25-.11-.47-.23-.66-.12-.19-.28-.33-.48-.44-.2-.1-.42-.15-.66-.15s-.47.05-.67.15c-.2.1-.35.25-.47.44-.12.19-.2.41-.23.66Z" style="fill: #488967;"/>
        <path d="M86.13,45.28h-1.92v-3.47c0-.4-.08-.69-.23-.88-.15-.19-.35-.28-.59-.28-.26,0-.51.1-.76.31s-.42.47-.53.79v3.54h-1.92v-3.47c0-.41-.08-.7-.23-.89-.15-.18-.35-.28-.59-.28s-.5.1-.74.3-.43.46-.54.77v3.56h-1.92v-6.23h1.73v1.06c.23-.37.55-.66.94-.86.4-.2.86-.3,1.39-.3s.92.12,1.2.36.46.52.54.85c.24-.39.56-.68.95-.89.4-.21.84-.31,1.34-.31.4,0,.72.07.97.22.25.15.44.34.56.57.13.24.22.49.26.76s.07.54.07.8v3.97Z" style="fill: #488967;"/>
        <path d="M89.8,45.4c-.54,0-1.06-.09-1.57-.26s-.94-.44-1.3-.78l.66-1.21c.38.28.76.49,1.12.64.36.14.71.22,1.03.22.25,0,.44-.04.58-.11.14-.08.2-.19.2-.35,0-.12-.04-.21-.12-.28-.08-.07-.2-.13-.37-.18s-.37-.11-.61-.18c-.48-.16-.88-.31-1.2-.46s-.56-.33-.72-.55c-.16-.22-.24-.5-.24-.85,0-.42.11-.78.32-1.09.21-.31.51-.55.91-.73.39-.17.86-.26,1.4-.26.43,0,.85.07,1.27.2.41.14.8.36,1.16.68l-.74,1.2c-.36-.25-.68-.43-.96-.54s-.55-.17-.82-.17c-.14,0-.26.02-.37.05-.11.03-.2.08-.27.16-.07.07-.1.17-.1.29s.03.21.1.28c.07.07.18.13.32.18.15.05.33.11.56.18.52.15.95.3,1.3.45.34.15.6.34.77.57.17.22.26.52.26.89,0,.63-.23,1.12-.69,1.48-.46.36-1.09.54-1.88.54Z" style="fill: #488967;"/>
        <path d="M103.35,43.1c0,.49-.13.89-.39,1.22-.26.32-.61.57-1.05.73-.44.16-.92.24-1.45.24h-4.15v-8.52h4.74c.4,0,.75.11,1.04.32.29.21.52.49.67.82.16.34.23.68.23,1.04,0,.4-.1.78-.31,1.15-.21.36-.51.64-.91.82.49.14.87.4,1.16.77.28.37.43.84.43,1.42ZM98.27,38.44v1.76h1.93c.14,0,.28-.03.4-.1s.23-.16.31-.29c.08-.13.12-.3.12-.5s-.03-.35-.1-.48c-.07-.13-.16-.23-.27-.29s-.24-.1-.38-.1h-2ZM101.34,42.7c0-.18-.04-.35-.11-.49s-.17-.25-.28-.34-.25-.13-.41-.13h-2.27v1.86h2.18c.17,0,.32-.04.45-.12.13-.08.24-.19.32-.32.08-.14.12-.29.12-.47Z" style="fill: #488967;"/>
        <path d="M104.35,38.26v-1.74h1.92v1.74h-1.92ZM104.35,45.28v-6.3h1.92v6.3h-1.92Z" style="fill: #488967;"/>
        <path d="M110.59,45.4c-.54,0-1.01-.09-1.43-.26-.42-.17-.77-.41-1.06-.71-.29-.3-.51-.64-.65-1.03-.15-.39-.22-.79-.22-1.22s.07-.84.22-1.23c.15-.39.37-.73.65-1.03.29-.3.64-.54,1.06-.71.42-.17.9-.26,1.43-.26s1.01.09,1.43.26c.42.17.77.41,1.06.71.29.3.51.64.66,1.03.15.39.23.8.23,1.23s-.08.83-.23,1.22c-.15.39-.37.73-.66,1.03-.29.3-.64.54-1.06.71s-.89.26-1.43.26ZM109.19,42.18c0,.32.06.6.19.84s.29.43.5.56c.21.13.45.2.72.2s.5-.07.71-.2c.21-.14.38-.32.5-.57s.18-.52.18-.83-.06-.6-.18-.84-.29-.43-.5-.56c-.21-.13-.45-.2-.71-.2s-.51.07-.72.2c-.21.13-.37.32-.5.56s-.19.52-.19.84Z" style="fill: #488967;"/>
        <path d="M114.89,36.52h1.92v6.53c0,.26.05.45.14.56.1.11.23.17.41.17.12,0,.24-.02.37-.05.12-.04.23-.08.33-.13l.25,1.44c-.24.11-.52.2-.83.26-.31.06-.6.1-.88.1-.54,0-.97-.15-1.27-.44s-.45-.71-.45-1.24v-7.2Z" style="fill: #488967;"/>
        <path d="M121.93,45.4c-.54,0-1.01-.09-1.43-.26-.42-.17-.77-.41-1.06-.71-.29-.3-.51-.64-.65-1.03-.15-.39-.22-.79-.22-1.22s.07-.84.22-1.23c.15-.39.37-.73.65-1.03.29-.3.64-.54,1.06-.71.42-.17.9-.26,1.43-.26s1.01.09,1.43.26c.42.17.77.41,1.06.71.29.3.51.64.66,1.03.15.39.23.8.23,1.23s-.08.83-.23,1.22c-.15.39-.37.73-.66,1.03-.29.3-.64.54-1.06.71s-.89.26-1.43.26ZM120.53,42.18c0,.32.06.6.19.84s.29.43.5.56c.21.13.45.2.72.2s.5-.07.71-.2c.21-.14.38-.32.5-.57s.18-.52.18-.83-.06-.6-.18-.84-.29-.43-.5-.56c-.21-.13-.45-.2-.71-.2s-.51.07-.72.2c-.21.13-.37.32-.5.56s-.19.52-.19.84Z" style="fill: #488967;"/>
        <path d="M128.7,45.4c-.42,0-.8-.08-1.14-.25s-.64-.39-.88-.68-.43-.63-.57-1.01c-.14-.38-.2-.8-.2-1.24,0-.46.07-.89.22-1.28.14-.39.35-.74.61-1.04.26-.3.57-.53.92-.7.36-.16.75-.25,1.18-.25.47,0,.89.1,1.25.29.36.2.65.47.86.83v-1.03h1.67v5.82c0,.64-.15,1.18-.46,1.64-.31.46-.74.81-1.28,1.06-.55.25-1.18.38-1.9.38-.67,0-1.25-.11-1.73-.33-.48-.22-.91-.53-1.27-.93l1.03-1.04c.23.26.52.47.86.63.34.16.71.23,1.1.23.31,0,.6-.05.86-.15.26-.1.47-.27.63-.5s.23-.54.23-.92v-.61c-.19.34-.47.61-.83.79-.36.18-.75.28-1.16.28ZM129.36,43.88c.15,0,.29-.02.43-.07.13-.04.25-.1.37-.18.11-.08.22-.17.31-.28.1-.11.17-.23.23-.35v-1.32c-.08-.22-.2-.42-.35-.58-.15-.16-.32-.29-.5-.38-.18-.09-.38-.13-.58-.13s-.39.04-.56.13-.33.21-.45.38c-.12.16-.22.35-.29.55-.07.2-.1.41-.1.62,0,.23.04.44.11.64s.18.36.32.51c.14.15.3.26.48.34.18.08.38.12.59.12Z" style="fill: #488967;"/>
        <path d="M133.98,46.23c.16.05.31.09.45.11.14.03.27.04.38.04.15,0,.28-.03.39-.1.11-.07.2-.18.28-.34.08-.16.15-.37.22-.64l-2.4-6.25h1.98l1.46,4.3,1.25-4.3h1.81l-2.4,7.26c-.11.34-.28.64-.52.9-.23.26-.51.47-.84.61-.33.15-.69.22-1.08.22-.17,0-.33-.01-.49-.04-.16-.03-.32-.07-.49-.14v-1.64Z" style="fill: #488967;"/>
        <path d="M51.48,59.68v-5.08l-1.84,3.7h-1.08l-1.84-3.7v5.08h-1.97v-8.52h2.14l2.21,4.45,2.22-4.45h2.12v8.52h-1.97Z" style="fill: #488967;"/>
        <path d="M57.82,59.8c-.54,0-1.01-.09-1.43-.26-.42-.17-.77-.41-1.06-.71-.29-.3-.51-.64-.65-1.03-.15-.39-.22-.79-.22-1.22s.07-.84.22-1.23c.15-.39.37-.73.65-1.03.29-.3.64-.54,1.06-.71.42-.17.9-.26,1.43-.26s1.01.09,1.43.26.77.41,1.06.71c.29.3.51.64.66,1.03.15.39.23.8.23,1.23s-.08.83-.23,1.22c-.15.39-.37.73-.66,1.03-.29.3-.64.54-1.06.71-.42.17-.89.26-1.43.26ZM56.41,56.59c0,.32.06.6.19.84.12.24.29.43.5.56.21.13.45.2.72.2s.5-.07.71-.2c.21-.14.38-.33.5-.57.12-.24.18-.52.18-.83s-.06-.6-.18-.84c-.12-.24-.29-.43-.5-.56-.21-.13-.45-.2-.71-.2s-.51.07-.72.2c-.21.13-.37.32-.5.56-.12.24-.19.52-.19.84Z" style="fill: #488967;"/>
        <path d="M61.78,56.57c0-.61.12-1.15.36-1.64.24-.49.57-.87.98-1.15.42-.28.9-.43,1.44-.43.44,0,.84.11,1.2.32.36.21.63.49.82.83v-3.59h1.92v6.62c0,.19.03.33.1.4.06.08.17.12.31.14v1.6c-.34.06-.61.1-.82.1-.33,0-.59-.07-.8-.22-.2-.14-.33-.34-.38-.6l-.04-.32c-.22.39-.53.68-.91.88-.38.19-.79.29-1.21.29s-.83-.08-1.19-.24-.68-.39-.95-.68c-.27-.29-.47-.63-.62-1.03-.14-.39-.22-.82-.22-1.28ZM66.59,57.33v-1.28c-.08-.21-.19-.39-.34-.55-.15-.16-.32-.28-.5-.37-.19-.09-.38-.14-.57-.14-.21,0-.4.04-.57.13s-.32.2-.45.36-.23.32-.29.52-.1.4-.1.62.04.43.11.62c.08.19.18.36.32.5s.3.25.48.33c.18.08.38.12.6.12.14,0,.27-.02.4-.06.13-.04.25-.1.37-.17.12-.07.22-.16.32-.27.1-.11.18-.22.24-.35Z" style="fill: #488967;"/>
        <path d="M73,59.8c-.54,0-1.01-.08-1.43-.25s-.77-.4-1.06-.69c-.29-.29-.51-.63-.67-1.01-.15-.38-.23-.79-.23-1.2,0-.6.13-1.14.4-1.63.27-.49.65-.89,1.16-1.19s1.11-.45,1.82-.45,1.32.15,1.82.45c.5.3.88.69,1.15,1.18.26.48.4,1.01.4,1.58,0,.11,0,.22-.02.33-.01.11-.02.2-.03.28h-4.66c.02.27.1.5.23.69.13.19.3.33.51.43.21.1.43.15.66.15.29,0,.56-.07.81-.2.25-.14.43-.32.52-.55l1.63.46c-.16.33-.39.62-.68.87s-.64.45-1.03.59c-.4.14-.83.22-1.31.22ZM71.61,55.99h2.74c-.03-.25-.11-.47-.23-.66-.12-.19-.28-.33-.48-.43-.2-.1-.42-.15-.66-.15s-.47.05-.67.15c-.2.1-.35.25-.47.43-.12.19-.2.41-.23.66Z" style="fill: #488967;"/>
        <path d="M77.21,50.92h1.92v6.53c0,.26.05.45.14.56.1.11.23.17.41.17.12,0,.24-.02.37-.05s.23-.08.33-.13l.25,1.44c-.24.11-.52.2-.83.26-.31.06-.6.1-.88.1-.54,0-.97-.15-1.27-.44-.3-.29-.45-.71-.45-1.24v-7.2Z" style="fill: #488967;"/>
        <path d="M83.66,59.8c-.54,0-1.06-.09-1.57-.26s-.94-.44-1.3-.78l.66-1.21c.38.28.76.49,1.12.64.36.14.71.22,1.03.22.25,0,.44-.04.58-.11.14-.08.2-.19.2-.35,0-.12-.04-.21-.12-.28-.08-.07-.2-.13-.37-.18-.16-.06-.37-.11-.61-.18-.48-.16-.88-.31-1.2-.46-.32-.15-.56-.33-.72-.55-.16-.22-.24-.5-.24-.85,0-.42.11-.78.32-1.09.21-.31.51-.55.91-.73.39-.17.86-.26,1.4-.26.43,0,.85.07,1.27.2.41.14.8.36,1.16.68l-.74,1.2c-.36-.25-.68-.43-.96-.54-.28-.11-.55-.17-.82-.17-.14,0-.26.02-.37.05-.11.03-.2.08-.27.16-.07.07-.1.17-.1.29s.03.21.1.28c.07.07.18.13.32.18.15.05.33.11.56.18.52.15.95.3,1.3.45.34.15.6.34.77.57.17.22.26.52.26.89,0,.63-.23,1.12-.69,1.48-.46.36-1.09.54-1.88.54Z" style="fill: #488967;"/>
        <path d="M95.62,59.68l-3.91-4.17c-.34-.36-.6-.66-.8-.91s-.34-.49-.43-.71c-.08-.22-.13-.45-.13-.71,0-.43.1-.8.31-1.11.21-.31.49-.55.86-.72s.77-.25,1.23-.25c.41,0,.79.07,1.15.21.36.14.66.35.89.63.23.28.35.65.35,1.09,0,.38-.09.72-.27,1.04-.18.31-.42.6-.73.86-.31.26-.65.51-1.04.74-.28.17-.53.32-.75.48-.22.15-.39.31-.52.48s-.19.34-.19.54c0,.17.05.33.15.5.1.17.25.31.44.42.2.11.43.17.7.17.3,0,.61-.08.91-.23s.58-.38.83-.68.45-.66.6-1.08c.15-.42.22-.9.22-1.44h1.55c0,.81-.12,1.52-.37,2.14-.25.62-.58,1.13-.99,1.55s-.87.73-1.39.94-1.04.31-1.57.31c-.62,0-1.14-.12-1.58-.37-.44-.25-.77-.57-1-.96-.23-.39-.34-.81-.34-1.25s.1-.84.31-1.18c.21-.33.47-.63.79-.88.32-.25.63-.47.94-.66.34-.22.63-.4.85-.54.22-.14.39-.27.5-.39.11-.12.17-.27.17-.43s-.06-.31-.17-.41c-.12-.1-.27-.15-.45-.15-.13,0-.24.03-.35.09-.1.06-.18.13-.23.22-.05.09-.08.19-.08.31,0,.11.03.21.1.31.07.1.18.22.35.38.16.16.39.39.68.69l4.92,5.17h-2.52Z" style="fill: #488967;"/>
        <path d="M51.48,74.08v-5.08l-1.84,3.7h-1.08l-1.84-3.7v5.08h-1.97v-8.52h2.14l2.21,4.45,2.22-4.45h2.12v8.52h-1.97Z" style="fill: #488967;"/>
        <path d="M57.83,74.2c-.54,0-1.01-.09-1.43-.25-.42-.17-.77-.4-1.06-.69-.29-.29-.51-.63-.67-1.01-.15-.38-.23-.79-.23-1.2,0-.6.13-1.14.4-1.63.27-.49.65-.89,1.16-1.19.5-.3,1.11-.45,1.82-.45s1.32.15,1.82.45c.5.3.88.69,1.15,1.17.26.48.4,1.01.4,1.58,0,.11,0,.22-.02.33-.01.11-.02.2-.03.28h-4.66c.02.27.1.5.23.69.13.19.3.33.51.43.21.1.43.15.66.15.29,0,.56-.07.81-.2.25-.14.43-.32.52-.55l1.63.46c-.16.33-.39.62-.68.87s-.64.45-1.03.59c-.4.14-.83.22-1.31.22ZM56.44,70.39h2.74c-.03-.25-.11-.47-.23-.66-.12-.19-.28-.33-.48-.44-.2-.1-.42-.15-.66-.15s-.47.05-.67.15c-.2.1-.35.25-.47.44-.12.19-.2.41-.23.66Z" style="fill: #488967;"/>
        <path d="M66.07,73.75c-.18.07-.37.14-.58.22s-.43.13-.67.17c-.23.04-.46.07-.68.07-.32,0-.61-.05-.88-.16-.27-.11-.48-.28-.64-.53-.16-.24-.23-.57-.23-.97v-3.24h-.8v-1.45h.8v-2h1.92v2h1.28v1.45h-1.28v2.57c0,.2.05.35.16.44.1.09.24.13.4.13.14,0,.28-.02.44-.07s.29-.1.4-.16l.37,1.52Z" style="fill: #488967;"/>
        <path d="M66.42,72.23c0-.41.12-.77.35-1.08.23-.31.55-.55.96-.73s.88-.27,1.4-.27c.26,0,.51.02.76.07.25.04.46.11.65.19v-.28c0-.33-.1-.59-.31-.77-.21-.18-.52-.27-.95-.27-.35,0-.68.06-.99.18-.31.12-.63.29-.98.52l-.58-1.22c.42-.27.85-.48,1.3-.61s.93-.2,1.43-.2c.94,0,1.68.22,2.2.66.52.44.79,1.08.79,1.92v1.61c0,.19.03.32.09.39.06.07.17.12.32.13v1.6c-.16.03-.31.06-.45.07-.14.02-.26.02-.37.02-.36,0-.63-.07-.82-.22-.19-.14-.31-.34-.35-.59l-.04-.28c-.28.36-.61.63-1,.82-.39.19-.79.28-1.22.28s-.79-.09-1.12-.26c-.33-.17-.59-.41-.79-.71-.19-.3-.29-.63-.29-1.01ZM70.24,72.45c.09-.07.16-.15.22-.23s.08-.17.08-.24v-.54c-.16-.06-.34-.11-.53-.14-.2-.04-.38-.05-.55-.05-.35,0-.64.08-.88.23s-.35.35-.35.6c0,.14.04.27.12.38.08.12.19.21.33.28.14.07.31.1.5.1s.38-.04.58-.1c.19-.07.35-.16.48-.27Z" style="fill: #488967;"/>
        <path d="M77.63,74.2c-.48,0-.9-.1-1.26-.31-.36-.2-.64-.49-.85-.86v1.04h-1.67v-8.76h1.92v3.59c.21-.37.49-.65.83-.85.35-.2.76-.3,1.23-.3.4,0,.77.08,1.1.25.33.17.62.4.86.7.24.29.43.64.57,1.03.14.39.2.81.2,1.27s-.07.87-.22,1.25c-.15.39-.35.73-.62,1.02-.26.29-.57.52-.93.68-.36.16-.75.24-1.17.24ZM77.09,72.58c.22,0,.42-.04.61-.12.19-.08.35-.19.49-.33.14-.14.24-.3.31-.5.07-.19.11-.4.11-.62,0-.29-.06-.55-.18-.8-.12-.25-.29-.45-.5-.59-.21-.15-.46-.22-.74-.22-.2,0-.39.05-.58.14-.18.09-.35.22-.49.38-.14.16-.26.34-.35.54v1.28c.06.13.14.25.24.36.1.1.2.19.32.26.12.07.24.13.37.17.13.04.26.06.39.06Z" style="fill: #488967;"/>
        <path d="M84.53,74.2c-.54,0-1.01-.09-1.43-.26-.42-.17-.77-.41-1.06-.71s-.51-.64-.65-1.03c-.15-.39-.22-.79-.22-1.22s.07-.84.22-1.23c.15-.39.37-.73.65-1.03s.64-.54,1.06-.71c.42-.17.9-.26,1.43-.26s1.01.09,1.43.26c.42.17.77.41,1.06.71.29.3.51.64.66,1.03.15.39.23.8.23,1.23s-.08.83-.23,1.22c-.15.39-.37.73-.66,1.03-.29.3-.64.54-1.06.71-.42.17-.89.26-1.43.26ZM83.12,70.98c0,.32.06.6.19.84.12.24.29.43.5.56.21.13.45.2.72.2s.5-.07.71-.2.38-.32.5-.57c.12-.24.18-.52.18-.83s-.06-.6-.18-.84c-.12-.24-.29-.43-.5-.56s-.45-.2-.71-.2-.51.07-.72.2c-.21.13-.37.32-.5.56-.12.24-.19.52-.19.84Z" style="fill: #488967;"/>
        <path d="M88.82,65.32h1.92v6.53c0,.26.05.45.14.57.1.11.23.17.41.17.12,0,.24-.02.37-.05.12-.04.23-.08.33-.13l.25,1.44c-.24.11-.52.2-.83.26-.31.06-.6.1-.88.1-.54,0-.97-.15-1.27-.44-.3-.29-.45-.71-.45-1.24v-7.2Z" style="fill: #488967;"/>
        <path d="M92.87,67.06v-1.74h1.92v1.74h-1.92ZM92.87,74.08v-6.3h1.92v6.3h-1.92Z" style="fill: #488967;"/>
        <path d="M98.52,74.2c-.54,0-1.06-.09-1.57-.26s-.94-.44-1.3-.78l.66-1.21c.38.28.76.49,1.12.64.36.14.71.22,1.03.22.25,0,.44-.04.58-.11s.2-.19.2-.35c0-.12-.04-.21-.12-.28s-.2-.13-.37-.18c-.16-.05-.37-.11-.61-.18-.48-.16-.88-.31-1.2-.46-.32-.15-.56-.33-.72-.55-.16-.22-.24-.5-.24-.85,0-.42.11-.78.32-1.09.21-.31.51-.55.91-.73.39-.17.86-.26,1.4-.26.43,0,.85.07,1.27.2s.8.36,1.16.68l-.74,1.2c-.36-.25-.68-.43-.96-.54-.28-.11-.55-.17-.82-.17-.14,0-.26.02-.37.05-.11.03-.2.08-.27.16-.07.08-.1.17-.1.29s.03.21.1.28c.07.07.18.13.32.18s.33.11.56.18c.52.15.95.3,1.3.45.34.15.6.34.77.57s.26.52.26.89c0,.63-.23,1.12-.69,1.48s-1.09.54-1.88.54Z" style="fill: #488967;"/>
        <path d="M112.03,74.08h-1.92v-3.47c0-.4-.08-.69-.23-.88-.15-.19-.35-.28-.59-.28-.26,0-.51.1-.76.31-.25.2-.42.47-.53.79v3.54h-1.92v-3.47c0-.41-.08-.7-.23-.89-.15-.18-.35-.28-.59-.28s-.5.1-.74.3-.43.46-.54.77v3.56h-1.92v-6.23h1.73v1.06c.23-.37.55-.66.94-.86.4-.2.86-.3,1.39-.3s.92.12,1.2.36.46.52.54.85c.24-.39.56-.68.95-.89.4-.21.84-.31,1.34-.31.4,0,.72.07.97.22s.44.34.56.57.22.49.26.76c.05.27.07.54.07.8v3.97Z" style="fill: #488967;"/>
      </g>
      <g>
        <polyline points="27.54 13.41 14.23 26.97 14.23 49.47" style="fill: none; stroke: #fff; stroke-miterlimit: 10; stroke-width: 2px;"/>
        <polygon points="10.74 48.45 14.23 54.49 17.72 48.45 10.74 48.45" style="fill: #fff;"/>
      </g>
      <g>
        <polyline points="30.63 40.48 43.94 26.91 43.94 17.65" style="fill: none; stroke: #fff; stroke-miterlimit: 10; stroke-width: 2px;"/>
        <polygon points="47.43 18.68 43.94 12.63 40.45 18.68 47.43 18.68" style="fill: #fff;"/>
      </g>
    </g>
  </g>
</svg>