<?xml version="1.0" encoding="UTF-8"?>
<svg id="Layer_1" data-name="Layer 1" xmlns="http://www.w3.org/2000/svg" width="126.7" height="132.2" viewBox="0 0 126.7 132.2">
  <polygon points="59.8 34.59 42.31 34.59 33.57 49.74 42.31 64.88 59.8 64.88 68.55 49.74 59.8 34.59" style="fill: #459396; stroke: #284b63; stroke-miterlimit: 10; stroke-width: 4.7px;"/>
  <line x1="66.42" y1="23.14" x2="59.8" y2="34.59" style="fill: #3c6e71; stroke: #284b63; stroke-miterlimit: 10; stroke-width: 3.52px;"/>
  <line x1="81.78" y1="49.74" x2="68.55" y2="49.74" style="fill: #3c6e71; stroke: #284b63; stroke-miterlimit: 10; stroke-width: 3.52px;"/>
  <line x1="42.56" y1="64.88" x2="35.94" y2="76.34" style="fill: #3c6e71; stroke: #284b63; stroke-miterlimit: 10; stroke-width: 3.52px;"/>
  <line x1="35.94" y1="23.14" x2="42.56" y2="34.59" style="fill: #3c6e71; stroke: #284b63; stroke-miterlimit: 10; stroke-width: 3.52px;"/>
  <circle cx="35.94" cy="23.14" r="4.7" style="fill: #284b63;"/>
  <circle cx="66.42" cy="23.14" r="4.7" style="fill: #284b63;"/>
  <circle cx="81.78" cy="49.74" r="4.7" style="fill: #284b63;"/>
  <circle cx="35.94" cy="76.34" r="4.7" style="fill: #284b63;"/>
  <g>
    <path d="M15.64,22.65C23.79,12.01,36.62,5.15,51.06,5.15c5.77,0,11.29,1.1,16.36,3.1" style="fill: none; stroke: #284b63; stroke-linecap: round; stroke-miterlimit: 10; stroke-width: 4.5px;"/>
    <polygon points="59.56 12.13 65.28 7.4 65.86 0 77.09 13.53 59.56 12.13" style="fill: #284b63;"/>
  </g>
  <g>
    <path d="M31.25,89.69c-14.68-7.29-24.78-22.45-24.78-39.96,0-4.06.54-7.99,1.56-11.72" style="fill: none; stroke: #284b63; stroke-linecap: round; stroke-miterlimit: 10; stroke-width: 4.5px;"/>
    <polygon points="12.75 45.4 7.42 40.23 0 40.47 12.22 27.83 12.75 45.4" style="fill: #284b63;"/>
  </g>
  <g>
    <path d="M80.18,15.97c9.47,8.18,15.47,20.27,15.47,33.77,0,24.62-19.96,44.59-44.59,44.59-1.47,0-2.93-.07-4.37-.21" style="fill: none; stroke: #284b63; stroke-dasharray: 9 7.2; stroke-linecap: round; stroke-miterlimit: 10; stroke-width: 4.5px;"/>
    <polygon points="53.18 88.2 48.98 94.33 50.47 101.6 35.94 91.7 53.18 88.2" style="fill: #284b63;"/>
  </g>
  <path d="M75.16,113.42c3.96-1.75,9.79-4.97,14.83-10.86,3.91-4.56,6.02-9.19,9.2-16.28,5.59-12.47,6.24-18.5,8.74-18.54,2.42-.04,2.59,6.89,9.05,15.38,2.2,2.89,4.34,4.95,5.73,6.18" style="fill: none; stroke: #bb5432; stroke-linecap: round; stroke-miterlimit: 10; stroke-width: 4.7px;"/>
  <path d="M120,66.85c-1.55,6.09-6.32,21.32-20.66,33.6-9.09,7.79-18.42,11.31-24.18,12.97" style="fill: none; stroke: #459396; stroke-linecap: round; stroke-miterlimit: 10; stroke-width: 4.7px;"/>
  <polyline points="124.35 116.04 75.16 116.04 75.16 66.85" style="fill: none; stroke: #284b63; stroke-linecap: round; stroke-miterlimit: 10; stroke-width: 4.7px;"/>
  <polyline points="61.93 116.04 75.16 116.04 75.16 129.26" style="fill: none; stroke: #284b63; stroke-linecap: round; stroke-miterlimit: 10; stroke-width: 5.87px;"/>
</svg>