<?xml version="1.0" encoding="UTF-8"?>
<svg id="Layer_2" data-name="Layer 2" xmlns="http://www.w3.org/2000/svg" width="102.05" height="40.82" viewBox="0 0 102.05 40.82">
  <g id="Layer_1-2" data-name="Layer 1">
    <g>
      <g>
        <path d="M17.83,9.39v26.32h-8.22V9.39H0V2.55h27.45v6.84h-9.61Z" style="fill: #fff;"/>
        <path d="M58.76,28.66c-.69,1.64-1.67,3.04-2.96,4.22-1.28,1.17-2.83,2.08-4.64,2.74-1.81.66-3.82.98-6.03.98s-4.26-.33-6.06-.98c-1.79-.66-3.32-1.57-4.57-2.74-1.25-1.17-2.21-2.58-2.88-4.22-.67-1.64-1.01-3.46-1.01-5.46V2.55h8.17v20c0,.91.12,1.76.36,2.58.24.81.61,1.54,1.11,2.18.5.64,1.15,1.15,1.97,1.52s1.8.56,2.96.56,2.14-.19,2.96-.56,1.48-.88,1.99-1.52c.51-.64.88-1.37,1.11-2.18.22-.81.34-1.67.34-2.58V2.55h8.22v20.66c0,2-.34,3.82-1.03,5.46Z" style="fill: #fff;"/>
      </g>
      <polygon points="64.88 40.82 81.54 0 75.59 0 58.92 40.82 64.88 40.82" style="fill: #fff;"/>
      <path d="M89.64,11.77c-6.86,0-12.42,5.56-12.42,12.42s5.56,12.42,12.42,12.42c4.4,0,8.9-1.93,11.32-5.39l-5.63-2.3c-1.5,1.66-3.55,2.32-5.69,2.32-3.16,0-5.83-2.08-6.72-4.94h18.96c.12-.68.18-1.39.18-2.11,0-6.86-5.56-12.42-12.42-12.42ZM89.64,17.14c2.94,0,5.46,1.81,6.52,4.37h-13.03c1.05-2.56,3.57-4.37,6.52-4.37Z" style="fill: #fff;"/>
    </g>
  </g>
</svg>