<?xml version="1.0" encoding="UTF-8"?>
<svg id="Layer_2" data-name="Layer 2" xmlns="http://www.w3.org/2000/svg" width="577.75" height="183.49" viewBox="0 0 577.75 183.49">
  <g id="Layer_1-2" data-name="Layer 1">
    <g>
      <rect x="99.79" y="92.18" width="18.26" height="18.26" style="fill: none; stroke: #231f20; stroke-miterlimit: 10; stroke-width: 1.2px;"/>
      <polygon points="69.29 96.64 58.95 96.64 53.78 105.59 58.95 114.55 69.29 114.55 74.46 105.59 69.29 96.64" style="fill: none; stroke: #231f20; stroke-miterlimit: 10; stroke-width: 1.2px;"/>
      <polygon points="92.98 128.67 81.98 147.72 103.99 147.72 92.98 128.67" style="fill: none; stroke: #231f20; stroke-miterlimit: 10; stroke-width: 1.2px;"/>
      <circle cx="89.92" cy="116.88" r="46.18" style="fill: none; stroke: #231f20; stroke-dasharray: 9.61 9.61; stroke-miterlimit: 10; stroke-width: 3.6px;"/>
      <g>
        <line x1="16.18" y1="43.14" x2="41.44" y2="68.39" style="fill: none; stroke: #231f20; stroke-miterlimit: 10; stroke-width: 2.4px;"/>
        <polygon points="32.68 73.18 51.18 78.14 46.23 59.63 32.68 73.18" style="fill: #231f20;"/>
      </g>
      <g>
        <line x1="71.64" y1="116.88" x2="83.22" y2="128.45" style="fill: none; stroke: #231f20; stroke-miterlimit: 10; stroke-width: .9px;"/>
        <polygon points="79.11 130.7 87.78 133.02 85.46 124.35 79.11 130.7" style="fill: #231f20;"/>
      </g>
      <g>
        <line x1="96.03" y1="102.51" x2="84.68" y2="102.51" style="fill: none; stroke: #231f20; stroke-miterlimit: 10; stroke-width: .9px;"/>
        <polygon points="86 98.02 78.22 102.51 86 107 86 98.02" style="fill: #231f20;"/>
      </g>
      <g>
        <line x1="97.7" y1="128.67" x2="103.8" y2="115.42" style="fill: none; stroke: #231f20; stroke-miterlimit: 10; stroke-width: .9px;"/>
        <rect x="103.35" y="112.5" width=".9" height="5.85" transform="translate(-44.46 161.43) rotate(-65.27)" style="fill: #231f20;"/>
      </g>
      <g>
        <line x1="154.97" y1="49.69" x2="128.58" y2="76.08" style="fill: none; stroke: #231f20; stroke-miterlimit: 10; stroke-width: 2.4px;"/>
        <polygon points="146.22 44.9 164.72 39.94 159.77 58.44 146.22 44.9" style="fill: #231f20;"/>
      </g>
    </g>
    <g>
      <rect x="279.54" y="62.91" width="24.98" height="24.98" style="fill: none; stroke: #231f20; stroke-miterlimit: 10; stroke-width: 1.64px;"/>
      <polygon points="237.81 69.01 223.66 69.01 216.59 81.26 223.66 93.52 237.81 93.52 244.89 81.26 237.81 69.01" style="fill: none; stroke: #231f20; stroke-miterlimit: 10; stroke-width: 1.64px;"/>
      <polygon points="270.23 112.84 255.17 138.92 285.29 138.92 270.23 112.84" style="fill: none; stroke: #231f20; stroke-miterlimit: 10; stroke-width: 1.64px;"/>
      <polygon points="338.88 138.92 353.93 112.84 323.82 112.84 338.88 138.92" style="fill: none; stroke: #231f20; stroke-miterlimit: 10; stroke-width: 1.64px;"/>
      <g>
        <line x1="241.02" y1="96.71" x2="256.86" y2="112.55" style="fill: none; stroke: #231f20; stroke-miterlimit: 10; stroke-width: 1.23px;"/>
        <polygon points="251.25 115.62 263.12 118.8 259.94 106.93 251.25 115.62" style="fill: #231f20;"/>
      </g>
      <g>
        <line x1="286.3" y1="125.88" x2="308.71" y2="125.88" style="fill: none; stroke: #231f20; stroke-miterlimit: 10; stroke-width: 1.23px;"/>
        <polygon points="306.91 132.02 317.55 125.88 306.91 119.73 306.91 132.02" style="fill: #231f20;"/>
      </g>
      <g>
        <line x1="345.96" y1="107.76" x2="345.96" y2="91.97" style="fill: none; stroke: #231f20; stroke-miterlimit: 10; stroke-width: 1.23px;"/>
        <polygon points="352.1 93.77 345.96 83.13 339.81 93.77 352.1 93.77" style="fill: #231f20;"/>
      </g>
      <g>
        <line x1="276.69" y1="112.84" x2="285.03" y2="94.72" style="fill: none; stroke: #231f20; stroke-miterlimit: 10; stroke-width: 1.23px;"/>
        <rect x="284.42" y="90.71" width="1.23" height="8.01" transform="translate(79.78 314.01) rotate(-65.28)" style="fill: #231f20;"/>
      </g>
      <g>
        <line x1="326.81" y1="69.36" x2="311.77" y2="71.64" style="fill: none; stroke: #231f20; stroke-miterlimit: 10; stroke-width: 1.23px;"/>
        <rect x="311.15" y="67.64" width="1.23" height="8.01" transform="translate(-7.23 47.66) rotate(-8.64)" style="fill: #231f20;"/>
      </g>
      <circle cx="345.96" cy="62.83" r="15.21" style="fill: none; stroke: #231f20; stroke-miterlimit: 10; stroke-width: 1.64px;"/>
      <path d="M346.15,29.32c-10.88,13.68-25.8,35.78-36.07,66.13-11.54,34.12-12.2,63.9-11.19,82.23" style="fill: none; stroke: #231f20; stroke-dasharray: 6.57 6.57; stroke-miterlimit: 10; stroke-width: 3.29px;"/>
    </g>
    <g>
      <rect x="445.98" y="134.73" width="12.46" height="12.42" style="fill: none; stroke: #231f20; stroke-miterlimit: 10; stroke-width: .82px;"/>
      <rect x="441.02" y="63.17" width="12.46" height="12.42" style="fill: none; stroke: #231f20; stroke-miterlimit: 10; stroke-width: .82px;"/>
      <rect x="464.36" y="63.17" width="12.46" height="12.42" style="fill: none; stroke: #231f20; stroke-miterlimit: 10; stroke-width: .82px;"/>
      <polygon points="425.17 137.76 418.11 137.76 414.58 143.85 418.11 149.94 425.17 149.94 428.7 143.85 425.17 137.76" style="fill: none; stroke: #231f20; stroke-miterlimit: 10; stroke-width: .82px;"/>
      <polygon points="441.34 159.54 433.83 172.5 448.85 172.5 441.34 159.54" style="fill: none; stroke: #231f20; stroke-miterlimit: 10; stroke-width: .82px;"/>
      <ellipse cx="439.25" cy="151.52" rx="31.52" ry="31.41" style="fill: none; stroke: #231f20; stroke-dasharray: 4.48 4.48; stroke-miterlimit: 10; stroke-width: 1.12px;"/>
      <g>
        <line x1="426.77" y1="151.52" x2="434.67" y2="159.4" style="fill: none; stroke: #231f20; stroke-miterlimit: 10; stroke-width: .61px;"/>
        <polygon points="431.88 160.93 437.79 162.51 436.2 156.6 431.88 160.93" style="fill: #231f20;"/>
      </g>
      <g>
        <line x1="443.42" y1="141.75" x2="435.66" y2="141.75" style="fill: none; stroke: #231f20; stroke-miterlimit: 10; stroke-width: .61px;"/>
        <polygon points="436.56 138.69 431.26 141.75 436.56 144.81 436.56 138.69" style="fill: #231f20;"/>
      </g>
      <g>
        <line x1="460.02" y1="69.38" x2="456.87" y2="69.38" style="fill: none; stroke: #231f20; stroke-miterlimit: 10; stroke-width: .61px;"/>
        <polygon points="459.52 67.69 462.44 69.38 459.52 71.06 459.52 67.69" style="fill: #231f20;"/>
        <polygon points="457.36 67.69 454.45 69.38 457.36 71.06 457.36 67.69" style="fill: #231f20;"/>
      </g>
      <g>
        <line x1="444.56" y1="159.54" x2="448.72" y2="150.53" style="fill: none; stroke: #231f20; stroke-miterlimit: 10; stroke-width: .61px;"/>
        <rect x="448.41" y="148.54" width=".61" height="3.99" transform="translate(123.85 494.73) rotate(-65.2)" style="fill: #231f20;"/>
      </g>
      <polygon points="533.55 103.01 526.49 103.01 522.96 109.1 526.49 115.19 533.55 115.19 537.08 109.1 533.55 103.01" style="fill: none; stroke: #231f20; stroke-miterlimit: 10; stroke-width: .82px;"/>
      <polygon points="549.72 124.79 542.21 137.76 557.23 137.76 549.72 124.79" style="fill: none; stroke: #231f20; stroke-miterlimit: 10; stroke-width: .82px;"/>
      <polygon points="559.27 112.63 566.78 99.66 551.76 99.66 559.27 112.63" style="fill: none; stroke: #231f20; stroke-miterlimit: 10; stroke-width: .82px;"/>
      <g>
        <line x1="543.83" y1="125.34" x2="538.36" y2="119.88" style="fill: none; stroke: #231f20; stroke-miterlimit: 10; stroke-width: .61px;"/>
        <polygon points="541.15 118.35 535.24 116.78 536.83 122.68 541.15 118.35" style="fill: #231f20;"/>
      </g>
      <g>
        <line x1="539.92" y1="107.52" x2="547.47" y2="105.77" style="fill: none; stroke: #231f20; stroke-miterlimit: 10; stroke-width: .61px;"/>
        <polygon points="547.29 108.95 551.76 104.77 545.91 102.99 547.29 108.95" style="fill: #231f20;"/>
      </g>
      <g>
        <line x1="552.94" y1="124.79" x2="557.1" y2="115.79" style="fill: none; stroke: #231f20; stroke-miterlimit: 10; stroke-width: .61px;"/>
        <rect x="556.79" y="113.79" width=".61" height="3.99" transform="translate(218.3 572.93) rotate(-65.2)" style="fill: #231f20;"/>
      </g>
      <rect x="517.67" y="88.7" width="56.35" height="56.15" style="fill: none; stroke: #231f20; stroke-dasharray: 4.48 4.48; stroke-miterlimit: 10; stroke-width: 1.12px;"/>
      <polygon points="458.44 27.32 426.72 82.07 490.16 82.07 458.44 27.32" style="fill: none; stroke: #231f20; stroke-dasharray: 4.48 4.48; stroke-miterlimit: 10; stroke-width: 1.12px;"/>
      <g>
        <line x1="476.97" y1="131.36" x2="493.35" y2="123.83" style="fill: none; stroke: #231f20; stroke-miterlimit: 10; stroke-width: .99px;"/>
        <polygon points="494.1 128.92 499.81 120.86 489.98 119.95 494.1 128.92" style="fill: #231f20;"/>
      </g>
      <g>
        <line x1="451.84" y1="113.51" x2="454.19" y2="95.71" style="fill: none; stroke: #231f20; stroke-miterlimit: 10; stroke-width: .99px;"/>
        <polygon points="458.9 97.79 455.13 88.67 449.11 96.5 458.9 97.79" style="fill: #231f20;"/>
      </g>
    </g>
    <g>
      <rect width="180.9" height="24.21" style="fill: none;"/>
      <path d="M47.38,18.53v-.4l1.31-.52V7.38l-1.31-.52v-.4h4.09v12.06h-4.09ZM57.85,9.97l-.52.13-1.95-2.94.75.42h-6.09v-1.11h5.71l1.11-.59h.27l.73,4.09ZM55.38,9.84v4.72h-.88l-.2-1.81h-4.27v-1.1h4.27l.2-1.81h.88ZM55.69,17.83l2.08-3.19.46.12-.76,4.42h-.31l-1.21-.66h-5.93v-1.11h6.22l-.56.41Z" style="fill: #231f20;"/>
      <path d="M62.66,12.33v5.43l.85.41v.36h-4.45v-.36l1.1-.48v-4.99c-.14-.19-.3-.35-.48-.47s-.42-.24-.7-.36v-.32l2.91-1.04h.3l.47,1.82ZM67.63,13.13v4.63l.85.41v.36h-4.2v-.36l.86-.41v-4.4c0-.26-.05-.47-.14-.63-.09-.16-.23-.28-.41-.35-.18-.08-.4-.11-.66-.11-.32,0-.62.05-.9.14-.28.09-.5.22-.66.37l-.35-.37c.36-.4.69-.72.98-.97.29-.25.57-.44.83-.58.26-.13.52-.23.77-.28.25-.05.51-.08.78-.08.52,0,.95.1,1.27.31s.57.51.72.9c.16.39.23.86.23,1.4ZM72.61,13.31v4.38l1.12.48v.36h-4.46v-.36l.85-.41v-4.4c0-.26-.05-.47-.14-.63-.09-.16-.23-.27-.41-.35-.18-.08-.4-.11-.66-.11-.32,0-.62.05-.9.14-.28.09-.5.22-.66.37l-.35-.37c.36-.4.69-.72.98-.97s.57-.44.83-.58c.26-.13.52-.23.77-.28s.51-.08.78-.08c.77,0,1.33.24,1.69.71s.54,1.17.54,2.09Z" style="fill: #231f20;"/>
      <path d="M78.37,10.51c.69,0,1.28.15,1.76.44.49.29.87.71,1.14,1.25.28.54.44,1.2.5,1.97h-5.68v-.76s4.52-.25,4.52-.25l-1.19.49c-.02-.5-.08-.91-.18-1.25-.1-.34-.23-.59-.41-.76-.18-.17-.41-.26-.68-.26s-.51.08-.73.25c-.22.17-.39.44-.51.83s-.19.93-.19,1.61c0,.64.11,1.17.34,1.62s.55.78.97,1.01c.42.23.9.35,1.45.35.25,0,.49-.02.71-.07.22-.04.44-.12.66-.22.22-.1.44-.23.66-.39l.31.44c-.33.38-.68.72-1.04,1.02-.36.3-.75.53-1.16.7-.41.17-.85.25-1.32.25-.79,0-1.48-.18-2.07-.53-.59-.35-1.04-.83-1.36-1.43s-.48-1.29-.48-2.05.15-1.47.46-2.12.76-1.16,1.35-1.55c.59-.39,1.32-.58,2.17-.58Z" style="fill: #231f20;"/>
      <path d="M86.29,12.33v5.32l1.24.52v.36h-4.83v-.36l1.1-.48v-4.99c-.1-.14-.2-.25-.32-.35-.12-.1-.25-.18-.39-.26-.14-.08-.3-.15-.47-.22v-.32l3.14-1.04h.3l.23,1.82ZM88.77,10.6c.38,0,.66.11.82.32s.24.46.24.76c0,.42-.13.73-.4.94-.26.21-.55.31-.87.31-.25,0-.45-.03-.6-.08-.16-.05-.3-.11-.44-.16-.14-.05-.3-.08-.5-.08-.13,0-.27.02-.4.05-.13.03-.27.08-.39.15-.13.07-.25.15-.37.26l-.22-.47c.32-.34.62-.64.9-.89.28-.25.55-.46.81-.62.26-.16.5-.28.74-.36s.46-.12.67-.12Z" style="fill: #231f20;"/>
      <path d="M93.89,23.3c-.67,0-1.25-.05-1.74-.14-.5-.09-.9-.23-1.23-.4-.32-.17-.57-.38-.72-.62-.16-.24-.24-.5-.24-.79,0-.23.05-.44.15-.63.1-.19.28-.37.54-.54.26-.17.62-.32,1.08-.47s1.06-.29,1.79-.43h.8v.19c-.67.1-1.18.23-1.53.38-.35.15-.59.33-.71.52s-.18.41-.18.64c0,.28.09.53.27.74.18.21.45.37.81.49s.81.18,1.35.18.98-.06,1.37-.19c.38-.13.68-.3.89-.51.21-.22.31-.45.31-.69,0-.19-.05-.34-.15-.47-.1-.13-.27-.24-.51-.33-.24-.09-.57-.17-1-.24-.43-.07-.96-.13-1.61-.18-.65-.06-1.17-.15-1.58-.28-.41-.13-.72-.28-.93-.47s-.36-.39-.44-.62c-.08-.22-.11-.46-.11-.72.02-.52.23-.93.63-1.26.4-.32.98-.54,1.75-.65l.35.33c-.36.04-.61.12-.75.24-.14.12-.21.27-.21.45,0,.13.03.24.1.34s.19.17.38.24c.19.07.45.12.81.16s.81.08,1.37.12c.64.04,1.18.12,1.64.22s.84.25,1.14.44c.3.19.52.42.67.71.14.28.22.62.22,1.01,0,.6-.18,1.14-.55,1.63s-.91.87-1.62,1.16c-.71.29-1.57.43-2.58.43ZM93.94,16.33c-.75,0-1.39-.13-1.93-.38-.54-.25-.95-.6-1.24-1.03s-.43-.94-.43-1.49c0-.59.15-1.11.46-1.54.31-.44.73-.77,1.28-1.01.55-.24,1.17-.36,1.88-.36.61,0,1.13.09,1.58.26.45.17.82.4,1.12.69.3.29.52.6.67.94.15.34.22.67.22,1,0,.59-.15,1.1-.46,1.54-.31.44-.73.78-1.27,1.02-.54.24-1.17.36-1.88.36ZM94.02,15.52c.34,0,.6-.15.79-.44.19-.29.29-.77.29-1.43,0-.82-.11-1.41-.34-1.78-.23-.37-.52-.55-.88-.55-.33,0-.59.14-.79.43s-.29.76-.29,1.43c0,.82.11,1.42.34,1.79.23.37.52.55.88.55ZM95.15,11.19l-.17-.56c.51.07.94.09,1.3.08.36-.01.67-.04.94-.09s.5-.09.7-.14c.2-.05.4-.07.58-.07.2,0,.36.06.48.18.11.12.17.32.17.58,0,.35-.09.62-.27.78-.18.17-.37.25-.59.25s-.4-.07-.58-.21c-.18-.14-.37-.29-.58-.45-.21-.16-.48-.29-.79-.38s-.71-.08-1.2.02Z" style="fill: #231f20;"/>
      <path d="M103.21,10.51c.69,0,1.28.15,1.76.44.49.29.87.71,1.14,1.25.28.54.44,1.2.5,1.97h-5.68v-.76s4.52-.25,4.52-.25l-1.19.49c-.02-.5-.08-.91-.18-1.25-.1-.34-.23-.59-.41-.76-.18-.17-.41-.26-.68-.26s-.51.08-.73.25c-.22.17-.39.44-.51.83s-.19.93-.19,1.61c0,.64.11,1.17.34,1.62s.55.78.97,1.01c.42.23.9.35,1.45.35.25,0,.49-.02.71-.07.22-.04.44-.12.66-.22.22-.1.44-.23.66-.39l.31.44c-.33.38-.68.72-1.04,1.02-.36.3-.75.53-1.16.7-.41.17-.85.25-1.32.25-.79,0-1.48-.18-2.07-.53-.59-.35-1.04-.83-1.36-1.43s-.48-1.29-.48-2.05.15-1.47.46-2.12.76-1.16,1.35-1.55c.59-.39,1.32-.58,2.17-.58Z" style="fill: #231f20;"/>
      <path d="M111.14,12.33v5.43l.96.41v.36h-4.55v-.36l1.1-.48v-4.99c-.14-.19-.3-.35-.48-.47s-.42-.24-.7-.36v-.32l2.91-1.04h.3l.47,1.82ZM112.93,18.17l.96-.41v-4.26c0-.27-.05-.49-.14-.67-.1-.17-.24-.3-.44-.39s-.44-.13-.73-.13c-.36,0-.69.05-.99.16-.3.11-.54.24-.71.4l-.37-.37c.38-.42.72-.76,1.04-1.02.31-.26.6-.46.87-.6s.54-.24.8-.29c.26-.05.54-.08.83-.08.79,0,1.38.24,1.76.72.38.48.58,1.23.58,2.24v4.22l1.12.48v.36h-4.57v-.36Z" style="fill: #231f20;"/>
      <path d="M123.01,10.51c.58,0,1.04.06,1.39.18.35.12.6.28.76.47.16.19.24.4.24.61s-.05.4-.15.56c-.1.16-.23.29-.4.37-.17.09-.36.13-.57.13s-.39-.05-.56-.14c-.17-.09-.33-.21-.47-.34-.14-.13-.28-.27-.41-.41s-.27-.25-.4-.34c-.14-.09-.28-.13-.43-.13-.26,0-.5.08-.72.23-.23.16-.41.4-.55.74-.14.34-.21.78-.21,1.32,0,.73.11,1.34.32,1.82s.52.85.92,1.09c.4.24.86.36,1.4.36.37,0,.7-.05,1.02-.16s.63-.28.96-.52l.32.42c-.38.46-.76.84-1.13,1.13-.38.29-.76.51-1.15.64-.39.14-.78.21-1.18.21-.77,0-1.45-.17-2.02-.51-.57-.34-1.01-.81-1.33-1.4-.31-.59-.47-1.26-.47-1.99,0-.61.11-1.17.32-1.7.22-.52.53-.99.95-1.39.41-.4.92-.71,1.52-.93.6-.22,1.28-.33,2.05-.33Z" style="fill: #231f20;"/>
      <path d="M130.22,10.51c.69,0,1.28.15,1.76.44.49.29.87.71,1.14,1.25.28.54.44,1.2.5,1.97h-5.68v-.76s4.52-.25,4.52-.25l-1.19.49c-.02-.5-.08-.91-.18-1.25-.1-.34-.23-.59-.41-.76-.18-.17-.41-.26-.68-.26s-.51.08-.73.25c-.22.17-.39.44-.51.83s-.19.93-.19,1.61c0,.64.11,1.17.34,1.62s.55.78.97,1.01c.42.23.9.35,1.45.35.25,0,.49-.02.71-.07.22-.04.44-.12.66-.22.22-.1.44-.23.66-.39l.31.44c-.33.38-.68.72-1.04,1.02-.36.3-.75.53-1.16.7-.41.17-.85.25-1.32.25-.79,0-1.48-.18-2.07-.53-.59-.35-1.04-.83-1.36-1.43s-.48-1.29-.48-2.05.15-1.47.46-2.12.76-1.16,1.35-1.55c.59-.39,1.32-.58,2.17-.58Z" style="fill: #231f20;"/>
    </g>
    <g>
      <rect x="198.43" width="180.9" height="24.21" style="fill: none;"/>
      <path d="M244.24,6.47v11.14l1.3.52v.4h-5.39v-.4l1.31-.52V7.38l-1.31-.52v-.4h4.09ZM245.79,11.92c.66,0,1.2-.18,1.61-.55.41-.37.62-.91.62-1.62,0-.46-.09-.85-.27-1.18-.18-.32-.46-.57-.86-.74-.4-.17-.92-.26-1.57-.26h-3.35l.5-1.11h4.13c1,0,1.8.14,2.41.41.61.27,1.06.64,1.34,1.09.28.46.42.96.42,1.52s-.13,1.03-.38,1.46c-.25.43-.63.78-1.13,1.05s-1.12.45-1.87.53v-.04c.58.02,1.03.1,1.35.23.32.13.58.33.76.59.18.26.34.61.47,1.03l.72,2.23c.13.4.25.68.38.86.13.18.27.29.44.33.17.05.38.07.63.07v.72c-.82.06-1.49.08-2.01.06s-.92-.1-1.22-.23c-.3-.13-.53-.32-.69-.57s-.29-.58-.39-.97l-.6-2.19c-.11-.43-.23-.77-.36-1-.13-.24-.29-.4-.48-.5-.19-.09-.45-.14-.78-.14h-3.22l-.51-1.1h3.91Z" style="fill: #231f20;"/>
      <path d="M256.48,10.51c.69,0,1.28.15,1.76.44.49.29.87.71,1.14,1.25.28.54.44,1.2.5,1.97h-5.68v-.76s4.52-.25,4.52-.25l-1.19.49c-.02-.5-.08-.91-.18-1.25-.1-.34-.23-.59-.41-.76-.18-.17-.41-.26-.68-.26s-.51.08-.73.25c-.22.17-.39.44-.51.83s-.19.93-.19,1.61c0,.64.11,1.17.34,1.62s.55.78.97,1.01c.42.23.9.35,1.45.35.25,0,.49-.02.71-.07.22-.04.44-.12.66-.22.22-.1.44-.23.66-.39l.31.44c-.33.38-.68.72-1.04,1.02-.36.3-.75.53-1.16.7-.41.17-.85.25-1.32.25-.79,0-1.48-.18-2.07-.53-.59-.35-1.04-.83-1.36-1.43s-.48-1.29-.48-2.05.15-1.47.46-2.12.76-1.16,1.35-1.55c.59-.39,1.32-.58,2.17-.58Z" style="fill: #231f20;"/>
      <path d="M266.75,13.09c0-.48-.12-.88-.36-1.2-.24-.32-.59-.48-1.06-.48-.37,0-.69.11-.96.32-.27.21-.48.54-.62.99-.14.44-.21,1.01-.21,1.71s.08,1.21.24,1.65c.16.44.38.76.66.98.28.21.62.32,1.01.32.28,0,.57-.04.87-.13.3-.08.59-.23.86-.42v.81c-.35.22-.67.4-.94.54-.27.15-.52.26-.74.35s-.42.15-.62.18c-.19.03-.38.05-.57.05-.74,0-1.36-.16-1.86-.47-.5-.32-.89-.75-1.14-1.32s-.39-1.21-.39-1.94.13-1.4.38-1.96c.25-.56.59-1.03,1.03-1.41.43-.38.92-.67,1.45-.86.53-.19,1.09-.29,1.67-.29.31,0,.61.02.9.07.29.05.59.12.9.22s.65.23,1.03.4l-1.53.18v-3.41c-.09-.12-.19-.23-.31-.32-.12-.1-.25-.19-.41-.28-.16-.09-.34-.19-.56-.28v-.39l3.64-.99h.29l-.15,1.93v9.39c.07.08.15.15.24.22s.18.13.28.19c.1.06.2.11.31.16.11.05.22.09.34.14v.34l-3.11.68h-.29l-.26-1.45v-4.21Z" style="fill: #231f20;"/>
      <path d="M274.32,15.85c0,.28.04.49.12.65.08.16.21.27.39.34.18.07.42.11.71.11.32,0,.63-.05.91-.14.28-.09.5-.22.67-.37l.36.4c-.37.4-.7.73-.99.98s-.57.45-.83.58c-.26.14-.51.23-.76.28-.25.05-.51.08-.79.08-.77,0-1.35-.24-1.71-.71-.37-.47-.55-1.19-.55-2.15v-4.01l-1.14-.57v-.45l3.74-.3-.12,1.21v4.07ZM276.96,18.7l-.2-1.82v-5.04l-.97-.51v-.45l3.61-.3-.14,1.27v5.17c.07.08.15.15.24.22s.18.13.28.19c.1.06.2.11.31.16.11.05.22.09.34.14v.34l-3.17.63h-.3Z" style="fill: #231f20;"/>
      <path d="M284.64,12.33v5.43l.96.41v.36h-4.55v-.36l1.1-.48v-4.99c-.14-.19-.3-.35-.48-.47s-.42-.24-.7-.36v-.32l2.91-1.04h.3l.47,1.82ZM286.43,18.17l.96-.41v-4.26c0-.27-.05-.49-.14-.67-.1-.17-.24-.3-.44-.39s-.44-.13-.73-.13c-.36,0-.69.05-.99.16-.3.11-.54.24-.71.4l-.37-.37c.38-.42.72-.76,1.04-1.02.31-.26.6-.46.87-.6s.54-.24.8-.29c.26-.05.54-.08.83-.08.79,0,1.38.24,1.76.72.38.48.58,1.23.58,2.24v4.22l1.12.48v.36h-4.57v-.36Z" style="fill: #231f20;"/>
      <path d="M297.5,13.09c0-.48-.12-.88-.36-1.2-.24-.32-.59-.48-1.06-.48-.37,0-.69.11-.96.32-.27.21-.48.54-.62.99-.14.44-.21,1.01-.21,1.71s.08,1.21.24,1.65c.16.44.38.76.66.98.28.21.62.32,1.01.32.28,0,.57-.04.87-.13.3-.08.59-.23.86-.42v.81c-.35.22-.67.4-.94.54-.27.15-.52.26-.74.35-.22.09-.42.15-.62.18-.19.03-.38.05-.57.05-.74,0-1.36-.16-1.86-.47-.5-.32-.89-.75-1.14-1.32s-.39-1.21-.39-1.94.13-1.4.38-1.96c.25-.56.59-1.03,1.03-1.41.43-.38.92-.67,1.45-.86.53-.19,1.09-.29,1.67-.29.31,0,.61.02.91.07.29.05.59.12.9.22.31.1.65.23,1.03.4l-1.53.18v-3.41c-.09-.12-.19-.23-.31-.32-.12-.1-.25-.19-.41-.28-.16-.09-.34-.19-.56-.28v-.39l3.64-.99h.29l-.15,1.93v9.39c.07.08.15.15.24.22s.18.13.28.19c.1.06.2.11.31.16.11.05.22.09.34.14v.34l-3.11.68h-.29l-.26-1.45v-4.21Z" style="fill: #231f20;"/>
      <path d="M306.5,13.65l.05.79c-.49.11-.89.24-1.21.36-.31.13-.55.26-.72.4-.17.14-.28.29-.35.45-.06.16-.09.33-.09.51,0,.38.08.66.25.84.17.17.39.26.66.26.19,0,.36-.05.51-.15.15-.1.28-.24.37-.41.09-.17.14-.36.14-.56v-3.43c0-.34-.1-.62-.29-.82s-.5-.31-.92-.31c-.17,0-.35.02-.54.05-.19.04-.36.09-.51.15l.31-.61c-.04.34-.08.62-.13.84-.04.22-.09.39-.14.52s-.11.23-.18.3c-.1.11-.23.21-.4.27-.17.07-.36.1-.55.1-.26,0-.46-.05-.6-.15-.14-.1-.22-.24-.22-.42,0-.25.11-.5.34-.75.23-.25.53-.48.92-.68.38-.2.81-.37,1.29-.49.48-.12.97-.18,1.47-.18.68,0,1.22.11,1.61.32.39.21.66.5.81.87s.23.8.23,1.29v3.87c0,.15.02.28.07.38s.11.18.19.23.18.07.31.07c.11,0,.24-.02.37-.06s.27-.1.42-.19v.57c-.31.26-.65.48-1.01.64-.36.17-.7.25-1.01.25-.41,0-.74-.08-.99-.23s-.44-.38-.56-.66c-.12-.28-.19-.6-.2-.96l.09-.04c-.11.42-.28.77-.5,1.05-.22.28-.49.49-.79.63-.31.14-.64.21-1.01.21-.64,0-1.17-.17-1.57-.51s-.61-.86-.61-1.55c0-.33.07-.63.2-.9.14-.27.37-.53.72-.77.34-.24.82-.48,1.43-.7.61-.22,1.4-.45,2.35-.68Z" style="fill: #231f20;"/>
      <path d="M313.88,12.33v5.43l.96.41v.36h-4.55v-.36l1.1-.48v-4.99c-.14-.19-.3-.35-.48-.47-.18-.12-.42-.24-.7-.36v-.32l2.91-1.04h.3l.47,1.82ZM315.67,18.17l.96-.41v-4.26c0-.27-.05-.49-.14-.67-.1-.17-.24-.3-.44-.39-.19-.08-.44-.13-.73-.13-.36,0-.69.05-.99.16-.3.11-.54.24-.71.4l-.37-.37c.38-.42.72-.76,1.04-1.02.31-.26.6-.46.87-.6.27-.14.54-.24.8-.29.26-.05.54-.08.83-.08.79,0,1.38.24,1.76.72.38.48.58,1.23.58,2.24v4.22l1.12.48v.36h-4.57v-.36Z" style="fill: #231f20;"/>
      <path d="M325.74,10.51c.58,0,1.04.06,1.39.18.35.12.6.28.76.47.16.19.24.4.24.61s-.05.4-.15.56c-.1.16-.23.29-.4.37-.17.09-.36.13-.57.13s-.39-.05-.56-.14c-.17-.09-.33-.21-.47-.34-.14-.13-.28-.27-.41-.41s-.27-.25-.41-.34c-.14-.09-.28-.13-.43-.13-.26,0-.5.08-.72.23-.23.16-.41.4-.55.74-.14.34-.21.78-.21,1.32,0,.73.11,1.34.32,1.82s.52.85.92,1.09c.4.24.86.36,1.4.36.37,0,.7-.05,1.02-.16.31-.1.63-.28.96-.52l.32.42c-.38.46-.76.84-1.13,1.13-.38.29-.76.51-1.15.64-.39.14-.78.21-1.18.21-.77,0-1.45-.17-2.02-.51-.57-.34-1.01-.81-1.33-1.4-.32-.59-.47-1.26-.47-1.99,0-.61.11-1.17.32-1.7.22-.52.53-.99.95-1.39.41-.4.92-.71,1.52-.93.6-.22,1.28-.33,2.05-.33Z" style="fill: #231f20;"/>
      <path d="M334.63,16.83l-1.22,2.88-4-8.12-1.06-.46v-.4h4.83v.41l-1.01.34,2.45,5.34ZM330.67,23.3c-.39,0-.71-.1-.96-.31-.25-.21-.38-.5-.38-.86,0-.2.04-.37.13-.51s.19-.26.31-.34c.12-.08.23-.12.34-.12.11,0,.23.02.33.07.11.05.23.1.37.15.14.05.32.08.53.08.19,0,.37-.03.53-.09s.31-.18.46-.36c.15-.18.3-.44.46-.78l1.06-2.32.43-1.04,1.9-5.38-.95-.31v-.41h2.95v.41l-.88.33-3.62,8.83c-.34.82-.65,1.44-.95,1.87-.29.43-.6.72-.93.88-.33.16-.71.23-1.15.23Z" style="fill: #231f20;"/>
    </g>
    <g>
      <rect x="396.85" width="180.9" height="24.21" style="fill: none;"/>
      <path d="M458.4,17.58l1.36.55v.4h-5.61v-.4l1.41-.47-.7-9.33.12.02-4.06,10.24h-1.74l-4.19-10.24.12-.02-.55,9.23,1.41.57v.4h-3.99v-.4l1.42-.57.69-10.09-1.46-.61v-.4h4.62l3.76,9.35h-.2l3.7-9.35h4.37v.4l-1.33.52.85,10.2Z" style="fill: #231f20;"/>
      <path d="M464.39,18.76c-.86,0-1.6-.17-2.22-.5s-1.1-.81-1.43-1.41-.5-1.3-.5-2.09.18-1.56.54-2.2c.36-.64.87-1.14,1.51-1.5.64-.36,1.39-.54,2.23-.54s1.6.17,2.22.5c.62.34,1.1.8,1.43,1.4s.5,1.3.5,2.1-.18,1.55-.55,2.2-.87,1.14-1.51,1.51c-.64.36-1.38.54-2.22.54ZM464.52,17.86c.3,0,.57-.09.8-.27.23-.18.41-.48.54-.89.13-.41.19-.96.19-1.66,0-.79-.06-1.46-.19-1.99s-.31-.94-.56-1.22c-.25-.27-.55-.41-.9-.41-.3,0-.57.09-.8.27-.23.18-.41.48-.54.89-.13.41-.19.96-.19,1.66,0,.79.06,1.46.18,1.99.12.54.31.94.55,1.22.25.28.55.41.91.41Z" style="fill: #231f20;"/>
      <path d="M475.55,13.09c0-.48-.12-.88-.36-1.2-.24-.32-.59-.48-1.06-.48-.37,0-.69.11-.96.32-.27.21-.48.54-.62.99-.14.44-.21,1.01-.21,1.71s.08,1.21.24,1.65c.16.44.38.76.66.98.28.21.62.32,1.01.32.28,0,.57-.04.87-.13.3-.08.59-.23.86-.42v.81c-.35.22-.67.4-.94.54-.27.15-.52.26-.74.35-.22.09-.42.15-.62.18-.19.03-.38.05-.57.05-.74,0-1.36-.16-1.86-.47-.5-.32-.89-.75-1.14-1.32s-.39-1.21-.39-1.94.13-1.4.38-1.96c.25-.56.59-1.03,1.03-1.41.43-.38.92-.67,1.45-.86.53-.19,1.09-.29,1.67-.29.31,0,.61.02.91.07.29.05.59.12.9.22.31.1.65.23,1.03.4l-1.53.18v-3.41c-.09-.12-.19-.23-.31-.32-.12-.1-.25-.19-.41-.28-.16-.09-.34-.19-.56-.28v-.39l3.64-.99h.29l-.15,1.93v9.39c.07.08.15.15.24.22s.18.13.28.19c.1.06.2.11.31.16.11.05.22.09.34.14v.34l-3.11.68h-.29l-.26-1.45v-4.21Z" style="fill: #231f20;"/>
      <path d="M483.11,15.85c0,.28.04.49.12.65.08.16.21.27.39.34.18.07.42.11.71.11.32,0,.63-.05.91-.14.28-.09.5-.22.67-.37l.36.4c-.37.4-.7.73-.99.98s-.57.45-.83.58c-.26.14-.51.23-.76.28-.25.05-.51.08-.79.08-.77,0-1.35-.24-1.71-.71-.37-.47-.55-1.19-.55-2.15v-4.01l-1.14-.57v-.45l3.74-.3-.12,1.21v4.07ZM485.76,18.7l-.2-1.82v-5.04l-.97-.51v-.45l3.61-.3-.14,1.27v5.17c.07.08.15.15.24.22s.18.13.28.19c.1.06.2.11.31.16.11.05.22.09.34.14v.34l-3.17.63h-.3Z" style="fill: #231f20;"/>
      <path d="M493.26,17.69l1.11.48v.36h-4.7v-.36l1.1-.48v-9.63c-.09-.12-.2-.23-.32-.34-.12-.1-.27-.21-.44-.31-.17-.1-.37-.2-.6-.3v-.4l3.73-1.02h.29l-.16,1.92v10.07Z" style="fill: #231f20;"/>
      <path d="M499.82,13.65l.05.79c-.49.11-.89.24-1.21.36-.31.13-.55.26-.72.4-.17.14-.28.29-.35.45-.06.16-.09.33-.09.51,0,.38.08.66.25.84.17.17.39.26.66.26.19,0,.36-.05.51-.15.15-.1.28-.24.37-.41s.14-.36.14-.56v-3.43c0-.34-.1-.62-.29-.82-.2-.21-.5-.31-.92-.31-.17,0-.35.02-.54.05-.19.04-.36.09-.51.15l.31-.61c-.04.34-.09.62-.13.84-.04.22-.09.39-.14.52-.05.13-.11.23-.18.3-.1.11-.23.21-.4.27-.17.07-.36.1-.55.1-.26,0-.46-.05-.6-.15-.14-.1-.22-.24-.22-.42,0-.25.11-.5.34-.75.23-.25.53-.48.92-.68.38-.2.81-.37,1.29-.49.48-.12.97-.18,1.47-.18.68,0,1.22.11,1.61.32s.66.5.81.87c.15.37.23.8.23,1.29v3.87c0,.15.02.28.07.38s.11.18.19.23.18.07.31.07c.11,0,.24-.02.37-.06.13-.04.27-.1.42-.19v.57c-.31.26-.65.48-1.01.64-.36.17-.7.25-1.01.25-.41,0-.74-.08-.99-.23s-.44-.38-.56-.66c-.12-.28-.19-.6-.2-.96l.09-.04c-.11.42-.28.77-.5,1.05-.22.28-.49.49-.79.63-.31.14-.64.21-1.01.21-.64,0-1.17-.17-1.57-.51-.41-.34-.61-.86-.61-1.55,0-.33.07-.63.2-.9s.37-.53.72-.77c.34-.24.82-.48,1.43-.7.61-.22,1.39-.45,2.35-.68Z" style="fill: #231f20;"/>
      <path d="M507.2,12.33v5.32l1.24.52v.36h-4.83v-.36l1.1-.48v-4.99c-.1-.14-.2-.25-.32-.35-.12-.1-.25-.18-.39-.26-.14-.08-.3-.15-.47-.22v-.32l3.14-1.04h.3l.23,1.82ZM509.67,10.6c.38,0,.66.11.82.32s.24.46.24.76c0,.42-.13.73-.4.94-.26.21-.55.31-.87.31-.25,0-.45-.03-.6-.08s-.3-.11-.44-.16c-.13-.05-.3-.08-.5-.08-.13,0-.27.02-.4.05-.13.03-.26.08-.39.15-.13.07-.25.15-.37.26l-.22-.47c.32-.34.62-.64.9-.89.28-.25.55-.46.81-.62.26-.16.5-.28.74-.36.23-.08.46-.12.67-.12Z" style="fill: #231f20;"/>
      <path d="M514.96,10.51l-.11,1.87v5.31l1.11.48v.36h-4.7v-.36l1.1-.48v-5.15c-.08-.11-.19-.22-.31-.32-.12-.1-.26-.19-.4-.28-.14-.09-.3-.17-.46-.23v-.35l3.37-.85h.41ZM513.58,8.64c-.44,0-.79-.14-1.06-.42-.27-.28-.4-.64-.4-1.06s.13-.77.4-1.04c.27-.28.62-.41,1.06-.41s.8.14,1.07.41c.27.28.4.62.4,1.04s-.13.78-.4,1.06c-.27.28-.62.42-1.07.42Z" style="fill: #231f20;"/>
      <path d="M520.02,16.12c0,.32.12.58.36.76s.58.27,1.03.27c.22,0,.47-.03.73-.08.27-.05.56-.13.87-.23v.53c-.41.32-.8.59-1.15.79-.35.2-.68.35-.98.44s-.57.14-.81.14c-.5,0-.94-.08-1.31-.25s-.67-.42-.89-.77-.32-.79-.32-1.34v-4.06l-1.18-.9v-.37c.17-.11.36-.24.57-.36.2-.13.42-.26.63-.4s.44-.28.66-.42c.22-.14.43-.28.63-.41s.39-.25.56-.37h.61v7.03ZM519.01,11.91v-1.17h3.68l-.18,1.17h-3.5Z" style="fill: #231f20;"/>
      <path d="M529.29,16.83l-1.21,2.88-4-8.12-1.06-.46v-.4h4.83v.41l-1.01.34,2.45,5.34ZM525.33,23.3c-.39,0-.71-.1-.96-.31s-.38-.5-.38-.86c0-.2.04-.37.13-.51.09-.14.19-.26.31-.34.12-.08.23-.12.34-.12s.22.02.33.07c.11.05.23.1.37.15.14.05.32.08.53.08.19,0,.37-.03.53-.09.16-.06.31-.18.46-.36.15-.18.3-.44.46-.78l1.06-2.32.43-1.04,1.9-5.38-.95-.31v-.41h2.95v.41l-.88.33-3.62,8.83c-.34.82-.65,1.44-.95,1.87-.29.43-.6.72-.93.88-.33.16-.71.23-1.15.23Z" style="fill: #231f20;"/>
    </g>
  </g>
</svg>