<?xml version="1.0" encoding="UTF-8"?>
<svg id="Layer_2" data-name="Layer 2" xmlns="http://www.w3.org/2000/svg" width="272.32" height="86.55" viewBox="0 0 272.32 86.55">
  <g id="Layer_1-2" data-name="Layer 1">
    <circle cx="18.31" cy="66.97" r="12.77" style="fill: #fff; stroke: #231f20; stroke-miterlimit: 10;"/>
    <circle cx="50.05" cy="29.39" r="12.77" style="fill: #fff; stroke: #231f20; stroke-miterlimit: 10;"/>
    <g>
      <line x1="39.07" y1="41.69" x2="32.4" y2="50.05" style="fill: none; stroke: #231f20; stroke-miterlimit: 10; stroke-width: .9px;"/>
      <polygon points="29.71 46.23 28.37 55.1 36.73 51.82 29.71 46.23" style="fill: #231f20;"/>
    </g>
    <g>
      <line x1="60.94" y1="40.97" x2="66.29" y2="50.23" style="fill: none; stroke: #231f20; stroke-miterlimit: 10; stroke-width: .9px;"/>
      <polygon points="61.75 51.34 69.52 55.83 69.52 46.85 61.75 51.34" style="fill: #231f20;"/>
    </g>
    <g>
      <rect x="45.63" y="25.06" width="13.62" height="13.94" style="fill: none;"/>
      <path d="M49.63,33.36v.26h-3.59v-.26l.87-.35v-6.82l-.87-.35v-.26h3.59v.26l-.87.35v6.82l.87.35Z" style="fill: #231f20;"/>
      <path d="M54.04,33.36v.26h-3.59v-.26l.87-.35v-6.82l-.87-.35v-.26h3.59v.26l-.87.35v6.82l.87.35Z" style="fill: #231f20;"/>
    </g>
    <g>
      <rect x="13.84" y="62.45" width="13.62" height="13.94" style="fill: none;"/>
      <path d="M17.84,70.75v.26h-3.59v-.26l.87-.35v-6.82l-.87-.35v-.26h3.59v.26l-.87.35v6.82l.87.35Z" style="fill: #231f20;"/>
    </g>
    <circle cx="77.37" cy="69.43" r="12.77" style="fill: #fff; stroke: #231f20; stroke-miterlimit: 10;"/>
    <g>
      <rect x="72.9" y="64.91" width="13.62" height="13.94" style="fill: none;"/>
      <path d="M76.9,73.2v.26h-3.59v-.26l.87-.35v-6.82l-.87-.35v-.26h3.59v.26l-.87.35v6.82l.87.35Z" style="fill: #231f20;"/>
      <path d="M81.31,73.2v.26h-3.59v-.26l.87-.35v-6.82l-.87-.35v-.26h3.59v.26l-.87.35v6.82l.87.35Z" style="fill: #231f20;"/>
      <path d="M85.72,73.2v.26h-3.59v-.26l.87-.35v-6.82l-.87-.35v-.26h3.59v.26l-.87.35v6.82l.87.35Z" style="fill: #231f20;"/>
    </g>
    <circle cx="109.15" cy="69.4" r="12.77" style="fill: #fff; stroke: #231f20; stroke-miterlimit: 10;"/>
    <circle cx="140.89" cy="31.81" r="12.77" style="fill: #fff; stroke: #231f20; stroke-miterlimit: 10;"/>
    <g>
      <line x1="123.65" y1="39.12" x2="116.98" y2="47.48" style="fill: none; stroke: #231f20; stroke-miterlimit: 10; stroke-width: .9px;"/>
      <polygon points="114.29 43.66 112.95 52.54 121.31 49.26 114.29 43.66" style="fill: #231f20;"/>
    </g>
    <g>
      <line x1="121.42" y1="57.53" x2="128.09" y2="49.17" style="fill: none; stroke: #231f20; stroke-miterlimit: 10; stroke-width: .9px;"/>
      <polygon points="130.78 52.99 132.12 44.12 123.76 47.39 130.78 52.99" style="fill: #231f20;"/>
    </g>
    <g>
      <line x1="151.78" y1="43.39" x2="157.13" y2="52.65" style="fill: none; stroke: #231f20; stroke-miterlimit: 10; stroke-width: .9px;"/>
      <polygon points="152.58 53.76 160.36 58.25 160.36 49.27 152.58 53.76" style="fill: #231f20;"/>
    </g>
    <g>
      <rect x="136.46" y="27.49" width="13.62" height="13.94" style="fill: none;"/>
      <path d="M140.47,35.78v.26h-3.59v-.26l.87-.35v-6.82l-.87-.35v-.26h3.59v.26l-.87.35v6.82l.87.35Z" style="fill: #231f20;"/>
      <path d="M144.88,35.78v.26h-3.59v-.26l.87-.35v-6.82l-.87-.35v-.26h3.59v.26l-.87.35v6.82l.87.35Z" style="fill: #231f20;"/>
    </g>
    <g>
      <rect x="104.68" y="64.88" width="13.62" height="13.94" style="fill: none;"/>
      <path d="M108.68,73.17v.26h-3.59v-.26l.87-.35v-6.82l-.87-.35v-.26h3.59v.26l-.87.35v6.82l.87.35Z" style="fill: #231f20;"/>
    </g>
    <circle cx="168.21" cy="71.85" r="12.77" style="fill: #fff; stroke: #231f20; stroke-miterlimit: 10;"/>
    <g>
      <rect x="163.74" y="67.33" width="13.62" height="13.94" style="fill: none;"/>
      <path d="M167.74,75.63v.26h-3.59v-.26l.87-.35v-6.82l-.87-.35v-.26h3.59v.26l-.87.35v6.82l.87.35Z" style="fill: #231f20;"/>
      <path d="M172.15,75.63v.26h-3.59v-.26l.87-.35v-6.82l-.87-.35v-.26h3.59v.26l-.87.35v6.82l.87.35Z" style="fill: #231f20;"/>
      <path d="M176.56,75.63v.26h-3.59v-.26l.87-.35v-6.82l-.87-.35v-.26h3.59v.26l-.87.35v6.82l.87.35Z" style="fill: #231f20;"/>
    </g>
    <circle cx="199.98" cy="70.83" r="12.77" style="fill: #fff; stroke: #231f20; stroke-miterlimit: 10;"/>
    <circle cx="231.72" cy="33.24" r="12.77" style="fill: #fff; stroke: #231f20; stroke-miterlimit: 10;"/>
    <g>
      <line x1="214.48" y1="40.55" x2="207.81" y2="48.91" style="fill: none; stroke: #231f20; stroke-miterlimit: 10; stroke-width: .9px;"/>
      <polygon points="205.12 45.09 203.79 53.97 212.14 50.69 205.12 45.09" style="fill: #231f20;"/>
    </g>
    <g>
      <line x1="212.26" y1="58.96" x2="218.93" y2="50.6" style="fill: none; stroke: #231f20; stroke-miterlimit: 10; stroke-width: .9px;"/>
      <polygon points="221.62 54.42 222.96 45.54 214.6 48.82 221.62 54.42" style="fill: #231f20;"/>
    </g>
    <g>
      <line x1="237.66" y1="47.85" x2="243" y2="57.11" style="fill: none; stroke: #231f20; stroke-miterlimit: 10; stroke-width: .9px;"/>
      <polygon points="238.46 58.22 246.24 62.71 246.24 53.73 238.46 58.22" style="fill: #231f20;"/>
    </g>
    <g>
      <line x1="254.88" y1="57.72" x2="249.53" y2="48.46" style="fill: none; stroke: #231f20; stroke-miterlimit: 10; stroke-width: .9px;"/>
      <polygon points="254.08 47.35 246.3 42.86 246.3 51.84 254.08 47.35" style="fill: #231f20;"/>
    </g>
    <g>
      <rect x="227.3" y="28.91" width="13.62" height="13.94" style="fill: none;"/>
      <path d="M231.3,37.21v.26h-3.59v-.26l.87-.35v-6.82l-.87-.35v-.26h3.59v.26l-.87.35v6.82l.87.35Z" style="fill: #231f20;"/>
      <path d="M235.71,37.21v.26h-3.59v-.26l.87-.35v-6.82l-.87-.35v-.26h3.59v.26l-.87.35v6.82l.87.35Z" style="fill: #231f20;"/>
    </g>
    <g>
      <rect x="195.51" y="66.31" width="13.62" height="13.94" style="fill: none;"/>
      <path d="M199.51,74.6v.26h-3.59v-.26l.87-.35v-6.82l-.87-.35v-.26h3.59v.26l-.87.35v6.82l.87.35Z" style="fill: #231f20;"/>
    </g>
    <circle cx="259.04" cy="73.28" r="12.77" style="fill: #fff; stroke: #231f20; stroke-miterlimit: 10;"/>
    <g>
      <rect x="254.57" y="68.76" width="13.62" height="13.94" style="fill: none;"/>
      <path d="M258.57,77.06v.26h-3.59v-.26l.87-.35v-6.82l-.87-.35v-.26h3.59v.26l-.87.35v6.82l.87.35Z" style="fill: #231f20;"/>
      <path d="M262.98,77.06v.26h-3.59v-.26l.87-.35v-6.82l-.87-.35v-.26h3.59v.26l-.87.35v6.82l.87.35Z" style="fill: #231f20;"/>
      <path d="M267.39,77.06v.26h-3.59v-.26l.87-.35v-6.82l-.87-.35v-.26h3.59v.26l-.87.35v6.82l.87.35Z" style="fill: #231f20;"/>
    </g>
    <g>
      <rect width="18.7" height="19.04" style="fill: none;"/>
      <path d="M12.81,12.87l.81.33v.24h-3.54v-.24l.91-.32-2.33-5.51h.23l-2.2,5.51.85.32v.24h-2.45v-.24l.84-.32,2.83-6.84h1.08l2.96,6.83ZM7.1,11v-.65h3.73v.65h-3.73Z" style="fill: #231f20;"/>
    </g>
    <g>
      <rect x="90.15" width="18.7" height="19.04" style="fill: none;"/>
      <path d="M96.08,13.44v-.24l.8-.32v-6.25l-.8-.32v-.24h2.5v7.37h-2.5ZM97.81,6.75l.07-.68h2.18c.57,0,1.03.08,1.38.23.35.15.61.36.78.62.16.26.25.56.25.89,0,.46-.16.84-.47,1.15s-.74.49-1.27.54l.02-.08c.67.04,1.21.23,1.6.57.39.35.58.79.58,1.32,0,.41-.1.77-.29,1.09-.2.32-.5.58-.92.76-.42.18-.96.28-1.63.28h-2.19l-.09-.68h1.74c.33,0,.62-.05.86-.16s.42-.27.55-.49c.13-.22.19-.5.19-.85,0-.28-.05-.52-.17-.73-.11-.21-.28-.38-.51-.5-.23-.12-.52-.18-.88-.18h-1.79l.02-.67h1.72c.38,0,.68-.11.9-.32.22-.21.33-.53.33-.95,0-.23-.05-.44-.15-.62-.1-.18-.25-.31-.45-.41-.2-.1-.45-.15-.76-.15h-1.6Z" style="fill: #231f20;"/>
    </g>
    <g>
      <rect x="180.29" width="18.7" height="19.04" style="fill: none;"/>
      <path d="M190.84,12.88c.23,0,.44-.02.65-.06.21-.04.44-.11.7-.22l-.37.26,1-1.66h.31l-.24,1.96c-.33.14-.71.24-1.12.31s-.86.11-1.34.11c-.67,0-1.26-.08-1.79-.25s-.97-.41-1.34-.73c-.37-.32-.65-.71-.84-1.18-.19-.47-.29-1-.29-1.61,0-.77.18-1.45.54-2.04s.87-1.04,1.54-1.37,1.47-.49,2.39-.49c.23,0,.47.01.7.04s.51.08.83.15l-.43.1.74-.54h.21l.39,2.75-.35.08-1.16-1.84.46.5c-.29-.2-.57-.34-.83-.42-.26-.08-.53-.12-.81-.12-.4,0-.75.06-1.05.17-.3.11-.56.28-.77.51s-.37.5-.48.83c-.11.33-.16.72-.16,1.16,0,.6.07,1.12.21,1.57.14.45.34.82.61,1.12.26.3.57.52.92.67s.74.23,1.16.23Z" style="fill: #231f20;"/>
    </g>
  </g>
</svg>