<?xml version="1.0" encoding="UTF-8"?>
<svg id="Layer_2" data-name="Layer 2" xmlns="http://www.w3.org/2000/svg" width="235.22" height="243.6" viewBox="0 0 235.22 243.6">
  <g id="Layer_1-2" data-name="Layer 1">
    <circle cx="160.76" cy="78.4" r="12.77" style="fill: #d1d3d4; stroke: #231f20; stroke-miterlimit: 10;"/>
    <circle cx="212.22" cy="115.69" r="12.77" style="fill: #d1d3d4; stroke: #231f20; stroke-miterlimit: 10;"/>
    <circle cx="194.1" cy="49.22" r="12.77" style="fill: #fff; stroke: #231f20; stroke-miterlimit: 10;"/>
    <circle cx="215.39" cy="78.4" r="12.77" style="fill: #fff; stroke: #231f20; stroke-miterlimit: 10;"/>
    <g>
      <line x1="182.32" y1="56.76" x2="175.23" y2="64.77" style="fill: none; stroke: #231f20; stroke-miterlimit: 10; stroke-width: .9px;"/>
      <polygon points="172.74 60.81 170.95 69.61 179.47 66.76 172.74 60.81" style="fill: #231f20;"/>
    </g>
    <g>
      <line x1="176.52" y1="78.97" x2="187.21" y2="78.97" style="fill: none; stroke: #231f20; stroke-miterlimit: 10; stroke-width: .9px;"/>
      <polygon points="185.9 83.46 193.67 78.97 185.9 74.48 185.9 83.46" style="fill: #231f20;"/>
    </g>
    <g>
      <line x1="219.03" y1="128.46" x2="220.66" y2="132.51" style="fill: none; stroke: #231f20; stroke-miterlimit: 10; stroke-width: .9px;"/>
      <polygon points="216.01 132.97 223.07 138.51 224.34 129.62 216.01 132.97" style="fill: #231f20;"/>
    </g>
    <g>
      <line x1="145.43" y1="110.86" x2="152.45" y2="98.69" style="fill: none; stroke: #231f20; stroke-miterlimit: 10; stroke-width: .9px;"/>
      <polygon points="155.68 102.08 155.68 93.1 147.9 97.59 155.68 102.08" style="fill: #231f20;"/>
    </g>
    <g>
      <line x1="130.6" y1="98.98" x2="131.21" y2="103.48" style="fill: none; stroke: #231f20; stroke-miterlimit: 10; stroke-width: .9px;"/>
      <polygon points="126.58 102.78 132.08 109.88 135.48 101.57 126.58 102.78" style="fill: #231f20;"/>
    </g>
    <g>
      <line x1="124.17" y1="143.14" x2="126.03" y2="139.92" style="fill: none; stroke: #231f20; stroke-miterlimit: 10; stroke-width: .9px;"/>
      <polygon points="129.26 143.3 129.26 134.32 121.48 138.81 129.26 143.3" style="fill: #231f20;"/>
    </g>
    <g>
      <line x1="118.91" y1="141.84" x2="112.9" y2="111.7" style="fill: none; stroke: #231f20; stroke-miterlimit: 10; stroke-width: .9px;"/>
      <polygon points="117.56 112.11 111.64 105.36 108.76 113.87 117.56 112.11" style="fill: #231f20;"/>
    </g>
    <g>
      <line x1="89.02" y1="86.3" x2="86" y2="84.09" style="fill: none; stroke: #231f20; stroke-miterlimit: 10; stroke-width: .9px;"/>
      <polygon points="89.71 81.25 80.78 80.27 84.4 88.49 89.71 81.25" style="fill: #231f20;"/>
    </g>
    <g>
      <line x1="69.41" y1="63.41" x2="71.5" y2="60.3" style="fill: none; stroke: #231f20; stroke-miterlimit: 10; stroke-width: .9px;"/>
      <polygon points="74.49 63.9 75.11 54.94 67.04 58.88 74.49 63.9" style="fill: #231f20;"/>
    </g>
    <g>
      <line x1="106.45" y1="31.43" x2="106.67" y2="35.05" style="fill: none; stroke: #231f20; stroke-miterlimit: 10; stroke-width: .9px;"/>
      <polygon points="102.11 34.01 107.07 41.5 111.07 33.46 102.11 34.01" style="fill: #231f20;"/>
    </g>
    <g>
      <line x1="113.53" y1="66.84" x2="115.9" y2="70.13" style="fill: none; stroke: #231f20; stroke-miterlimit: 10; stroke-width: .9px;"/>
      <polygon points="111.49 71.69 119.68 75.38 118.78 66.44 111.49 71.69" style="fill: #231f20;"/>
    </g>
    <g>
      <line x1="134.78" y1="70.63" x2="137.8" y2="59.29" style="fill: none; stroke: #231f20; stroke-miterlimit: 10; stroke-width: .9px;"/>
      <polygon points="141.8 61.71 139.46 53.04 133.13 59.4 141.8 61.71" style="fill: #231f20;"/>
    </g>
    <g>
      <line x1="168.56" y1="117.66" x2="144.83" y2="101.74" style="fill: none; stroke: #231f20; stroke-miterlimit: 10; stroke-width: .9px;"/>
      <polygon points="148.42 98.75 139.46 98.14 143.42 106.2 148.42 98.75" style="fill: #231f20;"/>
    </g>
    <g>
      <line x1="89.31" y1="15.26" x2="83.08" y2="15.65" style="fill: none; stroke: #231f20; stroke-miterlimit: 10; stroke-width: .9px;"/>
      <polygon points="84.12 11.09 76.64 16.05 84.68 20.05 84.12 11.09" style="fill: #231f20;"/>
    </g>
    <g>
      <line x1="91.74" y1="33.09" x2="93.83" y2="29.99" style="fill: none; stroke: #231f20; stroke-miterlimit: 10; stroke-width: .9px;"/>
      <polygon points="96.82 33.59 97.44 24.63 89.37 28.57 96.82 33.59" style="fill: #231f20;"/>
    </g>
    <g>
      <line x1="164.27" y1="92.76" x2="169.61" y2="102.02" style="fill: none; stroke: #231f20; stroke-miterlimit: 10; stroke-width: .9px;"/>
      <polygon points="165.07 103.12 172.85 107.61 172.85 98.63 165.07 103.12" style="fill: #231f20;"/>
    </g>
    <g>
      <line x1="193.32" y1="159.21" x2="190.54" y2="143.21" style="fill: none; stroke: #231f20; stroke-miterlimit: 10; stroke-width: .9px;"/>
      <polygon points="195.18 143.74 189.43 136.84 186.34 145.27 195.18 143.74" style="fill: #231f20;"/>
    </g>
    <g>
      <line x1="169.88" y1="130.94" x2="138.54" y2="148.36" style="fill: none; stroke: #231f20; stroke-miterlimit: 10; stroke-width: .9px;"/>
      <polygon points="137.51 143.79 132.89 151.49 141.87 151.64 137.51 143.79" style="fill: #231f20;"/>
    </g>
    <g>
      <line x1="177.99" y1="178.05" x2="171.1" y2="178.52" style="fill: none; stroke: #231f20; stroke-miterlimit: 10; stroke-width: .9px;"/>
      <polygon points="172.11 173.95 164.66 178.95 172.72 182.91 172.11 173.95" style="fill: #231f20;"/>
    </g>
    <g>
      <line x1="132.05" y1="185.35" x2="125.16" y2="185.82" style="fill: none; stroke: #231f20; stroke-miterlimit: 10; stroke-width: .9px;"/>
      <polygon points="126.17 181.25 118.71 186.26 126.78 190.21 126.17 181.25" style="fill: #231f20;"/>
    </g>
    <g>
      <line x1="89.02" y1="176.31" x2="85.16" y2="170.59" style="fill: none; stroke: #231f20; stroke-miterlimit: 10; stroke-width: .9px;"/>
      <polygon points="89.61 169.17 81.54 165.23 82.17 174.19 89.61 169.17" style="fill: #231f20;"/>
    </g>
    <g>
      <line x1="67.09" y1="140.97" x2="63.23" y2="135.25" style="fill: none; stroke: #231f20; stroke-miterlimit: 10; stroke-width: .9px;"/>
      <polygon points="67.69 133.83 59.62 129.89 60.25 138.85 67.69 133.83" style="fill: #231f20;"/>
    </g>
    <g>
      <line x1="42.74" y1="143.16" x2="45.54" y2="136.85" style="fill: none; stroke: #231f20; stroke-miterlimit: 10; stroke-width: .9px;"/>
      <polygon points="49.11 139.87 48.16 130.94 40.9 136.23 49.11 139.87" style="fill: #231f20;"/>
    </g>
    <g>
      <line x1="38.03" y1="120.1" x2="31.66" y2="122.74" style="fill: none; stroke: #231f20; stroke-miterlimit: 10; stroke-width: .9px;"/>
      <polygon points="31.16 118.09 25.69 125.22 34.59 126.39 31.16 118.09" style="fill: #231f20;"/>
    </g>
    <g>
      <line x1="67.42" y1="119.54" x2="74.32" y2="119.54" style="fill: none; stroke: #231f20; stroke-miterlimit: 10; stroke-width: .9px;"/>
      <polygon points="73.01 124.03 80.78 119.54 73.01 115.05 73.01 124.03" style="fill: #231f20;"/>
    </g>
    <g>
      <line x1="103.41" y1="128.02" x2="108.08" y2="138.33" style="fill: none; stroke: #231f20; stroke-miterlimit: 10; stroke-width: .9px;"/>
      <polygon points="103.44 138.99 110.74 144.22 111.62 135.29 103.44 138.99" style="fill: #231f20;"/>
    </g>
    <g>
      <line x1="100.11" y1="202.27" x2="97.31" y2="208.57" style="fill: none; stroke: #231f20; stroke-miterlimit: 10; stroke-width: .9px;"/>
      <polygon points="93.74 205.55 94.69 214.48 101.95 209.19 93.74 205.55" style="fill: #231f20;"/>
    </g>
    <g>
      <line x1="78.6" y1="216.69" x2="74.09" y2="209.36" style="fill: none; stroke: #231f20; stroke-miterlimit: 10; stroke-width: .9px;"/>
      <polygon points="78.6 208.13 70.7 203.86 70.95 212.84 78.6 208.13" style="fill: #231f20;"/>
    </g>
    <g>
      <line x1="64" y1="175.34" x2="65.92" y2="170.39" style="fill: none; stroke: #231f20; stroke-miterlimit: 10; stroke-width: .9px;"/>
      <polygon points="69.63 173.24 68.25 164.37 61.26 170 69.63 173.24" style="fill: #231f20;"/>
    </g>
    <g>
      <line x1="214.28" y1="159.22" x2="209.01" y2="163.68" style="fill: none; stroke: #231f20; stroke-miterlimit: 10; stroke-width: .9px;"/>
      <polygon points="207.11 159.4 204.08 167.85 212.91 166.26 207.11 159.4" style="fill: #231f20;"/>
    </g>
    <g>
      <line x1="147.19" y1="136.67" x2="169.95" y2="159.42" style="fill: none; stroke: #231f20; stroke-miterlimit: 10; stroke-width: .9px;"/>
      <polygon points="165.84 161.67 174.52 163.99 172.19 155.32 165.84 161.67" style="fill: #231f20;"/>
    </g>
    <g>
      <line x1="215.27" y1="92.62" x2="215.3" y2="95.51" style="fill: none; stroke: #231f20; stroke-miterlimit: 10; stroke-width: .9px;"/>
      <polygon points="210.8 94.26 215.39 101.98 219.78 94.14 210.8 94.26" style="fill: #231f20;"/>
    </g>
    <g>
      <rect x="153.95" y="71.42" width="13.62" height="13.94" style="fill: none;"/>
      <path d="M157.08,71.95v7.43l.87.35v.26h-3.59v-.26l.87-.35v-6.82l-.87-.35v-.26h2.72ZM158.11,75.58c.44,0,.8-.12,1.07-.37.28-.25.41-.6.41-1.08,0-.31-.06-.57-.18-.79-.12-.22-.31-.38-.57-.5-.26-.11-.61-.17-1.04-.17h-2.23l.34-.74h2.75c.66,0,1.2.09,1.61.27.41.18.7.42.89.73s.28.64.28,1.01-.08.69-.25.98-.42.52-.75.7c-.33.18-.75.3-1.24.35v-.03c.38.02.68.07.9.16s.38.22.5.4c.12.18.22.4.31.68l.48,1.49c.08.26.17.46.25.57.08.12.18.19.29.22.11.03.25.04.42.04v.48c-.55.04-.99.05-1.34.04-.34-.01-.62-.06-.82-.15s-.35-.21-.46-.38-.19-.38-.26-.65l-.4-1.46c-.08-.29-.16-.51-.24-.67s-.19-.27-.32-.33c-.13-.06-.3-.09-.52-.09h-2.15l-.34-.73h2.6Z" style="fill: #231f20;"/>
      <path d="M164.25,83.59v-3.75l.23.2-1.51.47-.09-.24,1.9-.99h.52v4.32l.88.23v.16h-2.88v-.16l.94-.23Z" style="fill: #231f20;"/>
    </g>
    <g>
      <rect x="205.41" y="108.71" width="13.62" height="13.94" style="fill: none;"/>
      <path d="M208.54,109.23v7.43l.87.35v.26h-3.59v-.26l.87-.35v-6.82l-.87-.35v-.26h2.72ZM209.57,112.87c.44,0,.8-.12,1.07-.37.28-.25.41-.6.41-1.08,0-.31-.06-.57-.18-.79s-.31-.38-.57-.5c-.26-.11-.61-.17-1.04-.17h-2.23l.34-.74h2.75c.66,0,1.2.09,1.61.27.41.18.7.42.89.73.19.3.28.64.28,1.01s-.08.69-.25.98-.42.52-.75.7c-.33.18-.75.3-1.24.35v-.03c.38.02.68.07.9.16s.38.22.5.4c.12.18.22.4.31.68l.48,1.49c.08.26.17.46.25.57.08.12.18.19.29.22.11.03.25.04.42.04v.48c-.55.04-.99.05-1.34.04-.34-.01-.62-.06-.82-.15s-.35-.21-.46-.38c-.11-.17-.19-.38-.26-.65l-.4-1.46c-.08-.29-.16-.51-.24-.67s-.19-.27-.32-.33c-.13-.06-.3-.09-.52-.09h-2.15l-.34-.73h2.6Z" style="fill: #231f20;"/>
      <path d="M216.6,120.73l.92-1.11h.18l-.3,1.8h-.11l-.44-.16h-2.62v-.11l1.24-1.43c.21-.24.38-.46.5-.64.12-.19.21-.35.26-.51s.08-.29.08-.43c0-.25-.07-.45-.21-.6s-.34-.23-.58-.23c-.16,0-.31.03-.45.09-.14.06-.26.15-.36.27-.1.13-.19.29-.25.5l-.29-.07c.12-.55.33-.96.64-1.23.31-.27.69-.41,1.14-.41.28,0,.53.05.75.16.21.11.38.26.5.46.12.2.18.42.18.68,0,.16-.02.31-.07.45-.05.14-.12.29-.23.44-.11.15-.26.32-.45.51-.19.19-.43.4-.71.65l-.83.77-.03-.28h2.31l-.79.4Z" style="fill: #231f20;"/>
    </g>
    <circle cx="193.67" cy="176.31" r="12.77" style="fill: #d1d3d4; stroke: #231f20; stroke-miterlimit: 10;"/>
    <g>
      <rect x="186.86" y="169.34" width="13.62" height="13.94" style="fill: none;"/>
      <path d="M189.99,169.86v7.43l.87.35v.26h-3.59v-.26l.87-.35v-6.82l-.87-.35v-.26h2.72ZM191.02,173.49c.44,0,.8-.12,1.07-.37.28-.25.41-.6.41-1.08,0-.31-.06-.57-.18-.79-.12-.22-.31-.38-.57-.5-.26-.11-.61-.17-1.04-.17h-2.23l.34-.74h2.75c.66,0,1.2.09,1.61.27.41.18.7.42.89.73s.28.64.28,1.01-.08.69-.25.98-.42.52-.75.7c-.33.18-.75.3-1.24.35v-.03c.38.02.68.07.9.16s.38.22.5.4c.12.18.22.4.31.68l.48,1.49c.08.26.17.46.25.57.08.12.18.19.29.22.11.03.25.04.42.04v.48c-.55.04-.99.05-1.34.04-.34-.01-.62-.06-.82-.15s-.35-.21-.46-.38-.19-.38-.26-.65l-.4-1.46c-.08-.29-.16-.51-.24-.67s-.19-.27-.32-.33c-.13-.06-.3-.09-.52-.09h-2.15l-.34-.73h2.6Z" style="fill: #231f20;"/>
      <path d="M196.61,179.73l-.1-.34c.31-.1.55-.2.73-.3.17-.1.29-.21.36-.33.07-.12.1-.24.1-.38,0-.17-.06-.32-.17-.43-.11-.11-.26-.17-.46-.17-.23,0-.42.06-.58.18-.16.12-.27.32-.35.58l-.31-.1c.06-.28.17-.51.31-.71.14-.2.32-.35.53-.46s.46-.16.74-.16c.26,0,.48.04.66.12.18.08.31.2.4.34.09.15.14.32.14.51s-.06.38-.17.54c-.11.16-.26.29-.45.39-.19.1-.4.17-.63.21l.06-.04c.33-.04.62-.02.87.05s.44.21.57.39c.14.18.2.4.2.67,0,.3-.09.58-.27.83-.18.25-.45.46-.8.62s-.77.23-1.26.23c-.25,0-.45-.02-.6-.07-.15-.05-.26-.11-.33-.19s-.1-.17-.1-.28c0-.11.03-.2.1-.27.07-.07.16-.1.28-.1.08,0,.15.02.21.05.06.04.13.08.19.13s.12.1.19.16.13.1.2.13.15.06.25.06c.16,0,.31-.04.45-.13.14-.09.25-.21.33-.38.08-.17.13-.37.13-.61s-.05-.42-.15-.56-.24-.24-.42-.28c-.18-.05-.38-.04-.61.02l-.22.06Z" style="fill: #231f20;"/>
    </g>
    <circle cx="101.79" cy="187.67" r="12.77" style="fill: #d1d3d4; stroke: #231f20; stroke-miterlimit: 10;"/>
    <g>
      <rect x="94.98" y="180.7" width="13.62" height="13.94" style="fill: none;"/>
      <path d="M98.11,181.22v7.43l.87.35v.26h-3.59v-.26l.87-.35v-6.82l-.87-.35v-.26h2.72ZM99.14,184.86c.44,0,.8-.12,1.07-.37.28-.25.41-.6.41-1.08,0-.31-.06-.57-.18-.79-.12-.22-.31-.38-.57-.5-.26-.11-.61-.17-1.04-.17h-2.23l.34-.74h2.75c.66,0,1.2.09,1.61.27.41.18.7.42.89.73s.28.64.28,1.01-.08.69-.25.98-.42.52-.75.7c-.33.18-.75.3-1.24.35v-.03c.38.02.68.07.9.16s.38.22.5.4c.12.18.22.4.31.68l.48,1.49c.08.26.17.46.25.57.08.12.18.19.29.22.11.03.25.04.42.04v.48c-.55.04-.99.05-1.34.04-.34-.01-.62-.06-.82-.15s-.35-.21-.46-.38-.19-.38-.26-.65l-.4-1.46c-.08-.29-.16-.51-.24-.67s-.19-.27-.32-.33c-.13-.06-.3-.09-.52-.09h-2.15l-.34-.73h2.6Z" style="fill: #231f20;"/>
      <path d="M106.48,188.54v4.37l.6.2v.15h-2.29v-.15l.64-.2v-3.66l.38-.16-1.82,2.35-.09-.21h2.99l.65-.1-.19.82h-3.85v-.43l2.21-2.97h.78Z" style="fill: #231f20;"/>
    </g>
    <circle cx="65.03" cy="189.08" r="12.77" style="fill: #d1d3d4; stroke: #231f20; stroke-miterlimit: 10;"/>
    <g>
      <rect x="58.22" y="182.11" width="13.62" height="13.94" style="fill: none;"/>
      <path d="M61.35,182.63v7.43l.87.35v.26h-3.59v-.26l.87-.35v-6.82l-.87-.35v-.26h2.72ZM62.38,186.27c.44,0,.8-.12,1.07-.37.28-.25.41-.6.41-1.08,0-.31-.06-.57-.18-.79-.12-.22-.31-.38-.57-.5-.26-.11-.61-.17-1.04-.17h-2.23l.34-.74h2.75c.66,0,1.2.09,1.61.27.41.18.7.42.89.73s.28.64.28,1.01-.08.69-.25.98-.42.52-.75.7c-.33.18-.75.3-1.24.35v-.03c.38.02.68.07.9.16s.38.22.5.4c.12.18.22.4.31.68l.48,1.49c.08.26.17.46.25.57.08.12.18.19.29.22.11.03.25.04.42.04v.48c-.55.04-.99.05-1.34.04-.34-.01-.62-.06-.82-.15s-.35-.21-.46-.38-.19-.38-.26-.65l-.4-1.46c-.08-.29-.16-.51-.24-.67s-.19-.27-.32-.33c-.13-.06-.3-.09-.52-.09h-2.15l-.34-.73h2.6Z" style="fill: #231f20;"/>
      <path d="M68.05,194.76c-.25,0-.45-.02-.6-.07s-.26-.11-.33-.2c-.07-.08-.1-.17-.1-.27,0-.12.04-.21.1-.28s.16-.1.28-.1c.07,0,.14.02.21.05s.13.08.19.13c.06.05.12.1.18.16.06.05.13.1.2.13s.15.05.24.05c.17,0,.34-.04.49-.11s.27-.18.36-.32c.09-.14.14-.31.14-.52,0-.13-.03-.24-.08-.36-.06-.11-.16-.21-.3-.3-.15-.09-.35-.16-.62-.22-.27-.06-.62-.1-1.04-.12l.71-2.45h1.45l.96-.13-.34,1.07h-2.05l.37-.51-.57,1.42-.06-.3c.39.03.73.08,1.01.15.28.07.51.15.69.25.18.1.32.21.42.33s.17.25.21.38c.04.13.06.27.06.42,0,.24-.05.46-.15.67-.1.21-.25.39-.44.54-.19.16-.42.28-.69.36-.27.09-.56.13-.89.13Z" style="fill: #231f20;"/>
    </g>
    <circle cx="52.26" cy="116.86" r="12.77" style="fill: #d1d3d4; stroke: #231f20; stroke-miterlimit: 10;"/>
    <g>
      <rect x="45.45" y="109.88" width="13.62" height="13.94" style="fill: none;"/>
      <path d="M48.58,110.41v7.43l.87.35v.26h-3.59v-.26l.87-.35v-6.82l-.87-.35v-.26h2.72ZM49.61,114.04c.44,0,.8-.12,1.07-.37.28-.25.41-.6.41-1.08,0-.31-.06-.57-.18-.79-.12-.22-.31-.38-.57-.5-.26-.11-.61-.17-1.04-.17h-2.23l.34-.74h2.75c.66,0,1.2.09,1.61.27.41.18.7.42.89.73s.28.64.28,1.01-.08.69-.25.98-.42.52-.75.7c-.33.18-.75.3-1.24.35v-.03c.38.02.68.07.9.16s.38.22.5.4c.12.18.22.4.31.68l.48,1.49c.08.26.17.46.25.57.08.12.18.19.29.22.11.03.25.04.42.04v.48c-.55.04-.99.05-1.34.04-.34-.01-.62-.06-.82-.15s-.35-.21-.46-.38-.19-.38-.26-.65l-.4-1.46c-.08-.29-.16-.51-.24-.67s-.19-.27-.32-.33c-.13-.06-.3-.09-.52-.09h-2.15l-.34-.73h2.6Z" style="fill: #231f20;"/>
      <path d="M57.3,117.59l.16.27c-.33.1-.61.22-.85.34-.24.12-.44.26-.61.41-.16.15-.3.32-.4.51-.1.19-.17.4-.21.63-.04.23-.06.5-.06.79,0,.35.03.65.09.89.06.24.14.42.26.54.12.12.26.18.42.18.16,0,.29-.04.39-.11.1-.07.18-.18.24-.33.05-.14.08-.32.08-.52,0-.34-.06-.59-.18-.75-.12-.16-.29-.24-.52-.24-.08,0-.17,0-.26.02-.09.01-.17.03-.26.05-.09.02-.17.06-.26.1-.08.04-.16.09-.24.15l-.26-.05c.25-.18.45-.32.62-.43.16-.11.31-.2.42-.26.12-.06.23-.1.33-.12.1-.02.21-.03.33-.03.26,0,.48.05.68.16.19.1.35.25.46.45s.17.43.17.71c0,.33-.08.61-.23.85s-.36.42-.63.55-.56.19-.9.19c-.4,0-.73-.08-1-.25s-.47-.4-.6-.69c-.13-.29-.2-.62-.2-.98,0-.26.03-.51.09-.76.06-.24.16-.47.29-.69.14-.22.32-.42.55-.62.23-.19.52-.37.87-.53.35-.16.76-.31,1.24-.43Z" style="fill: #231f20;"/>
    </g>
    <circle cx="65.03" cy="78.08" r="12.77" style="fill: #d1d3d4; stroke: #231f20; stroke-miterlimit: 10;"/>
    <g>
      <rect x="58.22" y="71.11" width="13.62" height="13.94" style="fill: none;"/>
      <path d="M61.35,71.63v7.43l.87.35v.26h-3.59v-.26l.87-.35v-6.82l-.87-.35v-.26h2.72ZM62.38,75.27c.44,0,.8-.12,1.07-.37.28-.25.41-.6.41-1.08,0-.31-.06-.57-.18-.79-.12-.22-.31-.38-.57-.5-.26-.11-.61-.17-1.04-.17h-2.23l.34-.74h2.75c.66,0,1.2.09,1.61.27.41.18.7.42.89.73s.28.64.28,1.01-.08.69-.25.98-.42.52-.75.7c-.33.18-.75.3-1.24.35v-.03c.38.02.68.07.9.16s.38.22.5.4c.12.18.22.4.31.68l.48,1.49c.08.26.17.46.25.57.08.12.18.19.29.22.11.03.25.04.42.04v.48c-.55.04-.99.05-1.34.04-.34-.01-.62-.06-.82-.15s-.35-.21-.46-.38-.19-.38-.26-.65l-.4-1.46c-.08-.29-.16-.51-.24-.67s-.19-.27-.32-.33c-.13-.06-.3-.09-.52-.09h-2.15l-.34-.73h2.6Z" style="fill: #231f20;"/>
      <path d="M68.83,78.89c.3,0,.56.04.78.13.22.09.38.21.5.38s.17.35.17.58c0,.3-.12.53-.37.71-.24.17-.59.3-1.03.38l-.15-.08c.26-.11.45-.24.59-.4.14-.16.2-.35.2-.58,0-.14-.03-.27-.09-.38-.06-.11-.15-.2-.26-.26-.11-.06-.25-.09-.42-.09-.25,0-.44.06-.57.19-.13.13-.19.27-.19.44s.05.3.14.41c.09.1.21.19.36.26.15.07.31.13.49.19.18.06.36.12.54.19.18.07.34.16.49.27.15.11.27.25.36.43.09.17.14.39.14.66,0,.31-.08.57-.24.79-.16.22-.38.38-.65.49-.27.11-.58.17-.91.17-.32,0-.6-.05-.86-.14-.26-.09-.46-.23-.61-.4-.15-.18-.23-.39-.23-.65,0-.19.04-.35.11-.49.07-.14.18-.26.32-.36.14-.1.3-.19.5-.27s.41-.15.64-.22l.09.12c-.22.1-.39.2-.52.31s-.22.23-.27.37c-.05.14-.08.3-.08.48,0,.2.04.37.12.5.08.13.19.23.34.3.14.07.31.1.5.1s.36-.03.5-.09c.14-.06.24-.15.32-.26s.11-.25.11-.4c0-.17-.05-.31-.14-.42-.09-.11-.21-.2-.36-.27-.15-.07-.31-.14-.49-.2-.18-.06-.35-.12-.53-.2-.18-.07-.34-.16-.49-.27-.15-.11-.27-.25-.36-.41-.09-.17-.14-.38-.14-.63,0-.27.07-.51.21-.71.14-.2.34-.36.58-.47.25-.11.53-.16.84-.16Z" style="fill: #231f20;"/>
    </g>
    <circle cx="106.72" cy="16.09" r="12.77" style="fill: #d1d3d4; stroke: #231f20; stroke-miterlimit: 10;"/>
    <g>
      <rect x="99.91" y="9.12" width="13.62" height="13.94" style="fill: none;"/>
      <path d="M103.04,9.64v7.43l.87.35v.26h-3.59v-.26l.87-.35v-6.82l-.87-.35v-.26h2.72ZM104.07,13.28c.44,0,.8-.12,1.07-.37.28-.25.41-.6.41-1.08,0-.31-.06-.57-.18-.79-.12-.22-.31-.38-.57-.5-.26-.11-.61-.17-1.04-.17h-2.23l.34-.74h2.75c.66,0,1.2.09,1.61.27.41.18.7.42.89.73s.28.64.28,1.01-.08.69-.25.98-.42.52-.75.7c-.33.18-.75.3-1.24.35v-.03c.38.02.68.07.9.16s.38.22.5.4c.12.18.22.4.31.68l.48,1.49c.08.26.17.46.25.57.08.12.18.19.29.22.11.03.25.04.42.04v.48c-.55.04-.99.05-1.34.04-.34-.01-.62-.06-.82-.15s-.35-.21-.46-.38-.19-.38-.26-.65l-.4-1.46c-.08-.29-.16-.51-.24-.67s-.19-.27-.32-.33c-.13-.06-.3-.09-.52-.09h-2.15l-.34-.73h2.6Z" style="fill: #231f20;"/>
      <path d="M109.33,21.84l-.16-.27c.3-.12.56-.24.78-.37.22-.13.4-.27.55-.42.15-.15.27-.32.36-.51.09-.19.15-.39.19-.62.04-.23.06-.48.06-.77,0-.36-.03-.65-.09-.89-.06-.24-.15-.42-.26-.54s-.26-.18-.42-.18c-.15,0-.28.04-.39.11-.1.07-.18.18-.23.32-.05.14-.08.3-.08.5,0,.24.03.43.09.58.06.15.14.25.25.32s.23.1.37.1c.08,0,.16,0,.24-.02.08,0,.17-.03.26-.05.09-.02.17-.05.26-.09.08-.04.17-.09.24-.15l.27.05c-.25.18-.46.32-.62.43-.17.11-.31.2-.42.25-.12.06-.22.1-.32.12-.1.02-.2.03-.31.03-.26,0-.49-.05-.68-.16-.2-.11-.35-.26-.46-.46s-.17-.43-.17-.7c0-.33.08-.61.23-.84s.36-.41.63-.54c.27-.12.57-.19.9-.19.4,0,.73.08,1,.25.27.17.46.4.59.69.13.29.2.62.2.99,0,.25-.03.5-.08.74-.05.24-.15.46-.28.68-.13.22-.3.42-.52.61s-.49.37-.81.54c-.32.17-.71.32-1.15.46Z" style="fill: #231f20;"/>
    </g>
    <circle cx="131.68" cy="85.37" r="12.77" style="fill: #d1d3d4; stroke: #231f20; stroke-miterlimit: 10;"/>
    <g>
      <rect x="123.21" y="78.4" width="18.92" height="13.94" style="fill: none;"/>
      <path d="M126.34,78.92v7.43l.87.35v.26h-3.59v-.26l.87-.35v-6.82l-.87-.35v-.26h2.72ZM127.37,82.55c.44,0,.8-.12,1.07-.37.28-.25.41-.6.41-1.08,0-.31-.06-.57-.18-.79-.12-.22-.31-.38-.57-.5-.26-.11-.61-.17-1.04-.17h-2.23l.34-.74h2.75c.66,0,1.2.09,1.61.27.41.18.7.42.89.73s.28.64.28,1.01-.08.69-.25.98-.42.52-.75.7c-.33.18-.75.3-1.24.35v-.03c.38.02.68.07.9.16s.38.22.5.4c.12.18.22.4.31.68l.48,1.49c.08.26.17.46.25.57.08.12.18.19.29.22.11.03.25.04.42.04v.48c-.55.04-.99.05-1.34.04-.34-.01-.62-.06-.82-.15s-.35-.21-.46-.38-.19-.38-.26-.65l-.4-1.46c-.08-.29-.16-.51-.24-.67s-.19-.27-.32-.33c-.13-.06-.3-.09-.52-.09h-2.15l-.34-.73h2.6Z" style="fill: #231f20;"/>
      <path d="M133.51,90.56v-3.75l.23.2-1.51.47-.09-.24,1.9-.99h.52v4.32l.88.23v.16h-2.88v-.16l.94-.23Z" style="fill: #231f20;"/>
      <path d="M138.06,86.18c.39,0,.73.1,1.01.29.28.2.5.47.65.84.15.36.23.8.23,1.3s-.08.94-.23,1.31-.37.65-.65.84c-.28.2-.62.29-1.01.29s-.73-.1-1.01-.29c-.28-.19-.5-.47-.65-.84-.15-.36-.23-.8-.23-1.3s.08-.94.23-1.31c.15-.36.37-.64.65-.84.28-.2.62-.29,1.01-.29ZM138.07,90.65c.17,0,.31-.07.42-.21s.2-.35.26-.63.09-.63.09-1.05c0-.37-.02-.69-.05-.96-.03-.27-.08-.5-.15-.68s-.15-.32-.25-.41c-.1-.09-.22-.13-.35-.13-.17,0-.31.07-.42.21-.12.14-.2.35-.26.63-.06.28-.09.63-.09,1.05,0,.37.02.69.05.96.03.27.08.5.15.68s.15.32.25.41c.1.09.22.13.36.13Z" style="fill: #231f20;"/>
    </g>
    <circle cx="118.91" cy="157" r="12.77" style="fill: #d1d3d4; stroke: #231f20; stroke-miterlimit: 10;"/>
    <g>
      <rect x="112.1" y="150.02" width="13.62" height="13.94" style="fill: none;"/>
      <path d="M115.23,150.54v7.43l.87.35v.26h-3.59v-.26l.87-.35v-6.82l-.87-.35v-.26h2.72ZM116.26,154.18c.44,0,.8-.12,1.07-.37.28-.25.41-.6.41-1.08,0-.31-.06-.57-.18-.79-.12-.22-.31-.38-.57-.5-.26-.11-.61-.17-1.04-.17h-2.23l.34-.74h2.75c.66,0,1.2.09,1.61.27.41.18.7.42.89.73s.28.64.28,1.01-.08.69-.25.98-.42.52-.75.7c-.33.18-.75.3-1.24.35v-.03c.38.02.68.07.9.16s.38.22.5.4c.12.18.22.4.31.68l.48,1.49c.08.26.17.46.25.57.08.12.18.19.29.22.11.03.25.04.42.04v.48c-.55.04-.99.05-1.34.04-.34-.01-.62-.06-.82-.15s-.35-.21-.46-.38-.19-.38-.26-.65l-.4-1.46c-.08-.29-.16-.51-.24-.67s-.19-.27-.32-.33c-.13-.06-.3-.09-.52-.09h-2.15l-.34-.73h2.6Z" style="fill: #231f20;"/>
      <path d="M121.2,158.83l.78-.4-.86,1.08h-.18l.24-1.78h.1l.48.16h2.69v.1l-1.61,4.59h-1.09l2.28-4.26-.09.51h-2.75Z" style="fill: #231f20;"/>
    </g>
    <g>
      <rect x="189.03" y="43.83" width="13.62" height="13.94" style="fill: none;"/>
      <path d="M197.23,51.33l.2.58v.06c-.32.13-.66.24-1.02.32-.36.09-.73.15-1.12.19s-.8.06-1.22.06c-.74,0-1.4-.09-1.97-.28-.57-.19-1.05-.46-1.44-.81-.39-.36-.69-.79-.88-1.29-.2-.51-.3-1.08-.3-1.72,0-.84.2-1.58.59-2.22.39-.64.95-1.13,1.69-1.49.73-.36,1.61-.53,2.62-.53.28,0,.55.02.81.04.26.03.57.08.92.17l-.5.11.81-.59h.23l.43,3-.38.08-1.3-2.06.63.65c-.3-.22-.6-.38-.9-.49-.31-.11-.65-.16-1.03-.16-.44,0-.82.06-1.16.19s-.61.31-.84.56-.4.56-.52.94-.17.82-.17,1.32c0,.84.13,1.55.38,2.11.25.57.6.99,1.04,1.28s.94.43,1.49.43c.24,0,.46-.02.68-.06s.41-.1.6-.19.35-.18.48-.3l-.69.9v-2.71l-.94-.36v-.26h3.59v.26l-.8.35v1.92Z" style="fill: #231f20;"/>
    </g>
    <g>
      <rect x="206.86" y="75.28" width="17.05" height="13.94" style="fill: none;"/>
      <path d="M213.09,79.65l.12.34v.04c-.19.07-.39.14-.59.19-.21.05-.43.09-.65.11-.23.02-.46.04-.71.04-.43,0-.82-.05-1.15-.16-.33-.11-.61-.27-.84-.47s-.4-.46-.52-.75c-.12-.3-.17-.63-.17-1,0-.49.11-.92.34-1.3s.56-.66.98-.87c.43-.21.94-.31,1.53-.31.16,0,.32,0,.47.03.15.02.33.05.54.1l-.29.07.47-.35h.13l.25,1.75-.22.05-.76-1.2.37.38c-.17-.13-.35-.22-.53-.29-.18-.06-.38-.09-.6-.09-.25,0-.48.04-.67.11-.19.07-.36.18-.49.33-.13.15-.23.33-.3.55-.07.22-.1.48-.1.77,0,.49.07.9.22,1.23s.35.58.61.74.55.25.87.25c.14,0,.27-.01.39-.04s.24-.06.35-.11.2-.11.28-.18l-.4.52v-1.58l-.55-.21v-.15h2.1v.15l-.47.2v1.12Z" style="fill: #231f20;"/>
      <path d="M217.09,75.42l.16.27c-.33.1-.61.22-.85.34-.24.12-.44.26-.61.41-.16.15-.3.32-.4.51-.1.19-.17.4-.22.64s-.06.5-.06.79c0,.36.03.65.09.89.06.24.14.42.26.54s.26.18.42.18c.16,0,.29-.04.39-.11.11-.07.18-.18.24-.33s.08-.32.08-.53c0-.34-.06-.59-.18-.75-.12-.16-.29-.24-.52-.24-.08,0-.17,0-.26.02-.09.01-.17.03-.26.05-.09.02-.17.06-.26.1s-.16.09-.24.15l-.26-.05c.25-.18.45-.32.62-.43.17-.11.31-.2.42-.26.12-.06.23-.1.33-.12.1-.02.21-.03.33-.03.26,0,.48.05.68.16.19.11.35.25.46.45.11.19.17.43.17.71,0,.33-.08.61-.23.85s-.36.42-.63.55-.56.19-.9.19c-.4,0-.73-.08-1-.25s-.47-.4-.6-.69c-.13-.29-.2-.62-.2-.98,0-.26.03-.51.09-.76.06-.24.16-.47.29-.69.14-.22.32-.42.55-.62s.52-.37.87-.53.76-.3,1.24-.43Z" style="fill: #231f20;"/>
      <path d="M219.77,75.58v4.33l.51.2v.15h-2.1v-.15l.51-.2v-3.98l-.51-.2v-.15h1.59ZM221.31,76.95c0-.2-.04-.37-.11-.51s-.2-.25-.36-.32-.38-.11-.66-.11h-1.11l.02-.43h1.48c.43,0,.78.06,1.05.18.27.12.46.28.58.49.12.21.18.43.18.68s-.06.49-.19.7c-.13.21-.32.38-.59.51-.27.13-.61.19-1.04.19h-1.48l-.02-.43h1.3c.19,0,.35-.04.49-.11.14-.07.25-.18.33-.32.08-.14.12-.31.12-.52Z" style="fill: #231f20;"/>
    </g>
    <circle cx="221.95" cy="150.76" r="12.77" style="fill: #fff; stroke: #231f20; stroke-miterlimit: 10;"/>
    <g>
      <rect x="213.43" y="147.64" width="17.05" height="13.94" style="fill: none;"/>
      <path d="M217.22,147.95v4.33l.51.2v.15h-2.1v-.15l.51-.2v-3.98l-.51-.2v-.15h1.59ZM219.24,147.71h.1l.28,1.59-.2.05-.76-1.14.38.16h-2.42v-.43h2.18l.43-.23ZM218.71,149.39v1.83h-.34l-.08-.7h-1.61v-.43h1.61l.08-.7h.34Z" style="fill: #231f20;"/>
      <path d="M223.13,147.78l.16.27c-.33.1-.61.22-.85.34-.24.12-.44.26-.61.41-.17.15-.3.32-.4.51-.1.19-.17.4-.21.64-.04.23-.07.5-.07.79,0,.36.03.65.09.89.06.24.14.42.26.54.12.12.26.18.42.18.16,0,.29-.04.39-.11.1-.07.18-.18.24-.33.05-.14.08-.32.08-.53,0-.34-.06-.59-.18-.75-.12-.16-.29-.24-.52-.24-.08,0-.17,0-.25.02-.09.01-.17.03-.26.05s-.17.06-.26.1c-.08.04-.16.09-.24.15l-.26-.05c.25-.18.45-.32.62-.43.16-.11.3-.2.42-.26.12-.06.22-.1.33-.12s.21-.03.33-.03c.26,0,.48.05.68.16.2.11.35.25.46.45.11.19.17.43.17.71,0,.33-.08.61-.23.85-.15.24-.36.42-.63.55s-.56.19-.9.19c-.4,0-.73-.08-1-.25-.27-.17-.47-.4-.6-.69-.13-.29-.2-.62-.2-.98,0-.26.03-.51.09-.76.06-.24.16-.47.29-.69.14-.22.32-.42.55-.62s.52-.37.87-.53.76-.3,1.24-.43Z" style="fill: #231f20;"/>
      <path d="M225.8,147.95v4.33l.51.2v.15h-2.1v-.15l.51-.2v-3.98l-.51-.2v-.15h1.59ZM227.34,149.32c0-.2-.04-.37-.11-.51s-.2-.25-.36-.32-.38-.11-.66-.11h-1.11l.02-.43h1.48c.43,0,.78.06,1.05.18.27.12.46.28.58.49.12.21.18.43.18.68s-.06.49-.19.7c-.13.21-.32.38-.59.51-.27.13-.61.19-1.04.19h-1.48l-.02-.43h1.3c.19,0,.35-.04.49-.11.14-.07.25-.18.33-.32.08-.14.12-.31.12-.52Z" style="fill: #231f20;"/>
    </g>
    <circle cx="136.2" cy="122.66" r="12.77" style="fill: #fff; stroke: #231f20; stroke-miterlimit: 10;"/>
    <g>
      <rect x="127.67" y="119.54" width="17.05" height="13.94" style="fill: none;"/>
      <path d="M134.07,124.16l.52.21v.15h-2.25v-.15l.58-.21-1.48-3.51h.15l-1.4,3.51.54.21v.15h-1.56v-.15l.54-.21,1.8-4.35h.69l1.89,4.35ZM130.44,122.97v-.41h2.38v.41h-2.38Z" style="fill: #231f20;"/>
      <path d="M137.99,120.27h-3.71l.44-.12-.61,1.1-.22-.05.15-1.62h.13l.6.34-.41-.08h3.55l-.28.08.6-.34h.13l.15,1.62-.22.05-.61-1.1.31.12ZM135.64,120.07h1.08v4.1l.51.2v.15h-2.1v-.15l.51-.2v-4.1Z" style="fill: #231f20;"/>
      <path d="M140.45,119.84v4.33l.51.2v.15h-2.1v-.15l.51-.2v-3.98l-.51-.2v-.15h1.59ZM141.99,121.21c0-.2-.04-.37-.11-.51-.08-.14-.2-.25-.36-.32-.17-.07-.39-.11-.66-.11h-1.11l.02-.43h1.48c.43,0,.78.06,1.05.18s.46.28.58.49.18.43.18.68-.06.49-.19.7c-.13.21-.32.38-.59.51s-.61.19-1.04.19h-1.48l-.02-.43h1.3c.19,0,.35-.04.49-.11s.25-.18.33-.32c.08-.14.12-.31.12-.52Z" style="fill: #231f20;"/>
    </g>
    <circle cx="181.33" cy="120.78" r="12.77" style="fill: #fff; stroke: #231f20; stroke-miterlimit: 10;"/>
    <g>
      <rect x="172.8" y="117.66" width="17.05" height="13.94" style="fill: none;"/>
      <path d="M178.58,122.29l.52.21v.15h-2.25v-.15l.58-.21-1.48-3.51h.15l-1.4,3.51.54.21v.15h-1.56v-.15l.54-.21,1.8-4.35h.69l1.89,4.35ZM174.95,121.1v-.41h2.38v.41h-2.38Z" style="fill: #231f20;"/>
      <path d="M179.24,122.66v-.15l.51-.2v-3.98l-.51-.2v-.15h1.59v4.69h-1.59ZM183.05,120.25c0-.64-.16-1.11-.47-1.41-.31-.3-.75-.45-1.29-.45h-.96l-.09-.43h1.22c.61,0,1.12.08,1.52.24s.71.4.91.73c.2.33.3.74.3,1.23,0,.53-.12.97-.36,1.34-.24.37-.56.65-.97.85s-.88.29-1.39.29h-1.23l.09-.43h1.03c.34,0,.64-.07.89-.2.26-.13.45-.35.6-.64.14-.29.21-.67.21-1.14Z" style="fill: #231f20;"/>
      <path d="M186.2,117.97v4.33l.51.2v.15h-2.1v-.15l.51-.2v-3.98l-.51-.2v-.15h1.59ZM187.74,119.34c0-.2-.04-.37-.11-.51-.08-.14-.2-.25-.36-.32-.17-.07-.39-.11-.66-.11h-1.11l.02-.43h1.48c.43,0,.78.06,1.05.18s.46.28.58.49.18.43.18.68-.06.49-.19.7c-.13.21-.32.38-.59.51s-.61.19-1.04.19h-1.48l-.02-.43h1.3c.19,0,.35-.04.49-.11s.25-.18.33-.32c.08-.14.12-.31.12-.52Z" style="fill: #231f20;"/>
    </g>
    <circle cx="13.27" cy="127.09" r="12.77" style="fill: #fff; stroke: #231f20; stroke-miterlimit: 10;"/>
    <g>
      <rect x="4.75" y="123.97" width="17.05" height="13.94" style="fill: none;"/>
      <path d="M6.09,127.28v-2.79l-.41-.21v-.1h1.25l1.81,2.55-.2.12v-2.42l-.4-.15v-.11h1.06v.11l-.36.15v3.11h-.47l-2.1-3,.12-.09v2.82l.4.14v.11h-1.06v-.11l.36-.14Z" style="fill: #231f20;"/>
      <path d="M12.72,127.27l.37.15v.11h-1.61v-.11l.41-.15-1.06-2.5h.1l-1,2.5.39.15v.11h-1.12v-.11l.38-.15,1.29-3.11h.49l1.35,3.1ZM10.13,126.42v-.29h1.7v.29h-1.7Z" style="fill: #231f20;"/>
      <path d="M13.2,127.54v-.11l.36-.14v-2.84l-.36-.15v-.11h1.14v3.35h-1.14ZM15.92,125.82c0-.46-.11-.79-.34-1.01-.22-.21-.53-.32-.92-.32h-.69l-.06-.31h.87c.44,0,.8.06,1.09.17.29.12.51.29.65.52.14.23.21.53.21.88,0,.38-.08.7-.25.96-.17.26-.4.47-.7.61-.29.14-.63.21-1,.21h-.88l.06-.31h.73c.24,0,.46-.05.64-.14.18-.1.32-.25.43-.46s.15-.48.15-.81Z" style="fill: #231f20;"/>
      <path d="M18.17,127.28l.36.14v.11h-1.5v-.11l.36-.14v-2.84l-.36-.15v-.11h1.5v.11l-.36.15v2.84ZM17.74,125.98v-.31h2.38v.31h-2.38ZM20.47,127.28l.36.14v.11h-1.5v-.11l.36-.14v-2.84l-.36-.15v-.11h1.5v.11l-.36.15v2.84Z" style="fill: #231f20;"/>
    </g>
    <circle cx="34.57" cy="154.61" r="12.77" style="fill: #fff; stroke: #231f20; stroke-miterlimit: 10;"/>
    <g>
      <rect x="26.05" y="151.49" width="17.05" height="13.94" style="fill: none;"/>
      <path d="M27.52,155.47v-3.35l-.49-.25v-.12h1.5l2.18,3.06-.24.15v-2.9l-.48-.17v-.13h1.27v.13l-.44.17v3.74h-.57l-2.52-3.6.15-.11v3.38l.48.17v.13h-1.27v-.13l.44-.17Z" style="fill: #231f20;"/>
      <path d="M35.49,155.46l.44.18v.13h-1.93v-.13l.5-.18-1.27-3.01h.13l-1.2,3.01.47.18v.13h-1.34v-.13l.46-.18,1.54-3.73h.59l1.62,3.73ZM32.37,154.44v-.35h2.04v.35h-2.04Z" style="fill: #231f20;"/>
      <path d="M36.06,155.78v-.13l.44-.17v-3.41l-.44-.17v-.13h1.36v4.02h-1.36ZM39.32,153.72c0-.55-.13-.95-.4-1.21s-.64-.38-1.11-.38h-.83l-.08-.37h1.04c.52,0,.96.07,1.31.21.35.14.61.35.78.63.17.28.26.63.26,1.06,0,.45-.1.83-.31,1.15s-.48.56-.84.73-.75.25-1.2.25h-1.05l.08-.37h.88c.29,0,.55-.06.77-.17.22-.12.39-.3.51-.55.12-.25.18-.57.18-.97Z" style="fill: #231f20;"/>
      <path d="M42.05,152.91v.21h-1.32v-.21h1.32ZM41.29,152.36h.21v1.32h-.21v-1.32Z" style="fill: #231f20;"/>
    </g>
    <circle cx="103.12" cy="92.59" r="12.77" style="fill: #fff; stroke: #231f20; stroke-miterlimit: 10;"/>
    <g>
      <rect x="94.59" y="89.47" width="17.05" height="13.94" style="fill: none;"/>
      <path d="M97.36,92.3l-.1-.34c.31-.1.55-.2.73-.3.17-.1.29-.21.36-.33.07-.12.1-.24.1-.38,0-.17-.06-.32-.17-.43s-.26-.17-.46-.17c-.23,0-.42.06-.58.18s-.27.32-.35.58l-.32-.1c.07-.28.17-.51.31-.71s.32-.35.53-.46c.21-.11.46-.16.74-.16.26,0,.48.04.66.12.18.08.31.2.4.34.09.15.14.32.14.51s-.06.38-.17.54c-.11.16-.26.29-.45.39-.19.1-.4.17-.63.21l.06-.04c.33-.04.62-.02.87.05.25.08.44.21.57.39.14.18.2.4.2.67,0,.3-.09.58-.27.83-.18.26-.45.46-.8.62-.35.16-.77.23-1.27.23-.25,0-.45-.02-.6-.07s-.26-.11-.33-.19c-.07-.08-.1-.17-.1-.28,0-.11.03-.2.1-.27.07-.07.16-.1.28-.1.08,0,.15.02.21.05.06.04.13.08.19.13.06.05.12.1.19.16s.13.1.2.13.15.06.25.06c.16,0,.31-.04.45-.13.14-.08.25-.21.33-.38s.13-.37.13-.61-.05-.42-.15-.56c-.1-.14-.24-.24-.42-.28-.18-.05-.38-.04-.61.02l-.22.06Z" style="fill: #231f20;"/>
      <path d="M102.14,89.77v4.33l.51.2v.15h-2.1v-.15l.51-.2v-3.98l-.51-.2v-.15h1.59ZM103.68,91.15c0-.2-.04-.37-.11-.51-.08-.14-.2-.25-.36-.32-.17-.07-.39-.11-.66-.11h-1.11l.02-.43h1.48c.43,0,.78.06,1.05.18s.46.28.58.49.18.43.18.68-.06.49-.19.7c-.13.21-.32.38-.59.51s-.61.19-1.04.19h-1.48l-.02-.43h1.3c.19,0,.35-.04.49-.11s.25-.18.33-.32c.08-.14.12-.31.12-.52Z" style="fill: #231f20;"/>
      <path d="M109.68,93.85l.12.34v.04c-.19.07-.39.14-.59.19-.21.05-.43.09-.65.11-.23.02-.46.04-.71.04-.43,0-.82-.05-1.15-.16-.33-.11-.61-.27-.84-.47s-.4-.46-.52-.75c-.12-.3-.18-.63-.18-1,0-.49.11-.92.34-1.3s.56-.66.98-.87c.43-.21.94-.31,1.53-.31.16,0,.32,0,.47.03.15.02.33.05.54.1l-.29.07.47-.35h.13l.25,1.75-.22.05-.76-1.2.37.38c-.17-.13-.35-.22-.53-.29-.18-.06-.38-.09-.6-.09-.25,0-.48.04-.67.11-.19.07-.36.18-.49.33-.13.15-.23.33-.3.55-.07.22-.1.48-.1.77,0,.49.07.9.22,1.23.15.33.35.58.61.74s.55.25.87.25c.14,0,.27-.01.39-.04.12-.02.24-.06.35-.11s.2-.11.28-.18l-.4.52v-1.58l-.55-.21v-.15h2.1v.15l-.47.2v1.12Z" style="fill: #231f20;"/>
    </g>
    <circle cx="80.78" cy="40.27" r="12.77" style="fill: #fff; stroke: #231f20; stroke-miterlimit: 10;"/>
    <g>
      <rect x="72.26" y="37.15" width="17.05" height="13.94" style="fill: none;"/>
      <path d="M76.47,41.6l.92-1.11h.18l-.3,1.8h-.11l-.44-.16h-2.62v-.11l1.24-1.43c.21-.24.38-.46.5-.64.12-.19.21-.35.26-.51.05-.15.08-.29.08-.43,0-.25-.07-.45-.22-.6s-.34-.23-.58-.23c-.16,0-.31.03-.45.09-.14.06-.26.15-.36.27-.1.13-.19.29-.25.5l-.29-.07c.12-.55.33-.96.64-1.23.31-.27.69-.41,1.14-.41.28,0,.53.05.75.17.21.11.38.26.5.46.12.2.18.42.18.68,0,.16-.02.31-.07.45-.05.14-.12.29-.23.44-.11.15-.26.32-.45.51-.19.19-.43.4-.71.65l-.83.77-.02-.28h2.31l-.79.4Z" style="fill: #231f20;"/>
      <path d="M79.81,37.45v4.33l.51.2v.15h-2.1v-.15l.51-.2v-3.98l-.51-.2v-.15h1.59ZM81.35,38.82c0-.2-.04-.37-.11-.51-.08-.14-.2-.25-.36-.32-.17-.07-.39-.11-.66-.11h-1.11l.02-.43h1.48c.43,0,.78.06,1.05.18s.46.28.58.49.18.43.18.68-.06.49-.19.7c-.13.21-.32.38-.59.51s-.61.19-1.04.19h-1.48l-.02-.43h1.3c.19,0,.35-.04.49-.11s.25-.18.33-.32c.08-.14.12-.31.12-.52Z" style="fill: #231f20;"/>
      <path d="M87.35,41.52l.12.34v.04c-.19.07-.39.14-.59.19-.21.05-.43.09-.65.11-.23.02-.46.04-.71.04-.43,0-.82-.05-1.15-.16-.33-.11-.61-.27-.84-.47s-.4-.46-.52-.75c-.12-.3-.18-.63-.18-1,0-.49.11-.92.34-1.3s.56-.66.98-.87c.43-.21.94-.31,1.53-.31.16,0,.32,0,.47.03.15.02.33.05.54.1l-.29.07.47-.35h.13l.25,1.75-.22.05-.76-1.2.37.38c-.17-.13-.35-.22-.53-.29-.18-.06-.38-.09-.6-.09-.25,0-.48.04-.67.11-.19.07-.36.18-.49.33-.13.15-.23.33-.3.55-.07.22-.1.48-.1.77,0,.49.07.9.22,1.23.15.33.35.58.61.74s.55.25.87.25c.14,0,.27-.01.39-.04.12-.02.24-.06.35-.11s.2-.11.28-.18l-.4.52v-1.58l-.55-.21v-.15h2.1v.15l-.47.2v1.12Z" style="fill: #231f20;"/>
    </g>
    <circle cx="107.07" cy="54.27" r="12.77" style="fill: #fff; stroke: #231f20; stroke-miterlimit: 10;"/>
    <g>
      <rect x="98.55" y="51.15" width="17.05" height="13.94" style="fill: none;"/>
      <path d="M102.07,51.45v4.33l.51.2v.15h-2.1v-.15l.51-.2v-3.98l-.51-.2v-.15h1.59ZM103.61,52.83c0-.2-.04-.37-.11-.51-.08-.14-.2-.25-.36-.32-.17-.07-.39-.11-.66-.11h-1.11l.02-.43h1.48c.43,0,.78.06,1.05.18s.46.28.58.49.18.43.18.68-.06.49-.19.7c-.13.21-.32.38-.59.51s-.61.19-1.04.19h-1.48l-.02-.43h1.3c.19,0,.35-.04.49-.11s.25-.18.33-.32c.08-.14.12-.31.12-.52Z" style="fill: #231f20;"/>
      <path d="M104.99,56.14v-.15l.51-.2v-3.98l-.51-.2v-.15h1.59v4.69h-1.59ZM109.07,52.82l-.2.05-.76-1.14.29.16h-2.37v-.43h2.22l.43-.23h.1l.28,1.59ZM108.1,52.77v1.83h-.34l-.08-.7h-1.66v-.43h1.66l.08-.7h.34ZM108.23,55.87l.81-1.24.18.05-.29,1.72h-.12l-.47-.26h-2.31v-.43h2.42l-.22.16Z" style="fill: #231f20;"/>
      <path d="M111.2,51.45v4.33l.51.2v.15h-2.1v-.15l.51-.2v-3.98l-.51-.2v-.15h1.59ZM112.74,52.83c0-.2-.04-.37-.11-.51-.08-.14-.2-.25-.36-.32-.17-.07-.39-.11-.66-.11h-1.11l.02-.43h1.48c.43,0,.78.06,1.05.18s.46.28.58.49.18.43.18.68-.06.49-.19.7c-.13.21-.32.38-.59.51s-.61.19-1.04.19h-1.48l-.02-.43h1.3c.19,0,.35-.04.49-.11s.25-.18.33-.32c.08-.14.12-.31.12-.52Z" style="fill: #231f20;"/>
    </g>
    <circle cx="144.72" cy="37.15" r="12.77" style="fill: #fff; stroke: #231f20; stroke-miterlimit: 10;"/>
    <g>
      <rect x="136.2" y="34.03" width="17.05" height="13.94" style="fill: none;"/>
      <path d="M140.81,34.33v4.33l.51.2v.15h-2.1v-.15l.51-.2v-3.98l-.51-.2v-.15h1.59ZM142.35,35.7c0-.2-.04-.37-.11-.51-.08-.14-.2-.25-.36-.32-.17-.07-.39-.11-.66-.11h-1.11l.02-.43h1.48c.43,0,.78.06,1.05.18s.46.28.58.49.18.43.18.68-.06.49-.19.7c-.13.21-.32.38-.59.51s-.61.19-1.04.19h-1.48l-.02-.43h1.3c.19,0,.35-.04.49-.11s.25-.18.33-.32c.08-.14.12-.31.12-.52Z" style="fill: #231f20;"/>
      <path d="M146.09,38.37l-.47,1.12-1.55-3.16-.41-.18v-.15h1.88v.16l-.39.13.95,2.08ZM144.55,40.88c-.15,0-.28-.04-.37-.12-.1-.08-.15-.19-.15-.34,0-.08.02-.14.05-.2.03-.06.07-.1.12-.13.05-.03.09-.05.13-.05.04,0,.09,0,.13.03.04.02.09.04.15.06.05.02.12.03.2.03.07,0,.14-.01.2-.04.06-.03.12-.07.18-.14.06-.07.12-.17.18-.3l.41-.9.17-.4.74-2.09-.37-.12v-.16h1.15v.16l-.34.13-1.41,3.43c-.13.32-.25.56-.37.73s-.23.28-.36.34c-.13.06-.28.09-.45.09Z" style="fill: #231f20;"/>
      <path d="M149.05,36.61v2.07l.48.2v.14h-1.88v-.14l.43-.19v-1.94c-.04-.05-.08-.1-.12-.14-.05-.04-.1-.07-.15-.1-.06-.03-.12-.06-.18-.08v-.13l1.22-.41h.12l.09.71ZM150.01,35.94c.15,0,.26.04.32.12s.09.18.09.29c0,.16-.05.29-.15.37-.1.08-.22.12-.34.12-.1,0-.17-.01-.23-.03-.06-.02-.12-.04-.17-.06-.05-.02-.12-.03-.19-.03-.05,0-.1,0-.16.02-.05.01-.1.03-.15.06-.05.03-.1.06-.14.1l-.08-.18c.12-.13.24-.25.35-.35.11-.1.21-.18.31-.24.1-.06.2-.11.29-.14.09-.03.18-.05.26-.05Z" style="fill: #231f20;"/>
    </g>
    <circle cx="61.88" cy="13.27" r="12.77" style="fill: #fff; stroke: #231f20; stroke-miterlimit: 10;"/>
    <g>
      <rect x="53.35" y="10.15" width="17.05" height="13.94" style="fill: none;"/>
      <path d="M56.82,14.79l.51.2v.15h-2.1v-.15l.51-.2v-3.98l-.51-.2v-.15h2.1v.15l-.51.2v3.98ZM56.23,12.97v-.43h3.34v.43h-3.34ZM60.04,14.79l.51.2v.15h-2.1v-.15l.51-.2v-3.98l-.51-.2v-.15h2.1v.15l-.51.2v3.98Z" style="fill: #231f20;"/>
      <path d="M62.42,17.16l.53-.64h.11l-.17,1.05h-.06l-.26-.09h-1.53v-.06l.72-.83c.12-.14.22-.27.29-.38s.12-.21.15-.29c.03-.09.05-.17.05-.25,0-.15-.04-.26-.13-.35-.08-.09-.2-.13-.34-.13-.1,0-.18.02-.26.05-.08.03-.15.09-.21.16-.06.07-.11.17-.15.29l-.17-.04c.07-.32.19-.56.37-.72.18-.16.4-.24.67-.24.16,0,.31.03.43.1.13.06.22.15.29.27s.11.25.11.4c0,.09-.01.18-.04.26-.03.08-.07.17-.14.26-.06.09-.15.19-.26.3s-.25.23-.41.38l-.49.45v-.16s1.33,0,1.33,0l-.46.23Z" style="fill: #231f20;"/>
      <path d="M66.08,10.37c.36,0,.69.06.99.17.3.12.55.28.76.49s.38.47.49.77c.12.3.17.63.17,1s-.06.69-.18.99-.3.56-.52.77c-.22.22-.49.38-.8.5-.31.12-.64.18-1.01.18s-.69-.06-.99-.17-.55-.28-.76-.49c-.21-.21-.38-.47-.49-.77-.12-.3-.17-.63-.17-.99s.06-.69.18-.99c.12-.3.3-.56.52-.77.22-.22.49-.38.8-.5.31-.12.64-.18,1.01-.18ZM66.06,14.78c.25,0,.48-.06.68-.19.2-.13.35-.33.46-.59.11-.26.17-.59.17-.99,0-.48-.06-.89-.17-1.21s-.28-.56-.48-.73c-.21-.16-.44-.24-.71-.24-.25,0-.48.07-.68.19-.2.13-.35.33-.46.59-.11.26-.17.59-.17.99,0,.48.06.88.17,1.21.12.32.28.57.48.73.21.16.44.24.71.24Z" style="fill: #231f20;"/>
    </g>
    <circle cx="148.97" cy="180.7" r="12.77" style="fill: #fff; stroke: #231f20; stroke-miterlimit: 10;"/>
    <g>
      <rect x="140.45" y="173.73" width="17.05" height="13.94" style="fill: none;"/>
      <path d="M143.48,174.03v4.33l.51.2v.15h-2.1v-.15l.51-.2v-3.98l-.51-.2v-.15h1.59ZM145.5,173.8h.1l.28,1.59-.2.05-.76-1.14.38.16h-2.42v-.43h2.18l.43-.23ZM144.97,175.47v1.83h-.34l-.08-.7h-1.61v-.43h1.61l.08-.7h.34Z" style="fill: #231f20;"/>
      <path d="M147.83,178.33v-3.75l.23.2-1.51.47-.09-.24,1.9-.99h.52v4.32l.88.23v.16h-2.88v-.16l.94-.23Z" style="fill: #231f20;"/>
      <path d="M150.46,179.79c.21-.19.36-.35.44-.5s.13-.27.13-.38c0-.09-.03-.17-.08-.24-.05-.06-.12-.12-.19-.17-.07-.05-.13-.09-.19-.14-.05-.04-.08-.09-.08-.14,0-.16.05-.3.16-.41s.25-.17.42-.17c.18,0,.33.06.44.18s.16.29.16.5c0,.13-.02.25-.05.38-.03.13-.08.26-.16.39-.07.14-.17.28-.3.43-.13.15-.29.31-.5.48l-.22-.22Z" style="fill: #231f20;"/>
      <path d="M155.44,173.87l.16.27c-.33.1-.61.22-.85.34-.24.12-.44.26-.61.41s-.3.32-.4.51c-.1.19-.17.4-.22.64-.04.23-.06.5-.06.79,0,.36.03.65.09.89s.14.42.26.54c.12.12.26.18.42.18.16,0,.29-.04.39-.11.1-.07.18-.18.24-.33.05-.14.08-.32.08-.53,0-.34-.06-.59-.18-.75-.12-.16-.29-.24-.52-.24-.08,0-.17,0-.26.02s-.17.03-.26.05c-.09.02-.17.06-.26.1-.08.04-.16.09-.24.15l-.26-.05c.25-.18.45-.32.62-.43.16-.11.31-.2.42-.26s.23-.1.33-.12c.1-.02.21-.03.33-.03.26,0,.48.05.68.16.19.11.35.25.46.45.11.19.17.43.17.71,0,.33-.08.61-.23.85-.15.24-.36.42-.63.55s-.56.19-.9.19c-.4,0-.73-.08-1-.25-.27-.17-.47-.4-.6-.69-.13-.29-.2-.62-.2-.98,0-.26.03-.51.09-.76.06-.24.16-.47.29-.69.14-.22.32-.42.55-.62s.52-.37.87-.53.76-.3,1.24-.43Z" style="fill: #231f20;"/>
      <path d="M144.55,187.12v-.15l.51-.2v-3.98l-.51-.2v-.15h1.59v4.69h-1.59ZM145.65,182.86l.05-.43h1.39c.36,0,.66.05.88.15s.39.23.49.4c.1.17.16.36.16.57,0,.29-.1.53-.3.73-.2.2-.47.31-.81.34v-.05c.44.02.78.14,1.03.37s.37.5.37.84c0,.26-.06.49-.19.7-.12.21-.32.37-.59.48-.27.12-.61.18-1.04.18h-1.4l-.06-.43h1.11c.21,0,.39-.03.55-.1s.27-.17.35-.31c.08-.14.12-.32.12-.54,0-.17-.04-.33-.1-.46-.07-.13-.18-.24-.32-.31-.15-.08-.33-.11-.56-.11h-1.14v-.43h1.11c.24,0,.43-.07.57-.2.14-.13.21-.34.21-.61,0-.15-.03-.28-.09-.39-.06-.11-.16-.2-.28-.26-.13-.06-.29-.09-.48-.09h-1.02Z" style="fill: #231f20;"/>
      <path d="M150.92,182.43v4.33l.51.2v.15h-2.1v-.15l.51-.2v-3.98l-.51-.2v-.15h1.59ZM152.46,183.8c0-.2-.04-.37-.11-.51-.08-.14-.2-.25-.36-.32-.17-.07-.39-.11-.66-.11h-1.11l.02-.43h1.48c.43,0,.78.06,1.05.18s.46.28.58.49.18.43.18.68-.06.49-.19.7c-.13.21-.32.38-.59.51s-.61.19-1.04.19h-1.48l-.02-.43h1.3c.19,0,.35-.04.49-.11s.25-.18.33-.32c.08-.14.12-.31.12-.52Z" style="fill: #231f20;"/>
    </g>
    <circle cx="74.65" cy="152.64" r="12.77" style="fill: #fff; stroke: #231f20; stroke-miterlimit: 10;"/>
    <g>
      <rect x="66.13" y="149.8" width="17.05" height="13.94" style="fill: none;"/>
      <path d="M71.93,154.17l.12.34v.04c-.19.07-.39.14-.59.19-.21.05-.43.09-.65.11-.23.02-.46.04-.71.04-.43,0-.82-.05-1.15-.16-.33-.11-.61-.27-.84-.47s-.4-.46-.52-.75c-.12-.3-.18-.63-.18-1,0-.49.11-.92.34-1.3s.56-.66.98-.87c.43-.21.94-.31,1.53-.31.16,0,.32,0,.47.03.15.02.33.05.54.1l-.29.07.47-.35h.13l.25,1.75-.22.05-.76-1.2.37.38c-.17-.13-.35-.22-.53-.29-.18-.06-.38-.09-.6-.09-.25,0-.48.04-.67.11-.19.07-.36.18-.49.33-.13.15-.23.33-.3.55-.07.22-.1.48-.1.77,0,.49.07.9.22,1.23.15.33.35.58.61.74s.55.25.87.25c.14,0,.27-.01.39-.04.12-.02.24-.06.35-.11s.2-.11.28-.18l-.4.52v-1.58l-.55-.21v-.15h2.1v.15l-.47.2v1.12Z" style="fill: #231f20;"/>
      <path d="M77.19,154.42l.52.21v.15h-2.25v-.15l.58-.21-1.48-3.51h.15l-1.4,3.51.54.21v.15h-1.56v-.15l.54-.21,1.8-4.35h.69l1.89,4.35ZM73.56,153.23v-.41h2.38v.41h-2.38Z" style="fill: #231f20;"/>
      <path d="M79.45,150.1v4.33l.51.2v.15h-2.1v-.15l.51-.2v-3.98l-.51-.2v-.15h1.59ZM80.99,151.47c0-.2-.04-.37-.11-.51-.08-.14-.2-.25-.36-.32-.17-.07-.39-.11-.66-.11h-1.11l.02-.43h1.48c.43,0,.78.06,1.05.18s.46.28.58.49.18.43.18.68-.06.49-.19.7c-.13.21-.32.38-.59.51s-.61.19-1.04.19h-1.48l-.02-.43h1.3c.19,0,.35-.04.49-.11s.25-.18.33-.32c.08-.14.12-.31.12-.52Z" style="fill: #231f20;"/>
    </g>
    <circle cx="95.95" cy="120.78" r="12.77" style="fill: #fff; stroke: #231f20; stroke-miterlimit: 10;"/>
    <g>
      <rect x="87.42" y="117.94" width="17.05" height="13.94" style="fill: none;"/>
      <path d="M89.88,120.57v-2.14l.13.11-.86.27-.05-.14,1.09-.57h.3v2.47l.5.13v.09h-1.64v-.09l.54-.13Z" style="fill: #231f20;"/>
      <path d="M91.38,121.41c.12-.11.2-.2.25-.28s.07-.16.07-.22c0-.05-.02-.1-.05-.13-.03-.04-.07-.07-.11-.09s-.08-.05-.11-.08c-.03-.02-.05-.05-.05-.08,0-.09.03-.17.09-.24.06-.06.14-.1.24-.1.11,0,.19.03.25.1.06.07.09.16.09.29,0,.07,0,.14-.03.22-.02.07-.05.15-.09.22s-.1.16-.17.24c-.07.08-.17.18-.28.28l-.13-.13Z" style="fill: #231f20;"/>
      <path d="M93.03,119.56l-.06-.19c.18-.06.32-.11.42-.17.1-.06.17-.12.21-.19s.06-.14.06-.22c0-.1-.03-.18-.1-.25-.06-.06-.15-.1-.26-.1-.13,0-.24.03-.33.1s-.16.18-.2.33l-.18-.06c.04-.16.1-.29.18-.41s.18-.2.3-.26c.12-.06.26-.09.42-.09.15,0,.27.02.38.07s.18.11.23.2c.05.08.08.18.08.29s-.03.22-.1.31c-.06.09-.15.17-.26.23-.11.06-.23.1-.36.12l.04-.02c.19-.02.36-.01.5.03.14.04.25.12.33.22.08.1.12.23.12.38,0,.17-.05.33-.16.48-.1.15-.26.26-.46.35-.2.09-.44.13-.72.13-.14,0-.26-.01-.34-.04-.09-.03-.15-.06-.19-.11-.04-.05-.06-.1-.06-.16,0-.06.02-.11.06-.15.04-.04.09-.06.16-.06.04,0,.08,0,.12.03.04.02.07.05.11.08.03.03.07.06.11.09.04.03.07.06.12.08s.09.03.14.03c.09,0,.18-.02.25-.07s.14-.12.19-.21.07-.21.07-.35-.03-.24-.09-.32c-.06-.08-.14-.13-.24-.16-.1-.03-.22-.02-.35.01l-.12.03Z" style="fill: #231f20;"/>
      <path d="M94.85,120.8v-.09l.29-.12v-2.27l-.29-.12v-.09h.91v2.68h-.91ZM95.48,118.36l.03-.25h.79c.21,0,.37.03.5.08.13.05.22.13.28.23.06.1.09.2.09.32,0,.17-.06.3-.17.42-.11.11-.27.18-.46.2v-.03c.25.01.44.08.59.21s.21.29.21.48c0,.15-.04.28-.11.4s-.18.21-.33.28c-.15.07-.35.1-.59.1h-.8l-.03-.25h.63c.12,0,.23-.02.31-.06.09-.04.15-.1.2-.18.05-.08.07-.18.07-.31,0-.1-.02-.19-.06-.26-.04-.08-.1-.14-.19-.18-.08-.04-.19-.06-.32-.06h-.65v-.24h.63c.14,0,.25-.04.33-.12.08-.08.12-.19.12-.35,0-.09-.02-.16-.05-.22-.04-.06-.09-.11-.16-.15s-.16-.05-.27-.05h-.58Z" style="fill: #231f20;"/>
      <path d="M98.49,118.12v2.48l.29.12v.09h-1.2v-.09l.29-.12v-2.27l-.29-.12v-.09h.91ZM99.37,118.9c0-.11-.02-.21-.06-.29-.04-.08-.11-.14-.21-.18s-.22-.06-.38-.06h-.63v-.25h.85c.25,0,.45.03.6.1.15.07.26.16.33.28.07.12.1.25.1.39s-.04.28-.11.4c-.07.12-.18.22-.34.29-.15.07-.35.11-.59.11h-.84v-.24s.73,0,.73,0c.11,0,.2-.02.28-.06s.14-.1.19-.18.07-.18.07-.3Z" style="fill: #231f20;"/>
      <path d="M102.79,120.44l.07.19v.02c-.11.04-.22.08-.34.11s-.24.05-.37.07c-.13.01-.27.02-.41.02-.25,0-.47-.03-.66-.09-.19-.06-.35-.15-.48-.27-.13-.12-.23-.26-.29-.43-.07-.17-.1-.36-.1-.57,0-.28.07-.53.2-.74.13-.21.32-.38.56-.5.24-.12.54-.18.87-.18.09,0,.18,0,.27.02.09,0,.19.03.31.05l-.17.04.27-.2h.08l.14,1-.13.03-.43-.69.21.22c-.1-.07-.2-.13-.3-.16s-.22-.05-.34-.05c-.15,0-.27.02-.39.06s-.2.1-.28.19c-.08.08-.13.19-.17.31-.04.12-.06.27-.06.44,0,.28.04.52.13.7.08.19.2.33.35.43.15.09.31.14.5.14.08,0,.15,0,.23-.02.07-.01.14-.04.2-.06s.12-.06.16-.1l-.23.3v-.9l-.31-.12v-.09h1.2v.09l-.27.12v.64Z" style="fill: #231f20;"/>
    </g>
    <circle cx="90.11" cy="227.34" r="12.77" style="fill: #fff; stroke: #231f20; stroke-miterlimit: 10;"/>
    <g>
      <rect x="78.44" y="224.5" width="23.35" height="19.1" style="fill: none;"/>
      <path d="M79.87,229.5v-.15l.51-.2v-3.98l-.51-.2v-.15h1.59v4.69h-1.59ZM83.68,227.09c0-.64-.16-1.11-.47-1.41-.31-.3-.75-.45-1.29-.45h-.96l-.09-.43h1.22c.61,0,1.12.08,1.52.24s.71.4.91.73c.2.33.3.74.3,1.23,0,.53-.12.97-.36,1.34-.24.37-.56.65-.97.85s-.88.29-1.39.29h-1.23l.09-.43h1.03c.34,0,.64-.07.89-.2.26-.13.45-.35.6-.64.14-.29.21-.67.21-1.14Z" style="fill: #231f20;"/>
      <path d="M86.83,229.14l.51.2v.15h-2.1v-.15l.51-.2v-3.98l-.51-.2v-.15h2.1v.15l-.51.2v3.98ZM86.24,227.32v-.43h3.34v.43h-3.34ZM90.05,229.14l.51.2v.15h-2.1v-.15l.51-.2v-3.98l-.51-.2v-.15h2.1v.15l-.51.2v3.98Z" style="fill: #231f20;"/>
      <path d="M95.63,229.13l.52.21v.15h-2.25v-.15l.58-.21-1.48-3.51h.15l-1.4,3.51.54.21v.15h-1.56v-.15l.54-.21,1.8-4.35h.69l1.89,4.35ZM91.99,227.94v-.41h2.38v.41h-2.38Z" style="fill: #231f20;"/>
      <path d="M97.88,224.81v4.33l.51.2v.15h-2.1v-.15l.51-.2v-3.98l-.51-.2v-.15h1.59ZM99.42,226.18c0-.2-.04-.37-.11-.51-.08-.14-.2-.25-.36-.32-.17-.07-.39-.11-.66-.11h-1.11l.02-.43h1.48c.43,0,.78.06,1.05.18s.46.28.58.49.18.43.18.68-.06.49-.19.7c-.13.21-.32.38-.59.51s-.61.19-1.04.19h-1.48l-.02-.43h1.3c.19,0,.35-.04.49-.11s.25-.18.33-.32c.08-.14.12-.31.12-.52Z" style="fill: #231f20;"/>
    </g>
  </g>
</svg>