<?xml version="1.0" encoding="UTF-8"?>
<svg id="Layer_2" data-name="Layer 2" xmlns="http://www.w3.org/2000/svg" width="132.38" height="108.63" viewBox="0 0 132.38 108.63">
  <g id="Layer_1-2" data-name="Layer 1">
    <circle cx="13.27" cy="54.11" r="12.77" style="fill: #fff; stroke: #231f20; stroke-miterlimit: 10;"/>
    <circle cx="65.52" cy="54.11" r="12.77" style="fill: #d1d3d4; stroke: #231f20; stroke-miterlimit: 10;"/>
    <circle cx="119.11" cy="57.56" r="12.77" style="fill: #d1d3d4; stroke: #231f20; stroke-miterlimit: 10;"/>
    <circle cx="89.04" cy="95.35" r="12.77" style="fill: #fff; stroke: #231f20; stroke-miterlimit: 10;"/>
    <circle cx="30.49" cy="18.31" r="12.77" style="fill: #fff; stroke: #231f20; stroke-miterlimit: 10;"/>
    <circle cx="97.03" cy="13.27" r="12.77" style="fill: #fff; stroke: #231f20; stroke-miterlimit: 10;"/>
    <g>
      <line x1="30.49" y1="54.11" x2="41.84" y2="54.11" style="fill: none; stroke: #231f20; stroke-miterlimit: 10; stroke-width: .9px;"/>
      <polygon points="40.53 58.6 48.3 54.11 40.53 49.62 40.53 58.6" style="fill: #231f20;"/>
    </g>
    <g>
      <line x1="40.82" y1="30.9" x2="48.85" y2="38.93" style="fill: none; stroke: #231f20; stroke-miterlimit: 10; stroke-width: .9px;"/>
      <polygon points="44.74 41.17 53.42 43.5 51.09 34.82 44.74 41.17" style="fill: #231f20;"/>
    </g>
    <g>
      <line x1="76.89" y1="41.33" x2="83.24" y2="32.73" style="fill: none; stroke: #231f20; stroke-miterlimit: 10; stroke-width: .9px;"/>
      <polygon points="86.07 36.45 87.07 27.53 78.84 31.12 86.07 36.45" style="fill: #231f20;"/>
    </g>
    <g>
      <line x1="109.8" y1="70.07" x2="103.13" y2="78.43" style="fill: none; stroke: #231f20; stroke-miterlimit: 10; stroke-width: .9px;"/>
      <polygon points="100.44 74.6 99.1 83.48 107.46 80.2 100.44 74.6" style="fill: #231f20;"/>
    </g>
    <g>
      <line x1="103.98" y1="27.79" x2="108.88" y2="37.3" style="fill: none; stroke: #231f20; stroke-miterlimit: 10; stroke-width: .9px;"/>
      <polygon points="104.29 38.19 111.84 43.04 112.27 34.07 104.29 38.19" style="fill: #231f20;"/>
    </g>
    <g>
      <rect x="6.46" y="47.14" width="13.62" height="13.94" style="fill: none;"/>
      <path d="M12.14,47.97l-.95-.16.76-.59h.22l.47,2.81-.37.08-1.29-1.92.41.47c-.21-.15-.43-.27-.66-.34-.23-.08-.46-.11-.71-.11-.5,0-.86.09-1.09.28-.23.19-.34.44-.34.76,0,.22.06.41.17.56.12.15.27.28.47.39.2.11.42.2.67.29.25.09.51.17.77.27.27.1.53.21.8.33.27.12.51.28.73.46.22.18.4.41.53.68.13.27.2.6.2.99,0,.58-.15,1.06-.44,1.45-.29.39-.68.68-1.17.88-.49.2-1.05.3-1.67.3-.43,0-.81-.03-1.16-.08-.34-.05-.7-.15-1.07-.28l-.52-2.32h.38l1.79,2.31-1.37-.86c.32.17.6.29.85.36s.52.1.8.1c.43,0,.79-.05,1.06-.14.28-.1.48-.24.62-.43.14-.19.2-.42.2-.69s-.07-.48-.21-.66c-.14-.17-.32-.32-.55-.43s-.47-.21-.74-.3-.53-.18-.79-.27c-.26-.09-.5-.2-.73-.32s-.44-.27-.62-.44c-.18-.17-.32-.39-.43-.64s-.16-.55-.16-.91c0-.48.12-.9.37-1.25.25-.35.6-.62,1.05-.82.45-.19.99-.29,1.6-.29.38,0,.74.04,1.07.11.33.07.66.19,1.01.37Z" style="fill: #231f20;"/>
      <path d="M15.29,59.3v-3.75l.23.2-1.51.47-.09-.24,1.9-.99h.52v4.32l.88.23v.16h-2.88v-.16l.94-.23Z" style="fill: #231f20;"/>
    </g>
    <g>
      <rect x="58.71" y="47.14" width="13.62" height="13.94" style="fill: none;"/>
      <path d="M61.84,47.66v7.43l.87.35v.26h-3.59v-.26l.87-.35v-6.82l-.87-.35v-.26h2.72ZM62.87,51.29c.44,0,.8-.12,1.07-.37.28-.25.41-.6.41-1.08,0-.31-.06-.57-.18-.79-.12-.22-.31-.38-.57-.5-.26-.11-.61-.17-1.04-.17h-2.23l.34-.74h2.75c.66,0,1.2.09,1.61.27.41.18.7.42.89.73s.28.64.28,1.01-.08.69-.25.98-.42.52-.75.7c-.33.18-.75.3-1.24.35v-.03c.38.02.68.07.9.16s.38.22.5.4c.12.18.22.4.31.68l.48,1.49c.08.26.17.46.25.57.08.12.18.19.29.22.11.03.25.04.42.04v.48c-.55.04-.99.05-1.34.04-.34-.01-.62-.06-.82-.15s-.35-.21-.46-.38-.19-.38-.26-.65l-.4-1.46c-.08-.29-.16-.51-.24-.67s-.19-.27-.32-.33c-.13-.06-.3-.09-.52-.09h-2.15l-.34-.73h2.6Z" style="fill: #231f20;"/>
      <path d="M69.01,59.3v-3.75l.23.2-1.51.47-.09-.24,1.9-.99h.52v4.32l.88.23v.16h-2.88v-.16l.94-.23Z" style="fill: #231f20;"/>
    </g>
    <g>
      <rect x="112.29" y="50.58" width="13.62" height="13.94" style="fill: none;"/>
      <path d="M115.43,51.11v7.43l.87.35v.26h-3.59v-.26l.87-.35v-6.82l-.87-.35v-.26h2.72ZM116.46,54.74c.44,0,.8-.12,1.07-.37.28-.25.41-.6.41-1.08,0-.31-.06-.57-.18-.79-.12-.22-.31-.38-.57-.5-.26-.11-.61-.17-1.04-.17h-2.23l.34-.74h2.75c.66,0,1.2.09,1.61.27.41.18.7.42.89.73s.28.64.28,1.01-.08.69-.25.98-.42.52-.75.7c-.33.18-.75.3-1.24.35v-.03c.38.02.68.07.9.16s.38.22.5.4c.12.18.22.4.31.68l.48,1.49c.08.26.17.46.25.57.08.12.18.19.29.22.11.03.25.04.42.04v.48c-.55.04-.99.05-1.34.04-.34-.01-.62-.06-.82-.15s-.35-.21-.46-.38-.19-.38-.26-.65l-.4-1.46c-.08-.29-.16-.51-.24-.67s-.19-.27-.32-.33c-.13-.06-.3-.09-.52-.09h-2.15l-.34-.73h2.6Z" style="fill: #231f20;"/>
      <path d="M123.48,62.6l.92-1.11h.18l-.3,1.8h-.1l-.44-.16h-2.62v-.11l1.24-1.43c.21-.24.38-.46.5-.64.12-.19.21-.35.26-.51s.08-.29.08-.43c0-.25-.07-.45-.22-.6s-.34-.23-.58-.23c-.16,0-.31.03-.45.09-.14.06-.26.15-.36.27-.1.13-.19.29-.25.5l-.29-.07c.12-.55.33-.96.64-1.23s.69-.41,1.14-.41c.28,0,.53.05.75.16.21.11.38.26.5.46.12.2.18.42.18.68,0,.16-.02.31-.07.45-.05.14-.12.29-.23.44-.11.15-.26.32-.45.51s-.43.4-.71.65l-.83.77-.02-.28h2.31l-.79.4Z" style="fill: #231f20;"/>
    </g>
    <g>
      <rect x="23.68" y="11.34" width="13.62" height="13.94" style="fill: none;"/>
      <path d="M29.36,12.18l-.95-.16.76-.59h.22l.47,2.81-.37.08-1.29-1.92.41.47c-.21-.15-.43-.27-.66-.34-.23-.08-.46-.11-.71-.11-.5,0-.86.09-1.09.28-.23.19-.34.44-.34.76,0,.22.06.41.17.56.12.15.27.28.47.39.2.11.42.2.67.29.25.09.51.17.77.27.27.1.53.21.8.33.27.12.51.28.73.46.22.18.4.41.53.68.13.27.2.6.2.99,0,.58-.15,1.06-.44,1.45-.29.39-.68.68-1.17.88-.49.2-1.05.3-1.67.3-.43,0-.81-.03-1.16-.08-.34-.05-.7-.15-1.07-.28l-.52-2.32h.38l1.79,2.31-1.37-.86c.32.17.6.29.85.36s.52.1.8.1c.43,0,.79-.05,1.06-.14.28-.1.48-.24.62-.43.14-.19.2-.42.2-.69s-.07-.48-.21-.66c-.14-.17-.32-.32-.55-.43s-.47-.21-.74-.3-.53-.18-.79-.27c-.26-.09-.5-.2-.73-.32s-.44-.27-.62-.44c-.18-.17-.32-.39-.43-.64s-.16-.55-.16-.91c0-.48.12-.9.37-1.25.25-.35.6-.62,1.05-.82.45-.19.99-.29,1.6-.29.38,0,.74.04,1.07.11.33.07.66.19,1.01.37Z" style="fill: #231f20;"/>
      <path d="M33.4,23.36l.92-1.11h.18l-.3,1.8h-.1l-.44-.16h-2.62v-.11l1.24-1.43c.21-.24.38-.46.5-.64.12-.19.21-.35.26-.51s.08-.29.08-.43c0-.25-.07-.45-.22-.6s-.34-.23-.58-.23c-.16,0-.31.03-.45.09-.14.06-.26.15-.36.27-.1.13-.19.29-.25.5l-.29-.07c.12-.55.33-.96.64-1.23s.69-.41,1.14-.41c.28,0,.53.05.75.16.21.11.38.26.5.46.12.2.18.42.18.68,0,.16-.02.31-.07.45-.05.14-.12.29-.23.44-.11.15-.26.32-.45.51s-.43.4-.71.65l-.83.77-.02-.28h2.31l-.79.4Z" style="fill: #231f20;"/>
    </g>
    <g>
      <rect x="90.22" y="6.3" width="13.62" height="13.94" style="fill: none;"/>
      <path d="M95.9,7.14l-.95-.16.76-.59h.22l.47,2.81-.37.08-1.29-1.92.41.47c-.21-.15-.43-.27-.66-.34-.23-.08-.46-.11-.71-.11-.5,0-.86.09-1.09.28-.23.19-.34.44-.34.76,0,.22.06.41.17.56.12.15.27.28.47.39.2.11.42.2.67.29.25.09.51.17.77.27.27.1.53.21.8.33.27.12.51.28.73.46.22.18.4.41.53.68.13.27.2.6.2.99,0,.58-.15,1.06-.44,1.45-.29.39-.68.68-1.17.88-.49.2-1.05.3-1.67.3-.43,0-.81-.03-1.16-.08-.34-.05-.7-.15-1.07-.28l-.52-2.32h.38l1.79,2.31-1.37-.86c.32.17.6.29.85.36s.52.1.8.1c.43,0,.79-.05,1.06-.14.28-.1.48-.24.62-.43.14-.19.2-.42.2-.69s-.07-.48-.21-.66c-.14-.17-.32-.32-.55-.43s-.47-.21-.74-.3-.53-.18-.79-.27c-.26-.09-.5-.2-.73-.32s-.44-.27-.62-.44c-.18-.17-.32-.39-.43-.64s-.16-.55-.16-.91c0-.48.12-.9.37-1.25.25-.35.6-.62,1.05-.82.45-.19.99-.29,1.6-.29.38,0,.74.04,1.07.11.33.07.66.19,1.01.37Z" style="fill: #231f20;"/>
      <path d="M98.5,16.7l-.1-.34c.31-.1.55-.2.73-.3.17-.1.29-.21.36-.33.07-.12.1-.24.1-.38,0-.17-.06-.32-.17-.43s-.26-.17-.46-.17c-.23,0-.42.06-.58.18-.16.12-.27.32-.35.58l-.31-.1c.06-.28.17-.51.31-.71.14-.2.32-.35.53-.46s.46-.16.74-.16c.26,0,.48.04.66.12.18.08.31.2.4.34.09.15.14.32.14.51s-.06.38-.17.54c-.11.16-.26.29-.45.39s-.4.17-.63.21l.06-.04c.33-.04.62-.02.87.05s.44.21.57.39.2.4.2.67c0,.3-.09.58-.27.83-.18.25-.45.46-.8.62s-.77.23-1.26.23c-.25,0-.45-.02-.6-.07-.15-.05-.26-.11-.33-.19s-.1-.17-.1-.28c0-.11.03-.2.1-.27.07-.07.16-.1.28-.1.08,0,.15.02.21.05.06.04.13.08.19.13s.12.1.19.16.13.1.2.13.15.06.25.06c.16,0,.31-.04.45-.13.14-.09.25-.21.33-.38.08-.17.13-.37.13-.61s-.05-.42-.15-.56c-.1-.14-.24-.24-.42-.28s-.38-.04-.61.02l-.22.06Z" style="fill: #231f20;"/>
    </g>
    <g>
      <rect x="82.23" y="88.38" width="13.62" height="13.94" style="fill: none;"/>
      <path d="M87.91,89.22l-.95-.16.76-.59h.22l.47,2.81-.37.08-1.29-1.92.41.47c-.21-.15-.43-.27-.66-.34-.23-.08-.46-.11-.71-.11-.5,0-.86.09-1.09.28-.23.19-.34.44-.34.76,0,.22.06.41.17.56.12.15.27.28.47.39.2.11.42.2.67.29.25.09.51.17.77.27.27.1.53.21.8.33.27.12.51.28.73.46.22.18.4.41.53.68.13.27.2.6.2.99,0,.58-.15,1.06-.44,1.45-.29.39-.68.68-1.17.88-.49.2-1.05.3-1.67.3-.43,0-.81-.03-1.16-.08-.34-.05-.7-.15-1.07-.28l-.52-2.32h.38l1.79,2.31-1.37-.86c.32.17.6.29.85.36s.52.1.8.1c.43,0,.79-.05,1.06-.14.28-.1.48-.24.62-.43.14-.19.2-.42.2-.69s-.07-.48-.21-.66c-.14-.17-.32-.32-.55-.43s-.47-.21-.74-.3-.53-.18-.79-.27c-.26-.09-.5-.2-.73-.32s-.44-.27-.62-.44c-.18-.17-.32-.39-.43-.64s-.16-.55-.16-.91c0-.48.12-.9.37-1.25.25-.35.6-.62,1.05-.82.45-.19.99-.29,1.6-.29.38,0,.74.04,1.07.11.33.07.66.19,1.01.37Z" style="fill: #231f20;"/>
      <path d="M92.27,96.23v4.37l.6.2v.15h-2.29v-.15l.64-.2v-3.66l.38-.16-1.82,2.35-.09-.21h2.99l.65-.1-.19.82h-3.85v-.43l2.21-2.97h.78Z" style="fill: #231f20;"/>
    </g>
  </g>
</svg>