<?xml version="1.0" encoding="UTF-8"?>
<svg id="Layer_2" data-name="Layer 2" xmlns="http://www.w3.org/2000/svg" width="95.64" height="69" viewBox="0 0 95.64 69">
  <g id="Layer_1-2" data-name="Layer 1">
    <circle cx="16.73" cy="18.52" r="16.1" style="fill: #fff; stroke: #231f20; stroke-miterlimit: 10; stroke-width: 1.26px;"/>
    <circle cx="50.62" cy="55.72" r="12.77" style="fill: #fff; stroke: #231f20; stroke-miterlimit: 10;"/>
    <circle cx="82.36" cy="18.14" r="12.77" style="fill: #fff; stroke: #231f20; stroke-miterlimit: 10;"/>
    <g>
      <line x1="39.88" y1="18.52" x2="58.93" y2="18.52" style="fill: none; stroke: #231f20; stroke-miterlimit: 10; stroke-width: .9px;"/>
      <polygon points="57.62 23.01 65.39 18.52 57.62 14.03 57.62 23.01" style="fill: #231f20;"/>
    </g>
    <g>
      <line x1="71.38" y1="30.44" x2="64.71" y2="38.8" style="fill: none; stroke: #231f20; stroke-miterlimit: 10; stroke-width: .9px;"/>
      <polygon points="62.02 34.98 60.68 43.86 69.04 40.58 62.02 34.98" style="fill: #231f20;"/>
    </g>
    <g>
      <rect x="2.36" y="11.95" width="30.99" height="13.94" style="fill: none;"/>
      <path d="M8.04,12.79l-.95-.16.76-.59h.22l.47,2.81-.37.08-1.29-1.92.41.47c-.21-.15-.43-.27-.66-.34-.23-.08-.46-.11-.71-.11-.5,0-.86.09-1.09.28-.23.19-.34.44-.34.76,0,.22.06.41.17.56s.27.28.47.39c.2.11.42.2.67.29.25.09.51.17.77.27.27.1.54.21.8.33.27.12.51.28.73.46.22.18.4.41.53.68.13.27.2.6.2.99,0,.58-.14,1.06-.43,1.45-.29.39-.68.68-1.17.88-.49.2-1.05.3-1.67.3-.43,0-.81-.03-1.16-.08s-.7-.15-1.07-.28l-.52-2.32h.38l1.79,2.31-1.37-.86c.32.17.6.29.85.36s.52.1.8.1c.43,0,.79-.05,1.06-.14s.49-.24.62-.43c.14-.19.2-.42.2-.69s-.07-.48-.21-.66c-.14-.17-.32-.32-.55-.43-.23-.11-.47-.21-.74-.3-.27-.09-.53-.18-.79-.27-.26-.09-.5-.2-.73-.32-.23-.12-.44-.27-.62-.44-.18-.17-.32-.39-.43-.64-.1-.25-.16-.55-.16-.91,0-.48.12-.9.37-1.25.25-.35.6-.62,1.05-.82.45-.19.99-.29,1.6-.29.38,0,.74.04,1.07.11s.66.19,1.01.37Z" style="fill: #231f20;"/>
      <path d="M11.19,24.12v-3.75l.23.2-1.51.47-.09-.24,1.9-.99h.52v4.32l.88.23v.16h-2.88v-.16l.94-.23Z" style="fill: #231f20;"/>
      <path d="M18.84,17.53v.73h-4.51v-.73h4.51ZM16.22,15.64h.73v4.51h-.73v-4.51Z" style="fill: #231f20;"/>
      <path d="M25.27,12.79l-.95-.16.76-.59h.22l.47,2.81-.37.08-1.29-1.92.41.47c-.21-.15-.43-.27-.66-.34-.23-.08-.46-.11-.71-.11-.5,0-.86.09-1.09.28-.23.19-.34.44-.34.76,0,.22.06.41.17.56s.27.28.47.39c.2.11.42.2.67.29.25.09.51.17.77.27.27.1.54.21.8.33.27.12.51.28.73.46.22.18.4.41.53.68.13.27.2.6.2.99,0,.58-.14,1.06-.43,1.45-.29.39-.68.68-1.17.88-.49.2-1.05.3-1.67.3-.43,0-.81-.03-1.16-.08s-.7-.15-1.07-.28l-.52-2.32h.38l1.79,2.31-1.37-.86c.32.17.6.29.85.36s.52.1.8.1c.43,0,.79-.05,1.06-.14s.49-.24.62-.43c.14-.19.2-.42.2-.69s-.07-.48-.21-.66c-.14-.17-.32-.32-.55-.43-.23-.11-.47-.21-.74-.3-.27-.09-.53-.18-.79-.27-.26-.09-.5-.2-.73-.32-.23-.12-.44-.27-.62-.44-.18-.17-.32-.39-.43-.64-.1-.25-.16-.55-.16-.91,0-.48.12-.9.37-1.25.25-.35.6-.62,1.05-.82.45-.19.99-.29,1.6-.29.38,0,.74.04,1.07.11s.66.19,1.01.37Z" style="fill: #231f20;"/>
      <path d="M29.31,23.97l.92-1.11h.18l-.3,1.8h-.11l-.44-.16h-2.62v-.11l1.24-1.43c.21-.24.38-.46.5-.64.12-.19.21-.35.26-.51s.08-.29.08-.43c0-.25-.07-.45-.21-.6s-.34-.23-.58-.23c-.16,0-.31.03-.45.09-.14.06-.26.15-.36.27-.1.13-.19.29-.25.5l-.29-.07c.12-.55.33-.96.64-1.23.31-.27.69-.41,1.14-.41.28,0,.53.05.75.16.21.11.38.26.5.46.12.2.18.42.18.68,0,.16-.02.31-.07.45-.05.14-.12.29-.23.44-.11.15-.26.32-.45.51-.19.19-.43.4-.71.65l-.83.77-.03-.28h2.31l-.79.4Z" style="fill: #231f20;"/>
    </g>
    <g>
      <rect x="75.55" y="11.17" width="13.62" height="13.94" style="fill: none;"/>
      <path d="M81.23,12.01l-.95-.16.76-.59h.22l.47,2.81-.37.08-1.29-1.92.41.47c-.21-.15-.43-.27-.66-.34-.23-.08-.46-.11-.71-.11-.5,0-.86.09-1.09.28-.23.19-.34.44-.34.76,0,.22.06.41.17.56s.27.28.47.39c.2.11.42.2.67.29.25.09.51.17.77.27.27.1.54.21.8.33.27.12.51.28.73.46.22.18.4.41.53.68.13.27.2.6.2.99,0,.58-.14,1.06-.43,1.45-.29.39-.68.68-1.17.88-.49.2-1.05.3-1.67.3-.43,0-.81-.03-1.16-.08s-.7-.15-1.07-.28l-.52-2.32h.38l1.79,2.31-1.37-.86c.32.17.6.29.85.36s.52.1.8.1c.43,0,.79-.05,1.06-.14s.49-.24.62-.43c.14-.19.2-.42.2-.69s-.07-.48-.21-.66c-.14-.17-.32-.32-.55-.43-.23-.11-.47-.21-.74-.3-.27-.09-.53-.18-.79-.27-.26-.09-.5-.2-.73-.32-.23-.12-.44-.27-.62-.44-.18-.17-.32-.39-.43-.64-.1-.25-.16-.55-.16-.91,0-.48.12-.9.37-1.25.25-.35.6-.62,1.05-.82.45-.19.99-.29,1.6-.29.38,0,.74.04,1.07.11s.66.19,1.01.37Z" style="fill: #231f20;"/>
      <path d="M83.83,21.56l-.1-.34c.31-.1.55-.2.73-.3.17-.1.29-.21.36-.33.07-.12.1-.24.1-.38,0-.17-.05-.32-.17-.43-.11-.11-.26-.17-.46-.17-.23,0-.42.06-.58.18-.16.12-.27.32-.35.58l-.31-.1c.07-.28.17-.51.31-.71.14-.2.32-.35.53-.46s.46-.16.74-.16c.26,0,.48.04.66.12.18.08.31.2.4.34.09.15.14.32.14.51s-.06.38-.17.54c-.11.16-.26.29-.45.39-.19.1-.4.17-.63.21l.06-.04c.33-.04.62-.02.87.05s.44.21.57.39c.13.18.2.4.2.67,0,.3-.09.58-.28.83-.18.25-.45.46-.8.62s-.77.23-1.26.23c-.25,0-.45-.02-.6-.07s-.26-.11-.33-.19-.1-.17-.1-.28c0-.11.03-.2.1-.27.07-.07.16-.1.28-.1.08,0,.15.02.21.05.06.04.13.08.19.13s.12.1.19.16c.06.05.13.1.2.13s.15.06.25.06c.16,0,.31-.04.45-.13.14-.09.25-.21.33-.38.08-.17.13-.37.13-.61s-.05-.42-.15-.56c-.1-.14-.24-.24-.42-.28-.18-.05-.38-.04-.61.02l-.22.06Z" style="fill: #231f20;"/>
    </g>
    <g>
      <rect x="43.81" y="48.75" width="13.62" height="13.94" style="fill: none;"/>
      <path d="M49.49,49.59l-.95-.16.76-.59h.22l.47,2.81-.37.08-1.29-1.92.41.47c-.21-.15-.43-.27-.66-.34-.23-.08-.46-.11-.71-.11-.5,0-.86.09-1.09.28-.23.19-.34.44-.34.76,0,.22.06.41.17.56.12.15.27.28.47.39.2.11.42.2.67.29s.51.17.77.27c.27.1.53.21.8.33.27.12.51.28.73.46.22.18.4.41.53.68.13.27.2.6.2.99,0,.58-.15,1.06-.44,1.45-.29.39-.68.68-1.17.88-.49.2-1.05.3-1.67.3-.43,0-.81-.03-1.16-.08-.34-.05-.7-.15-1.07-.28l-.52-2.32h.38l1.79,2.31-1.37-.86c.32.17.6.29.85.36s.52.1.8.1c.43,0,.79-.05,1.07-.14.28-.1.48-.24.62-.43.14-.19.2-.42.2-.69s-.07-.48-.21-.66c-.14-.17-.32-.32-.55-.43-.23-.11-.47-.21-.74-.3-.27-.09-.53-.18-.79-.27-.26-.09-.5-.2-.73-.32-.23-.12-.44-.27-.62-.44s-.32-.39-.43-.64c-.1-.25-.16-.55-.16-.91,0-.48.12-.9.37-1.25s.6-.62,1.05-.82c.45-.19.99-.29,1.61-.29.38,0,.74.04,1.07.11.33.07.66.19,1.01.37Z" style="fill: #231f20;"/>
      <path d="M53.85,56.6v4.37l.6.2v.15h-2.29v-.15l.64-.2v-3.66l.38-.16-1.82,2.35-.09-.21h2.99l.65-.1-.19.82h-3.85v-.43l2.21-2.97h.78Z" style="fill: #231f20;"/>
    </g>
    <g>
      <rect x="43.81" y="1.46" width="13.62" height="13.94" style="fill: none;"/>
      <path d="M46.94,1.98v7.43l.87.35v.26h-3.59v-.26l.87-.35V2.59l-.87-.35v-.26h2.72ZM47.97,5.62c.44,0,.8-.12,1.07-.37.28-.25.41-.6.41-1.08,0-.31-.06-.57-.18-.79-.12-.22-.31-.38-.57-.5s-.61-.17-1.04-.17h-2.23l.34-.74h2.75c.66,0,1.2.09,1.61.27.41.18.71.42.89.73.19.3.28.64.28,1.01s-.08.69-.25.98-.42.52-.75.7c-.33.18-.75.3-1.25.35v-.03c.38.02.68.07.9.16s.38.22.5.4c.12.18.22.4.31.68l.48,1.49c.08.26.17.46.25.57.08.12.18.19.29.22s.25.04.42.04v.48c-.55.04-.99.05-1.34.04-.34-.01-.62-.06-.82-.15s-.35-.21-.46-.38c-.11-.17-.19-.38-.26-.65l-.4-1.46c-.08-.29-.16-.51-.24-.67s-.19-.27-.32-.33c-.13-.06-.3-.09-.52-.09h-2.15l-.34-.73h2.6Z" style="fill: #231f20;"/>
      <path d="M54.11,13.62v-3.75l.23.2-1.51.47-.09-.24,1.9-.99h.52v4.32l.88.23v.16h-2.88v-.16l.94-.23Z" style="fill: #231f20;"/>
    </g>
    <g>
      <rect x="71.22" y="39.75" width="13.62" height="13.94" style="fill: none;"/>
      <path d="M74.35,40.27v7.43l.87.35v.26h-3.59v-.26l.87-.35v-6.82l-.87-.35v-.26h2.72ZM75.39,43.91c.44,0,.8-.12,1.07-.37.28-.25.41-.6.41-1.08,0-.31-.06-.57-.18-.79s-.31-.38-.57-.5c-.26-.11-.61-.17-1.04-.17h-2.23l.34-.74h2.75c.66,0,1.2.09,1.61.27.41.18.7.42.89.73.19.3.28.64.28,1.01s-.08.69-.25.98-.42.52-.75.7c-.33.18-.75.3-1.24.35v-.03c.38.02.68.07.9.16s.38.22.5.4c.12.18.22.4.31.68l.48,1.49c.08.26.17.46.25.57.08.12.18.19.29.22.11.03.25.04.42.04v.48c-.55.04-.99.05-1.34.04-.34-.01-.62-.06-.82-.15s-.35-.21-.46-.38c-.11-.17-.19-.38-.26-.65l-.4-1.46c-.08-.29-.16-.51-.24-.67s-.19-.27-.32-.33c-.13-.06-.3-.09-.52-.09h-2.15l-.34-.73h2.6Z" style="fill: #231f20;"/>
      <path d="M82.41,51.77l.92-1.11h.18l-.3,1.8h-.11l-.44-.16h-2.62v-.11l1.24-1.43c.21-.24.38-.46.5-.64.12-.19.21-.35.26-.51s.08-.29.08-.43c0-.25-.07-.45-.21-.6s-.34-.23-.58-.23c-.16,0-.31.03-.45.09-.14.06-.26.15-.36.27-.1.13-.19.29-.25.5l-.29-.07c.12-.55.33-.96.64-1.23.31-.27.69-.41,1.14-.41.28,0,.53.05.75.16.21.11.38.26.5.46.12.2.18.42.18.68,0,.16-.02.31-.07.45-.05.14-.12.29-.23.44-.11.15-.26.32-.45.51-.19.19-.43.4-.71.65l-.83.77-.03-.28h2.31l-.79.4Z" style="fill: #231f20;"/>
    </g>
  </g>
</svg>