<?xml version="1.0" encoding="UTF-8"?>
<svg id="Layer_2" data-name="Layer 2" xmlns="http://www.w3.org/2000/svg" width="85.61" height="66.58" viewBox="0 0 85.61 66.58">
  <g id="Layer_1-2" data-name="Layer 1">
    <circle cx="13.27" cy="50.86" r="12.77" style="fill: #fff; stroke: #231f20; stroke-miterlimit: 10;"/>
    <circle cx="45.01" cy="13.27" r="12.77" style="fill: #fff; stroke: #231f20; stroke-miterlimit: 10;"/>
    <g>
      <line x1="27.77" y1="20.58" x2="21.11" y2="28.94" style="fill: none; stroke: #231f20; stroke-miterlimit: 10; stroke-width: .9px;"/>
      <polygon points="18.41 25.12 17.08 34 25.43 30.72 18.41 25.12" style="fill: #231f20;"/>
    </g>
    <g>
      <line x1="25.55" y1="38.99" x2="32.22" y2="30.63" style="fill: none; stroke: #231f20; stroke-miterlimit: 10; stroke-width: .9px;"/>
      <polygon points="34.91 34.45 36.25 25.58 27.89 28.86 34.91 34.45" style="fill: #231f20;"/>
    </g>
    <g>
      <line x1="55.9" y1="24.85" x2="61.25" y2="34.11" style="fill: none; stroke: #231f20; stroke-miterlimit: 10; stroke-width: .9px;"/>
      <polygon points="56.71 35.22 64.48 39.71 64.48 30.73 56.71 35.22" style="fill: #231f20;"/>
    </g>
    <g>
      <line x1="49.17" y1="53.31" x2="38.47" y2="53.31" style="fill: none; stroke: #231f20; stroke-miterlimit: 10; stroke-width: .9px;"/>
      <polygon points="39.79 48.82 32.01 53.31 39.79 57.8 39.79 48.82" style="fill: #231f20;"/>
    </g>
    <g>
      <rect x="40.59" y="8.95" width="13.62" height="13.94" style="fill: none;"/>
      <path d="M44.59,17.24v.26h-3.59v-.26l.87-.35v-6.82l-.87-.35v-.26h3.59v.26l-.87.35v6.82l.87.35Z" style="fill: #231f20;"/>
      <path d="M49,17.24v.26h-3.59v-.26l.87-.35v-6.82l-.87-.35v-.26h3.59v.26l-.87.35v6.82l.87.35Z" style="fill: #231f20;"/>
    </g>
    <g>
      <rect x="8.8" y="46.34" width="13.62" height="13.94" style="fill: none;"/>
      <path d="M12.8,54.64v.26h-3.59v-.26l.87-.35v-6.82l-.87-.35v-.26h3.59v.26l-.87.35v6.82l.87.35Z" style="fill: #231f20;"/>
    </g>
    <circle cx="72.33" cy="53.31" r="12.77" style="fill: #fff; stroke: #231f20; stroke-miterlimit: 10;"/>
    <g>
      <rect x="67.86" y="48.79" width="13.62" height="13.94" style="fill: none;"/>
      <path d="M71.86,57.09v.26h-3.59v-.26l.87-.35v-6.82l-.87-.35v-.26h3.59v.26l-.87.35v6.82l.87.35Z" style="fill: #231f20;"/>
      <path d="M76.27,57.09v.26h-3.59v-.26l.87-.35v-6.82l-.87-.35v-.26h3.59v.26l-.87.35v6.82l.87.35Z" style="fill: #231f20;"/>
      <path d="M80.68,57.09v.26h-3.59v-.26l.87-.35v-6.82l-.87-.35v-.26h3.59v.26l-.87.35v6.82l.87.35Z" style="fill: #231f20;"/>
    </g>
  </g>
</svg>